MezenetsUnicode.sfdir
StartChar: uni0007
Encoding: 7 7 7
Width: 500
Flags: W
HStem: 0 19<66 435> 748 22<66 435>
VStem: 37 22<34 733> 442 22<34 733>
DStem2: 66 748 59 733 0.465951 -0.884811<10.0105 395.419 421.078 806.952> 59 34 66 19 0.465951 0.884811<0 385.408 411.068 796.942>
LayerCount: 3
Fore
SplineSet
37 770 m 5
 464 770 l 5
 464 0 l 5
 37 0 l 5
 37 770 l 5
66 748 m 5
 250 398 l 5
 435 748 l 5
 66 748 l 5
258 383 m 5
 442 34 l 5
 442 733 l 5
 258 383 l 5
435 19 m 5
 250 369 l 5
 66 19 l 5
 435 19 l 5
59 733 m 5
 59 34 l 5
 243 383 l 5
 59 733 l 5
EndSplineSet
Validated: 1
EndChar
StartChar: exclam
Encoding: 33 33 47
Width: 333
Flags: W
HStem: -9 107<140.695 225.537> 656 20G<166.5 200>
VStem: 130 107<0.953918 86.462 423.917 663.421>
LayerCount: 3
Fore
SplineSet
189 176 m 5
 176 176 l 5
 152.054 463.358 130 526.089 130 599 c 4
 130 646 150 676 183 676 c 4
 217 676 236 648 236 596 c 4
 236 526 214 462 189 176 c 5
183 98 m 4
 213 98 237 73 237 43 c 4
 237 13 214 -9 182 -9 c 4
 152 -9 130 13 130 43 c 4
 130 74 153 98 183 98 c 4
EndSplineSet
Validated: 1
EndChar
StartChar: quotedbl
Encoding: 34 34 48
Width: 343
Flags: W
HStem: 431 245<86.1143 114.395 228.114 256.395>
VStem: 58 85<489.767 670.645> 200 85<489.767 670.645>
LayerCount: 3
Fore
SplineSet
253 431 m 1
 232 431 l 1
 215 521 200 619 200 635 c 0
 200 658 219 676 243 676 c 0
 266 676 285 658 285 636 c 0
 285 618 270 520 253 431 c 1
111 431 m 1
 90 431 l 1
 73 521 58 619 58 635 c 0
 58 658 77 676 101 676 c 0
 124 676 143 658 143 636 c 0
 143 618 128 520 111 431 c 1
EndSplineSet
Validated: 1
EndChar
StartChar: numbersign
Encoding: 35 35 49
Width: 500
Flags: W
HStem: 0 21G<79 140.056 273 333.87> 216 55<5 112 179 304 371 471> 405 55<32 142 208 333 399 496> 642 20G<177.931 239 368.03 429>
VStem: 79 58<0 58> 181 58<604 662> 273 58<0 58> 371 58<604 662>
DStem2: 79 0 137 0 0.152282 0.988337<8.83233 218.506 283.068 409.87 474.279 669.812> 273 0 331 0 0.14644 0.989219<8.49354 218.211 282.43 409.42 473.492 669.214>
LayerCount: 3
Fore
SplineSet
471 271 m 1
 471 216 l 1
 362 216 l 1
 331 0 l 1
 273 0 l 1
 304 216 l 1
 170 216 l 1
 137 0 l 1
 79 0 l 1
 112 216 l 1
 5 216 l 1
 5 271 l 1
 121 271 l 1
 142 405 l 1
 32 405 l 1
 32 460 l 1
 150 460 l 1
 181 662 l 1
 239 662 l 1
 208 460 l 1
 341 460 l 1
 371 662 l 1
 429 662 l 1
 399 460 l 1
 496 460 l 1
 496 405 l 1
 391 405 l 1
 371 271 l 1
 471 271 l 1
333 405 m 1
 200 405 l 1
 179 271 l 1
 313 271 l 1
 333 405 l 1
EndSplineSet
Validated: 1
EndChar
StartChar: dollar
Encoding: 36 36 50
Width: 500
Flags: W
HStem: 0 28<156.808 230 264 307.033> 637 27<188.186 229 264 316.718>
VStem: 44 15<157.447 181> 52 74<473.95 588.358> 230 34<-87 0 28 293 407 637 662.064 727> 378 79<88.2245 218.132> 410 15<500 526.362>
LayerCount: 3
Fore
SplineSet
52 512 m 0xd8
 52 596 111 651 230 664 c 1
 230 727 l 1
 264 727 l 1
 264 664 l 1
 348 654 391 639 425 611 c 1
 425 500 l 1
 410 500 l 1xda
 393 585 348 627 264 637 c 1
 264 391 l 1
 372 328 457 294 457 170 c 0
 457 66 385 20 264 0 c 1
 264 -87 l 1
 230 -87 l 1
 230 0 l 1
 146 3 104 14 44 51 c 1
 44 181 l 1
 59 181 l 1xec
 83 76 136 29 230 28 c 1
 230 310 l 1
 103 381 52 429 52 512 c 0xd8
229 407 m 1
 229 637 l 1
 160 623 126 589 126 534 c 0
 126 488 146 463 229 407 c 1
264 293 m 1
 264 28 l 1
 342 43 378 80 378 146 c 0xcc
 378 208 357 235 264 293 c 1
EndSplineSet
Validated: 1
EndChar
StartChar: percent
Encoding: 37 37 51
Width: 833
Flags: W
HStem: -13 21G<201 260.176> 0 30<545.704 635.409> 289 34<154.321 248.289> 339 32<630.353 717.395> 583 25<378.409 512.947> 632 30<244.357 305.06> 656 20G<568 634>
VStem: 61 76<342.841 484.296> 359 25<474.893 592.444> 449 76<50.6492 193.061> 746 26<183.851 304.003>
DStem2: 201 -13 249 -13 0.487793 0.872959<23.4141 717.688 734.553 793.659>
LayerCount: 3
Fore
SplineSet
669 371 m 0x79e0
 734 371 772 332 772 264 c 0
 772 186 739 105 686 51 c 0
 651 16 614 0 569 0 c 0
 497 0 449 51 449 129 c 0
 449 254 556 371 669 371 c 0x79e0
586 30 m 0
 676 30 746 166 746 259 c 0
 746 303 714 339 676 339 c 0
 575 339 525 145 525 94 c 0
 525 56 550 30 586 30 c 0
282 662 m 0xbde0
 358 662 341 608 439 608 c 0
 501 608 541 625 595 676 c 1
 634 676 l 1x3be0
 249 -13 l 1
 201 -13 l 1
 552 613 l 1
 512 590 486 583 442 583 c 0
 413 583 395 586 377 593 c 1
 382 575 384 563 384 549 c 0
 384 435 301 289 179 289 c 0
 114 289 61 346 61 416 c 0
 61 543 168 662 282 662 c 0xbde0
282 632 m 0x3de0
 215 632 137 477 137 384 c 0
 137 348 161 323 196 323 c 0
 277 323 359 438 359 551 c 0
 359 565 356 580 350 600 c 1
 291 616 296 632 282 632 c 0x3de0
EndSplineSet
Validated: 1
EndChar
StartChar: ampersand
Encoding: 38 38 52
Width: 778
Flags: W
HStem: -13 71<566.92 675.071> -13 52<197.514 324.13> 405 21<495 540.711 665.613 711> 644 32<310.145 404.649>
VStem: 42 92<104.791 228.596> 202 79<458.044 599.8> 438 53<492.35 617.761>
LayerCount: 3
Fore
SplineSet
491 555 m 0x7e
 491 486 451 438 336 384 c 1
 380 298 412 247 468 178 c 1
 532 263 559 317 559 360 c 0
 559 390 545 400 495 405 c 1
 495 426 l 1
 711 426 l 1
 711 405 l 1
 661 399 641 387 617 346 c 0
 575.489 272.557 559.728 242.158 491 150 c 1
 537 89 589 58 645 58 c 0
 681 58 703 71 735 111 c 1
 750 100 l 1
 720 29 663 -13 599 -13 c 0xbe
 541 -13 492 13 429 78 c 1
 354 12 294 -13 213 -13 c 0
 107 -13 42 44 42 139 c 0
 42 266 148 328 237 377 c 1
 210 452 202 484 202 522 c 0
 202 608 270 676 356 676 c 0
 435 676 491 626 491 555 c 0x7e
321 416 m 1
 403 460 438 503 438 559 c 0
 438 608 404 644 358 644 c 0
 312 644 281 610 281 562 c 0
 281 517 291 479 321 416 c 1
252 343 m 1
 165 287 134 244 134 180 c 0
 134 103 193 39 263 39 c 0x7e
 305 39 345 57 404 104 c 1
 347 174 312 229 252 343 c 1
EndSplineSet
Validated: 1
EndChar
StartChar: quotesingle
Encoding: 39 39 53
Width: 200
Flags: W
HStem: 431 245<86.1143 114.395>
VStem: 58 85<489.767 670.645>
LayerCount: 3
Fore
SplineSet
111 431 m 1
 90 431 l 1
 73 521 58 619 58 635 c 0
 58 658 77 676 101 676 c 0
 124 676 143 658 143 636 c 0
 143 618 128 520 111 431 c 1
EndSplineSet
Validated: 1
EndChar
StartChar: parenleft
Encoding: 40 40 54
Width: 333
Flags: W
HStem: 656 20G<254 304>
VStem: 48 86<109.424 400.802>
LayerCount: 3
Fore
SplineSet
292 -177 m 5
 218 -132 48 11 48 252 c 4
 48 506 213 623 295 676 c 5
 304 660 l 5
 201 577 134 500 134 255 c 4
 134 0 201 -80 304 -161 c 5
 292 -177 l 5
EndSplineSet
Validated: 1
EndChar
StartChar: asterisk
Encoding: 42 42 56
Width: 500
Flags: W
HStem: 656 20G<241 261>
VStem: 214 74<269.579 383.485 556.84 672.448> 241 19<370.98 456 486 569.041>
LayerCount: 3
Fore
SplineSet
214 302 m 0xc0
 214 337 241 358 241 456 c 1
 145 397 156 351 105 351 c 0
 83 351 69 364 69 386 c 0
 69 434 136 411 234 471 c 1
 134 523 69 500.424 69 555 c 0
 69 575 84 591 103 591 c 0
 151 591 143 543 241 486 c 1
 241 585 216 604.94 216 641 c 0
 216 661 231 676 251 676 c 0
 271 676 287 660 287 639 c 0
 287 597.707 260 586.021 260 484 c 1
 346 537 352 593 395 593 c 0
 416 593 431 577 431 554 c 0
 431 507 357 522 268 470 c 1
 361 412 432 436 432 387 c 0
 432 365 418 350 397 350 c 0
 349 350 348 396 260 456 c 1xa0
 260 359.201 288 331.81 288 305 c 0
 288 284 270 265 249 265 c 0
 230 265 214 282 214 302 c 0xc0
EndSplineSet
Validated: 1
EndChar
StartChar: plus
Encoding: 43 43 57
Width: 564
Flags: W
HStem: 0 21G<249 315> 220 66<30 249 315 534>
VStem: 249 66<0 220 286 506>
LayerCount: 3
Fore
SplineSet
249 286 m 1
 249 506 l 1
 315 506 l 1
 315 286 l 1
 534 286 l 1
 534 220 l 1
 315 220 l 1
 315 0 l 1
 249 0 l 1
 249 220 l 1
 30 220 l 1
 30 286 l 1
 249 286 l 1
EndSplineSet
Validated: 1
EndChar
StartChar: comma
Encoding: 44 44 58
Width: 250
Flags: W
HStem: -2 104<67.5297 155.184>
VStem: 156 39<-55.7663 38>
LayerCount: 3
Fore
SplineSet
142 -2 m 0
 138 -2 132 -6 115 -6 c 0
 79 -6 56 13 56 45 c 0
 56 79 80 102 115 102 c 0
 160 102 195 63 195 13 c 0
 195 -47 150 -108 83 -141 c 1
 74 -122 l 1
 128 -85 156 -48 156 -16 c 0
 156 -8 150 -2 142 -2 c 0
EndSplineSet
Validated: 1
EndChar
StartChar: period
Encoding: 46 46 60
Width: 250
Flags: W
HStem: -11 111<82.6807 167.913>
VStem: 70 111<1.59692 87.6945>
LayerCount: 3
Fore
SplineSet
125 100 m 0
 155 100 181 74 181 43 c 0
 181 14 155 -11 124 -11 c 0
 95 -11 70 14 70 43 c 0
 70 74 95 100 125 100 c 0
EndSplineSet
Validated: 1
EndChar
StartChar: slash
Encoding: 47 47 61
Width: 296
Flags: W
HStem: -14 21G<0 74.6087> 656 20G<222.362 296>
VStem: 0 296
DStem2: 0 -14 68 -14 0.31499 0.949095<21.4193 727.008>
LayerCount: 3
Fore
SplineSet
296 676 m 5
 68 -14 l 5
 0 -14 l 5
 229 676 l 5
 296 676 l 5
EndSplineSet
Validated: 1
EndChar
StartChar: zero
Encoding: 48 48 76
Width: 500
Flags: W
HStem: -14 26<206.315 293.685> 650 26<207.662 294.79>
VStem: 24 96<178.035 489.425> 380 96<176.235 487.191>
LayerCount: 3
Fore
SplineSet
250 -14 m 0
 112 -14 24 134 24 336 c 0
 24 522 108 676 254 676 c 0
 385 676 476 535 476 330 c 0
 476 130 388 -14 250 -14 c 0
251 650 m 0
 165 650 120 539 120 327 c 0
 120 119 164 12 250 12 c 0
 336 12 380 119 380 328 c 0
 380 537 335 650 251 650 c 0
EndSplineSet
Validated: 1
EndChar
StartChar: one
Encoding: 49 49 77
Width: 500
Flags: W
HStem: 0 15<118 175.492 327.46 394> 656 20G<251.44 299>
VStem: 213 86<30.3918 592.105>
LayerCount: 3
Fore
SplineSet
183 593 m 0
 168 593 150 587 111 571 c 1
 111 585 l 1
 291 676 l 1
 299 674 l 1
 299 74 l 2
 299 26 315 16 394 15 c 1
 394 0 l 1
 118 0 l 1
 118 15 l 1
 189 17 213 28 213 93 c 2
 213 546 l 2
 213 578 204 593 183 593 c 0
EndSplineSet
Validated: 1
EndChar
StartChar: two
Encoding: 50 50 78
Width: 500
Flags: W
HStem: 0 76<128 420> 602 74<145.449 276.259>
VStem: 31 21<475.333 493.776> 338 86<399.953 539.691>
DStem2: 30 12 128 76 0.685605 0.727974<113.78 392.075>
LayerCount: 3
Fore
SplineSet
31 477 m 1
 42 524 78 676 239 676 c 0
 343 676 424 599 424 499 c 0
 424 421 385 345 296 252 c 2
 128 76 l 1
 367 76 l 2
 412 76 425 85 462 142 c 1
 475 137 l 1
 420 0 l 1
 30 0 l 1
 30 12 l 1
 208 201 l 2
 292 290 338 383 338 461 c 0
 338 545 281 602 197 602 c 0
 128 602 92 570 52 472 c 1
 31 477 l 1
EndSplineSet
Validated: 1
EndChar
StartChar: three
Encoding: 51 51 79
Width: 500
Flags: W
HStem: -14 36<121 266.542> 330 13<153 169.332> 616 60<150.683 278.881>
VStem: 319 79<466.86 574.859> 360 72<122.197 253.069>
LayerCount: 3
Fore
SplineSet
81 78 m 0xe8
 130 78 165 22 229 22 c 0
 303 22 360 87 360 171 c 0xe8
 360 308 238 330 153 330 c 1
 153 343 l 1
 228 369 319 409 319 509 c 0
 319 572 274 616 209 616 c 0
 146 616 101 583 60 510 c 1
 45 514 l 1
 72 589 120 676 242 676 c 0
 334 676 398 620 398 539 c 0xf0
 398 485 373 448 304 401 c 1
 371 372 432 328 432 219 c 0
 432 75 311 -14 156 -14 c 0
 86 -14 43 8 43 43 c 0
 43 64 58 78 81 78 c 0xe8
EndSplineSet
Validated: 1
EndChar
StartChar: four
Encoding: 52 52 80
Width: 500
Flags: W
HStem: 0 21G<293 370> 167 64<52 292 370 472> 656 20G<311.888 370>
VStem: 292 78<0 167 231 574>
DStem2: 12 231 52 231 0.576539 0.81707<23.0616 441.686>
LayerCount: 3
Fore
SplineSet
472 231 m 1
 472 167 l 1
 370 167 l 1
 370 0 l 1
 293 0 l 1
 293 167 l 1
 12 167 l 1
 12 231 l 1
 326 676 l 1
 370 676 l 1
 370 231 l 1
 472 231 l 1
292 231 m 1
 292 574 l 1
 52 231 l 1
 292 231 l 1
EndSplineSet
Validated: 1
EndChar
StartChar: five
Encoding: 53 53 81
Width: 500
Flags: W
HStem: -14 37<116.5 263.673> 583 79<181 404.906>
VStem: 357 70<129.577 283.38>
DStem2: 65 425 139 498 0.417842 0.90852<97.2423 192.016>
LayerCount: 3
Fore
SplineSet
357 194 m 0
 357 380 138 412 76 412 c 0
 68 412 64 415 64 420 c 0
 64 422 64 423 65 425 c 2
 174 662 l 1
 383 662 l 2
 404 662 414 667 429 688 c 1
 438 681 l 1
 400 592 l 2
 397 585 393 583 377 583 c 2
 181 583 l 1
 139 498 l 1
 325 465 427 398 427 242 c 0
 427 37 260 -14 154 -14 c 0
 79 -14 32 10 32 48 c 0
 32 73 46 85 75 85 c 0
 131 85 165 23 218 23 c 0
 296 23 357 98 357 194 c 0
EndSplineSet
Validated: 1
EndChar
StartChar: six
Encoding: 54 54 82
Width: 500
Flags: W
HStem: -14 28<216.005 318.198> 382 46<193.693 311.431> 668 16<413.559 446.875>
VStem: 34 93<143.868 349.301> 378 90<108.382 303.96>
LayerCount: 3
Fore
SplineSet
258 -14 m 0
 124 -14 34 103 34 279 c 0
 34 395.961 90.7127 652.834 446 684 c 1
 448 668 l 1
 291 642 179 534 152 383 c 1
 215 421 236 428 280 428 c 0
 395 428 468 347 468 219 c 0
 468 81 382 -14 258 -14 c 0
242 382 m 0
 144 382 127 333 127 263 c 0
 127 108 181 14 269 14 c 0
 339 14 378 75 378 185 c 0
 378 310 328 382 242 382 c 0
EndSplineSet
Validated: 1
EndChar
StartChar: seven
Encoding: 55 55 83
Width: 500
Flags: W
HStem: -8 21G<172 243.483> 588 74<82.7287 370>
VStem: 172 65<-8 57>
LayerCount: 3
Fore
SplineSet
449 662 m 1
 449 646 l 1
 237 -8 l 1
 172 -8 l 1
 370 588 l 1
 153 588 l 2
 98 588 80 575 37 507 c 1
 20 515 l 1
 79 662 l 1
 449 662 l 1
EndSplineSet
Validated: 1
EndChar
StartChar: eight
Encoding: 56 56 84
Width: 500
Flags: W
HStem: -14 28<201.928 315.579> 648 28<187.998 301.542>
VStem: 56 76<72.674 231.964 486.907 581.558> 355 69<458.651 605.856> 369 76<69.9236 196.01>
LayerCount: 3
Fore
SplineSet
290 371 m 1xf0
 411 281 445 232 445 155 c 0xe8
 445 52 368 -14 248 -14 c 0
 135 -14 56 54 56 151 c 0
 56 219 78 250 186 332 c 1
 81 424 62 453 62 518 c 0
 62 609 143 676 252 676 c 0
 352 676 424 616 424 534 c 0
 424 466 389 424 290 371 c 1xf0
212 312 m 1
 154 265 132 223 132 159 c 0
 132 72 183 14 259 14 c 0
 324 14 369 59 369 124 c 0
 369 208.294 309.317 240.635 212 312 c 1
261 389 m 1
 289 410 355 447 355 535 c 0xf0
 355 604 312 648 244 648 c 0
 181 648 136 607 136 549 c 0
 136 493 172 447 261 389 c 1
EndSplineSet
Validated: 1
EndChar
StartChar: nine
Encoding: 57 57 85
Width: 500
Flags: W
HStem: -22 20<57.95 91.2809> 237 43<184.464 304.28> 648 28<183.476 279.981>
VStem: 30 92<356.674 548.319> 362 97<311.018 520.293>
LayerCount: 3
Fore
SplineSet
59 -22 m 1
 56 -2 l 1
 208 24 319 131 360 294 c 1
 307 253 265 237 210 237 c 0
 102 237 30 318 30 440 c 0
 30 575 119 676 238 676 c 0
 367 676 459 559 459 394 c 0
 459 283.491 412.861 19.0732 59 -22 c 1
246 280 m 0
 274 280 362 295 362 355 c 2
 362 394 l 2
 362 562 317 648 230 648 c 0
 144 648 122 548 122 474 c 0
 122 355 170 280 246 280 c 0
EndSplineSet
Validated: 1
EndChar
StartChar: less
Encoding: 60 60 88
Width: 564
Flags: W
HStem: -10 21G<491.826 536>
VStem: 28 88<176 330>
DStem2: 28 286 116 253 0.91098 0.412451<66.5553 527.945> 116 253 28 220 0.91098 -0.412451<0 461.39>
LayerCount: 3
Fore
SplineSet
536 -10 m 1
 28 220 l 1
 28 286 l 1
 536 516 l 1
 536 444 l 1
 116 253 l 1
 536 62 l 1
 536 -10 l 1
EndSplineSet
Validated: 1
EndChar
StartChar: equal
Encoding: 61 61 89
Width: 564
Flags: W
HStem: 120 66<30 534> 320 66<30 534>
LayerCount: 3
Fore
SplineSet
534 386 m 1
 534 320 l 1
 30 320 l 1
 30 386 l 1
 534 386 l 1
534 186 m 1
 534 120 l 1
 30 120 l 1
 30 186 l 1
 534 186 l 1
EndSplineSet
Validated: 1
EndChar
StartChar: question
Encoding: 63 63 91
Width: 444
Flags: W
HStem: -8 107<195.079 279.228> 646 30<157.739 265.696>
VStem: 68 51<511 605.141> 184 107<1.95392 87.1533> 227 17<164 202.659> 322 92<435.738 597.346>
LayerCount: 3
Fore
SplineSet
230 676 m 4xec
 327 676 414 618 414 521 c 4
 414 445 365 386 309 318 c 4
 272 271 255 231 244 164 c 5
 227 164 l 5
 229.027 253.207 252.245 295.132 285 370 c 4
 309 425 322 480 322 526 c 4
 322 593 274 646 214 646 c 4
 165 646 119 616 119 584 c 4
 119 563 157 541 157 510 c 4
 157 486 140 469 116 469 c 4
 85 469 68 491 68 531 c 4
 68 614 138 676 230 676 c 4xec
237 99 m 4
 266 99 291 74 291 44 c 4
 291 14 268 -8 236 -8 c 4
 206 -8 184 14 184 43 c 4xf4
 184 75 207 99 237 99 c 4
EndSplineSet
Validated: 1
EndChar
StartChar: at
Encoding: 64 64 92
Width: 865
Flags: W
HStem: -14 39<355.587 575.12> 143 33<577.496 656.178> 144 43<354.5 447.114> 464 44<445.386 534.12> 645 31<365.117 542.811>
VStem: 86 84<208.627 446.871> 291 71<204.038 362.04> 739 40<279.675 468.672>
LayerCount: 3
Fore
SplineSet
452 645 m 0xdf
 280 645 170 497 170 323 c 0
 170 149 292 25 462 25 c 0
 529 25 580 38 658 73 c 1
 670 43 l 1
 573 -1 523 -14 453 -14 c 0
 246 -14 86 134 86 326 c 0
 86 521 248 676 451 676 c 0
 636 676 779 548 779 383 c 0
 779 254 694 143 595 143 c 0xdf
 547 143 510 172 504 216 c 1
 470 171 423 144 379 144 c 0xbf
 330 144 291 193 291 256 c 0
 291 366 369 508 487 508 c 0
 522 508 537 497 559 456 c 1
 569 494 l 1
 638 494 l 1
 573 240 l 2
 572 234 571 229 571 222 c 0
 571 191 584 176 610 176 c 0
 676 176 739 273 739 373 c 0
 739 522 609 645 452 645 c 0xdf
542 406 m 0
 542 452 517 464 498 464 c 0
 452 464 362 391 362 272 c 0
 362 220 385 187 422 187 c 0xbf
 491 187 542 325 542 406 c 0
EndSplineSet
Validated: 1
EndChar
StartChar: A
Encoding: 65 65 93
Width: 721
Flags: W
HStem: 0 19<15 52.5415 162.049 213 451 507.837 666.414 706> 216 41<216 447> 654 20G<338.527 375.768>
DStem2: 139 183 153 99 0.390068 0.920786<-110.396 53.79 98.1734 396.247> 367 674 331 532 0.401495 -0.915861<115.598 414.034 506.233 629.969>
LayerCount: 3
Fore
SplineSet
706 19 m 1
 706 0 l 1
 451 0 l 1
 451 19 l 1
 504 20 521 28 521 53 c 0
 521 67 514 93 502 120 c 2
 461 216 l 1
 199 216 l 1
 153 99 l 2
 148 86 145 72 145 60 c 0
 145 32 165 19 213 19 c 1
 213 0 l 1
 15 0 l 1
 15 19 l 1
 63 21 77 36 139 183 c 2
 347 674 l 1
 367 674 l 1
 616 106 l 2
 648.866 31.0283 661 22 706 19 c 1
216 257 m 1
 447 257 l 1
 331 532 l 1
 216 257 l 1
EndSplineSet
Validated: 1
EndChar
StartChar: B
Encoding: 66 66 94
Width: 631
Flags: W
HStem: 0 37<217.251 398.861> 0 19<15 80.0084> 326 40<213 390.03> 625 37<214.015 376.733> 643 19<15 76.5513>
VStem: 111 102<42.6316 326 366 623.875> 455 102<415.383 565.388> 476 115<99.5121 258.795>
LayerCount: 3
Fore
SplineSet
591 180 m 0x35
 591 108 543 0 349 0 c 2xb5
 15 0 l 1
 15 19 l 1
 98 22 111 35 111 109 c 2
 111 553 l 2
 111 627 99 638 15 643 c 1
 15 662 l 1x6d
 295 662 l 2
 468 662 557 604 557 492 c 0x36
 557 377 455 357 420 348 c 1
 460 338 591 310 591 180 c 0x35
276 37 m 0
 385 37 476 61 476 179 c 0
 476 320.845 346.798 326 213 326 c 1
 213 78 l 2
 213 46 227 37 276 37 c 0
213 366 m 1
 308 366 l 2
 402 366 455 410 455 488 c 0x36
 455 577 394 625 279 625 c 2
 235 625 l 2
 220 625 213 616 213 595 c 2
 213 366 l 1
EndSplineSet
Validated: 1
EndChar
StartChar: C
Encoding: 67 67 95
Width: 670
Flags: W
HStem: -14 44<296.776 492.499> 450 21G<590 627> 636 40<294.935 481.812>
VStem: 35 116<193.989 453.295> 597 21<656.986 676> 604 23<450 480.914>
LayerCount: 3
Fore
SplineSet
35 325 m 0xf4
 35 536 183 676 370 676 c 0
 479 676 519 643 555 643 c 0
 575 643 591 655 597 676 c 1
 618 676 l 1xf8
 627 450 l 1
 604 450 l 1
 576 545 518 636 389 636 c 0
 244 636 151 519 151 338 c 0
 151 94 287 30 399 30 c 0
 482 30 548 60 622 131 c 1
 640 113 l 1
 579 32 480 -14 367 -14 c 0
 171 -14 35 120 35 325 c 0xf4
EndSplineSet
Validated: 1
EndChar
StartChar: D
Encoding: 68 68 96
Width: 719
Flags: W
HStem: 0 37<208.591 391.974> 0 19<15 70.9777> 625 37<208.033 380.667> 643 19<15 70.4163>
VStem: 103 102<41.3888 621.94> 575 109<210.722 451.324>
LayerCount: 3
Fore
SplineSet
684 334 m 0x2c
 684 196 607 0 299 0 c 2xac
 15 0 l 1
 15 19 l 1
 91 24 103 37 103 109 c 2
 103 553 l 2
 103 627 94 636 15 643 c 1
 15 662 l 1x5c
 285 662 l 2
 602 662 684 479 684 334 c 0x2c
575 327 m 0
 575 461 511 625 257 625 c 0
 216 625 205 617 205 586 c 2
 205 78 l 2
 205 46 217 37 257 37 c 0
 445 37 575 110 575 327 c 0
EndSplineSet
Validated: 1
EndChar
StartChar: E
Encoding: 69 69 97
Width: 610
Flags: W
HStem: 0 37<207.53 471.625> 0 19<15 67.5256> 327 41<204 440.315> 624 38<205.018 484> 643 19<15 67.9688>
VStem: 102 102<42.2158 327 368 623.195> 468 23<231 281.016 413.792 463> 524 25<519 565.063>
LayerCount: 3
Fore
SplineSet
204 80 m 2x37
 204 42 211 37 309 37 c 2
 336 37 l 2xb7
 479 37 522 61 572 169 c 1
 600 169 l 1
 555 0 l 1
 15 0 l 1
 15 19 l 1
 88 24 102 39 102 109 c 2
 102 553 l 2
 102 623 89 637 15 643 c 1
 15 662 l 1
 546 662 l 1x6f
 549 519 l 1
 524 519 l 1
 507 609 485 624 372 624 c 2
 237 624 l 2
 210 624 204 618 204 590 c 2
 204 368 l 1
 358 368 l 2
 451 368 457 397 468 463 c 1
 491 463 l 1
 491 231 l 1
 468 231 l 1
 455 314 440 327 358 327 c 2
 204 327 l 1
 204 80 l 2x37
EndSplineSet
Validated: 1
EndChar
StartChar: F
Encoding: 70 70 98
Width: 564
Flags: W
HStem: 0 19<15 68.855 237.821 295> 327 41<204 431.338> 624 38<204.896 484> 643 19<15 67.9688>
VStem: 102 102<36.1617 327 368 623.195> 459 23<231 280.172 414.406 463> 524 25<519 565.063>
LayerCount: 3
Fore
SplineSet
482 231 m 1xee
 459 231 l 1
 447 312 430 327 349 327 c 2
 204 327 l 1
 204 119 l 2
 204 37.5 218 23 295 19 c 1
 295 0 l 1
 15 0 l 1
 15 19 l 1
 91 24 102 37 102 120 c 2
 102 553 l 2
 102 623 89 637 15 643 c 1
 15 662 l 1
 546 662 l 1xde
 549 519 l 1
 524 519 l 1
 507 609 485 624 372 624 c 2
 236 624 l 2
 209 624 204 618 204 590 c 2
 204 368 l 1
 349 368 l 2
 429 368 447 383 459 463 c 1
 482 463 l 1
 482 231 l 1xee
EndSplineSet
Validated: 1
EndChar
StartChar: G
Encoding: 71 71 99
Width: 722
Flags: W
HStem: -14 40<307.947 508.374> 336 18<457 513.467 668.563 712> 636 40<298.195 487.162>
VStem: 35 114<193.446 451.076> 545 97<54.3595 322.547> 603 22<657.871 676> 610 23<465 488.168>
LayerCount: 3
Fore
SplineSet
395 636 m 0xf2
 198 636 149 449 149 326 c 0
 149 140 249 26 412 26 c 0
 484 26 545 53 545 85 c 2
 545 247 l 2
 545 324 530 331 457 336 c 1
 457 354 l 1
 712 354 l 1
 712 336 l 1
 654 331 642 318 642 259 c 2
 642 56 l 1xf8
 602 21 477 -14 391 -14 c 0
 255 -14 35 54 35 325 c 0
 35 529 178 676 378 676 c 0
 478 676 523 643 558 643 c 0
 579 643 597 657 603 676 c 1
 625 676 l 1xf4
 633 465 l 1
 610 465 l 1
 576 547 525 636 395 636 c 0xf2
EndSplineSet
Validated: 1
EndChar
StartChar: H
Encoding: 72 72 100
Width: 714
Flags: W
HStem: 0 19<15 71.8664 239.356 293 420 476.866 644.356 698> 315 44<205 508> 643 19<15 69.53 238.47 293 420 474.53 643.47 698>
VStem: 103 102<35.1653 315 359 627.725> 508 102<35.1653 315 359 627.725>
LayerCount: 3
Fore
SplineSet
205 359 m 1
 508 359 l 1
 508 553 l 2
 508 625 497 636 420 643 c 1
 420 662 l 1
 698 662 l 1
 698 643 l 1
 621 636 610 625 610 553 c 2
 610 109 l 2
 610 38 623 25 698 19 c 1
 698 0 l 1
 420 0 l 1
 420 19 l 1
 498 24 508 36 508 120 c 2
 508 315 l 1
 205 315 l 1
 205 109 l 2
 205 38 218 25 293 19 c 1
 293 0 l 1
 15 0 l 1
 15 19 l 1
 93 24 103 36 103 120 c 2
 103 553 l 2
 103 625 92 636 15 643 c 1
 15 662 l 1
 293 662 l 1
 293 643 l 1
 216 636 205 625 205 553 c 2
 205 359 l 1
EndSplineSet
Validated: 1
EndChar
StartChar: I
Encoding: 73 73 101
Width: 327
Flags: W
HStem: 0 19<15 80.7454 248.803 312> 643 19<15 77.248 247.915 312>
VStem: 112 102<35.4136 627.204>
LayerCount: 3
Fore
SplineSet
112 109 m 2
 112 553 l 2
 112 627 100 638 15 643 c 1
 15 662 l 1
 312 662 l 1
 312 643 l 1
 228 639 214 626 214 553 c 2
 214 109 l 2
 214 36 230 22 312 19 c 1
 312 0 l 1
 15 0 l 1
 15 19 l 1
 99 22 112 34 112 109 c 2
EndSplineSet
Validated: 1
EndChar
StartChar: J
Encoding: 74 74 102
Width: 385
Flags: W
HStem: -14 38<80 166.292> 643 19<83 140.905 312.77 370>
VStem: 176 102<73.6536 627.481>
LayerCount: 3
Fore
SplineSet
59 108 m 0
 120 108 102 24 138 24 c 0
 164 24 176 45 176 90 c 2
 176 553 l 2
 176 626 165 637 83 643 c 1
 83 662 l 1
 370 662 l 1
 370 643 l 1
 289 637 278 626 278 553 c 2
 278 183 l 2
 278 58 217 -14 109 -14 c 0
 51 -14 10 16 10 58 c 0
 10 85 32 108 59 108 c 0
EndSplineSet
Validated: 1
EndChar
StartChar: K
Encoding: 75 75 103
Width: 709
Flags: W
HStem: 0 19<15 70.8801 239.629 297 399 459.139 655.467 704> 643 19<15 70.437 241.77 299 394 452.25 595.689 656>
VStem: 105 102<35.3481 296 348 626.835>
DStem2: 207 348 314 377 0.710838 0.703356<96.457 366.208> 314 377 233 317 0.681797 -0.731542<0 349.87>
LayerCount: 3
Fore
SplineSet
394 643 m 1
 394 662 l 1
 656 662 l 1
 656 643 l 1
 588 638 571 631 504 565 c 2
 314 377 l 1
 547 127 l 2
 638 30 652 20 704 19 c 1
 704 0 l 1
 399 0 l 1
 399 19 l 1
 425.808 21.2344 469 21 469 42 c 0
 469 66 415 137 339 212 c 2
 233 317 l 1
 207 296 l 1
 207 109 l 2
 207 36 219 24 297 19 c 1
 297 0 l 1
 15 0 l 1
 15 19 l 1
 94 24 105 37 105 120 c 2
 105 553 l 2
 105 624 93 637 15 643 c 1
 15 662 l 1
 299 662 l 1
 299 643 l 1
 218 637 207 626 207 553 c 2
 207 348 l 1
 384 509 l 2
 439 560 462 590 462 612 c 0
 462 632 450 640 420 642 c 0
 416 642 406 642 394 643 c 1
EndSplineSet
Validated: 1
EndChar
StartChar: L
Encoding: 76 76 104
Width: 611
Flags: W
HStem: 0 39<207.633 472.094> 0 19<15 67.5256> 643 19<15 67.9688 240.424 297>
VStem: 102 102<44.9387 626.194>
LayerCount: 3
Fore
SplineSet
357 39 m 2xb0
 532 39 556 128 576 174 c 1
 601 174 l 1
 553 0 l 1
 15 0 l 1
 15 19 l 1x70
 88 24 102 39 102 109 c 2
 102 553 l 2
 102 623 89 637 15 643 c 1
 15 662 l 1
 297 662 l 1
 297 643 l 1
 218 638 204 624 204 553 c 2
 204 80 l 2
 204 45 217 39 290 39 c 2
 357 39 l 2xb0
EndSplineSet
Validated: 1
EndChar
StartChar: M
Encoding: 77 77 105
Width: 881
Flags: W
HStem: 0 19<15 67.5662 198.313 250 586 642.112 813.474 866> 643 19<17 77.4103 813.031 866>
VStem: 112 44<43.3196 550> 677 102<35.3481 571.481>
DStem2: 215 662 156 550 0.415173 -0.909742<77.3959 555.325> 446 157 421 0 0.407912 0.913021<0 474.044>
LayerCount: 3
Fore
SplineSet
677 573 m 1
 421 0 l 1
 407 0 l 1
 156 550 l 1
 156 147 l 2
 156 46 173 23 250 19 c 1
 250 0 l 1
 15 0 l 1
 15 19 l 1
 98 25 112 44 112 147 c 2
 112 553 l 2
 112 626 99 638 17 643 c 1
 17 662 l 1
 215 662 l 1
 446 157 l 1
 667 662 l 1
 866 662 l 1
 866 643 l 1
 792 637 779 624 779 553 c 2
 779 109 l 2
 779 38 793 24 866 19 c 1
 866 0 l 1
 586 0 l 1
 586 19 l 1
 665 24 677 37 677 120 c 2
 677 573 l 1
EndSplineSet
Validated: 1
EndChar
StartChar: N
Encoding: 78 78 106
Width: 725
Flags: W
HStem: -11 21G<581.927 615> 0 19<15 67.5662 198.313 250> 643 19<15 63.3229 475 524.813 660.936 710>
VStem: 112 44<43.3196 539> 571 44<178 617.342>
DStem2: 186 662 112 588 0.630056 -0.77655<0 10.8406 76.614 618.422>
LayerCount: 3
Fore
SplineSet
710 643 m 1x78
 649 637 615 632 615 515 c 2
 615 -11 l 1
 598 -11 l 1xb8
 156 539 l 1
 156 147 l 2
 156 46 173 23 250 19 c 1
 250 0 l 1
 15 0 l 1
 15 19 l 1
 98 25 112 44 112 147 c 2
 112 588 l 1
 72 635 58 643 15 643 c 1
 15 662 l 1
 186 662 l 1
 571 178 l 1
 571 515 l 2
 571 619 552 637 475 643 c 1
 475 662 l 1
 710 662 l 1
 710 643 l 1x78
EndSplineSet
Validated: 1
EndChar
StartChar: O
Encoding: 79 79 107
Width: 724
Flags: W
HStem: -14 36<280.995 443.651> 640 36<284.688 440.102>
VStem: 35 114<204.381 462.197> 575 114<197.101 459.705>
LayerCount: 3
Fore
SplineSet
356 -14 m 0
 181 -14 35 121 35 331 c 0
 35 532 171 676 362 676 c 0
 552 676 689 536 689 327 c 0
 689 126 553 -14 356 -14 c 0
575 328 m 0
 575 577 450 640 362 640 c 0
 190 640 149 453 149 329 c 0
 149 208 191 22 360 22 c 0
 532 22 575 208 575 328 c 0
EndSplineSet
Validated: 1
EndChar
StartChar: P
Encoding: 80 80 108
Width: 576
Flags: W
HStem: 0 19<15 66.2779 234.228 295> 288 40<201 358.189> 625 37<202.321 348.788> 643 19<15 65.3973>
VStem: 99 102<34.7922 291 329.292 624.252> 432 109<392.908 557.55>
LayerCount: 3
Fore
SplineSet
541 481 m 0xec
 541 404 500 288 270 288 c 0
 244 288 227 289 201 291 c 1
 201 109 l 2
 201 36 216 22 295 19 c 1
 295 0 l 1
 15 0 l 1
 15 19 l 1
 91 26 99 36 99 120 c 2
 99 553 l 2
 99 625 89 635 15 643 c 1
 15 662 l 1xdc
 279 662 l 2
 387 662 541 626 541 481 c 0xec
201 591 m 2
 201 331 l 1
 224 329 238 328 258 328 c 0
 373 328 432 378 432 475 c 0
 432 578 370 625 235 625 c 0xec
 208 625 201 618 201 591 c 2
EndSplineSet
Validated: 1
EndChar
StartChar: Q
Encoding: 81 81 109
Width: 723
Flags: W
HStem: -178 19<636.886 702> 640 36<282.867 440.154>
VStem: 35 114<198.338 460.137> 575 114<199.468 460.837>
LayerCount: 3
Fore
SplineSet
689 331 m 0
 689 61 481 3 427 -7 c 1
 508 -112 588 -156 702 -159 c 1
 702 -177 l 1
 686.25 -178 678 -178 661 -178 c 0
 398 -178 322 -65 266 -1 c 1
 151 38 35 131 35 329 c 0
 35 532 171 676 362 676 c 0
 553 676 689 532 689 331 c 0
575 333 m 0
 575 520 491 640 365 640 c 0
 192 640 149 456 149 335 c 0
 149 87 271 22 362 22 c 0
 532 22 575 207 575 333 c 0
EndSplineSet
Validated: 1
EndChar
StartChar: R
Encoding: 82 82 110
Width: 667
Flags: W
HStem: 0 19<15 67.948 235.073 292 615.2 657> 308 35<202 258> 625 37<204.666 361.399> 643 19<15 66.0497>
VStem: 100 102<34.6779 306 343 621.625> 436 109<408.233 567.423>
DStem2: 364 319 258 308 0.611448 -0.791285<0 333.131>
LayerCount: 3
Fore
SplineSet
291 662 m 2xec
 389 662 545 636 545 486 c 0
 545 348 405 327 364 319 c 1
 570 66 l 2
 599 32 619 22 657 19 c 1
 657 0 l 1
 496 0 l 1
 258 308 l 1
 202 306 l 1
 202 109 l 2
 202 37 215 24 292 19 c 1
 292 0 l 1
 15 0 l 1
 15 19 l 1
 90 25 100 37 100 120 c 2
 100 553 l 2
 100 624 90 635 15 643 c 1
 15 662 l 1xdc
 291 662 l 2xec
202 343 m 1
 350 346 436 371 436 488 c 0
 436 582 378 625 253 625 c 0xec
 213 625 202 617 202 589 c 2
 202 343 l 1
EndSplineSet
Validated: 1
EndChar
StartChar: S
Encoding: 83 83 111
Width: 529
Flags: W
HStem: 20 2<110 255> 635 41<181.969 327.205>
VStem: 59 86<484.127 588.923> 60 22<-13 12.7146> 378 101<84.0294 202.661>
LayerCount: 3
Fore
SplineSet
378 135 m 0xd8
 378 306 59 300 59 505 c 0
 59 611 143 676 232 676 c 0
 306 676 351 642 382 642 c 0
 399 642 410 653 414 676 c 1
 435 676 l 1
 457 463 l 1
 432 463 l 1
 398 587 322 635 249 635 c 0
 187 635 145 597 145 542 c 0xe8
 145 488 187 444 292 386 c 0
 424 315 479 250 479 168 c 0
 479 65 390 -14 275 -14 c 0
 188 -14 147 20 110 20 c 0
 95 20 83 6 82 -13 c 1
 60 -13 l 1
 30 199 l 1
 53 199 l 1
 103 77 166 22 255 22 c 0
 328 22 378 68 378 135 c 0xd8
EndSplineSet
Validated: 1
EndChar
StartChar: T
Encoding: 84 84 112
Width: 606
Flags: W
HStem: 0 19<158 218.602 387.35 450> 620 42<89.8973 252 354 517.247>
VStem: 15 24<492 536.773> 252 102<34.7261 620> 567 24<492 537.107>
CounterMasks: 1 38
LayerCount: 3
Fore
SplineSet
252 620 m 1
 198 620 l 2
 86 620 63 601 39 492 c 1
 15 492 l 1
 21 662 l 1
 585 662 l 1
 591 492 l 1
 567 492 l 1
 544 602 522 620 408 620 c 2
 354 620 l 1
 354 109 l 2
 354 36 368 23 450 19 c 1
 450 0 l 1
 158 0 l 1
 158 19 l 1
 241 24 252 35 252 120 c 2
 252 620 l 1
EndSplineSet
Validated: 1
EndChar
StartChar: U
Encoding: 85 85 113
Width: 721
Flags: W
HStem: -14 44<282.28 479.899> 643 19<15 70.8801 241.445 298 474 523.895 659.133 706>
VStem: 105 102<111.184 626.742> 568 44<117.258 618.268>
LayerCount: 3
Fore
SplineSet
207 233 m 2
 207 111 241 30 379 30 c 0
 454 30 518 61 545 109 c 0
 561 139 568 177 568 245 c 2
 568 515 l 2
 568 615 552 637 474 643 c 1
 474 662 l 1
 706 662 l 1
 706 643 l 1
 624 633 612 617 612 515 c 2
 612 254 l 2
 612 111 570 -14 356 -14 c 0
 186 -14 105 68 105 241 c 2
 105 553 l 2
 105 626 94 637 15 643 c 1
 15 662 l 1
 298 662 l 1
 298 643 l 1
 218 636 207 625 207 553 c 2
 207 233 l 2
EndSplineSet
Validated: 1
EndChar
StartChar: V
Encoding: 86 86 114
Width: 701
Flags: W
HStem: -11 21G<353.038 384.914> 643 19<10 52.9824 215.001 276 486 538.532 650.599 691>
DStem2: 242 499 116 538 0.408913 -0.912574<-117.411 370.196> 393 161 377 -11 0.367959 0.929842<0 469.505>
LayerCount: 3
Fore
SplineSet
691 662 m 1
 691 643 l 1
 643 640 631 630 599 550 c 2
 377 -11 l 1
 362 -11 l 1
 116 538 l 2
 76 628 59 641 10 643 c 1
 10 662 l 1
 276 662 l 1
 276 643 l 1
 262 642 251 641 247 641 c 0
 215 639 201 629 201 610 c 0
 201 595 209 572 242 499 c 2
 393 161 l 1
 540 528 l 2
 552 558 559 585 559 601 c 0
 559 629 541 640 486 643 c 1
 486 662 l 1
 691 662 l 1
EndSplineSet
Validated: 1
EndChar
StartChar: W
Encoding: 87 87 115
Width: 947
Flags: W
HStem: -11 21G<298.812 328.281 627.435 692.5> 643 19<10 47.9786 202.468 255 318 369.547 525.098 585 739 784.553 901.136 937>
DStem2: 201 565 113 526 0.338223 -0.941066<-46.5191 402.545> 345 189 321 -11 0.3421 0.939664<0 254.018> 535 527 419 553 0.357647 -0.933857<-84.5461 22.6113 85.9347 365.655> 667 186 650 -11 0.345962 0.938249<0 436.287>
LayerCount: 3
Fore
SplineSet
937 662 m 1
 937 643 l 1
 884 633 873 624 854 572 c 0
 745 278 735 250 650 -11 c 1
 635 -11 l 1
 475 412 l 1
 321 -11 l 1
 306 -11 l 1
 113 526 l 2
 79 621 61 638 10 643 c 1
 10 662 l 1
 255 662 l 1
 255 643 l 1
 204 640 190 633 190 611 c 0
 190 600 194 583 201 565 c 2
 345 189 l 1
 452 471 l 1
 419 553 l 2
 387 634 375 642 318 643 c 1
 318 662 l 1
 585 662 l 1
 585 643 l 1
 531 642 508 632 508 608 c 0
 508 591 520 566 535 527 c 2
 667 186 l 1
 792 525 l 2
 802 553 808 579 808 600 c 0
 808 627 790 638 739 643 c 1
 739 662 l 1
 937 662 l 1
EndSplineSet
Validated: 1
EndChar
StartChar: X
Encoding: 88 88 116
Width: 714
Flags: W
HStem: 0 19<10 53.6918 185.539 243 407 463.013 659.668 704> 643 19<22 73.4465 258.197 324 458 515.187 641.75 696>
DStem2: 155 133 219 140 0.631377 0.775476<-53.1281 235.741 349.057 605.629> 333 463 203 486 0.574946 -0.818192<-170.733 72.421 146.058 424.136>
LayerCount: 3
Fore
SplineSet
696 662 m 1
 696 643 l 1
 632 639 611 628 547 549 c 2
 401 367 l 1
 593 93 l 2
 634 34 651 25 704 19 c 1
 704 0 l 1
 407 0 l 1
 407 19 l 1
 457 24 484 30 484 50 c 0
 484 65 466 99 433 148 c 2
 338 288 l 1
 219 140 l 2
 182 94 167 69 167 54 c 0
 167 31 185 23 243 19 c 1
 243 0 l 1
 10 0 l 1
 10 19 l 1
 61 23 68 26 155 133 c 2
 312 326 l 25
 203 486 l 2
 107 627 87 640 22 643 c 1
 22 662 l 1
 324 662 l 1
 324 643 l 1
 296 642 l 2
 263 641 248 633 248 613 c 0
 248 591 272 548 333 463 c 2
 375 404 l 1
 488 542 l 2
 517 578 528 596 528 611 c 0
 528 634 512 641 458 643 c 1
 458 662 l 1
 696 662 l 1
EndSplineSet
Validated: 1
EndChar
StartChar: Y
Encoding: 89 89 117
Width: 701
Flags: W
HStem: 0 19<202 270.014 436.299 508> 643 19<10 51.1585 235.711 290 472 528.854 650.247 691>
VStem: 303 102<34.7389 294>
DStem2: 236 569 172 486 0.5547 -0.83205<-45.605 265.979> 384 347 405 303 0.547848 0.836578<0 305.637>
LayerCount: 3
Fore
SplineSet
691 662 m 1
 691 643 l 1
 640 639 612 619 553 529 c 2
 405 303 l 1
 405 109 l 2
 405 33 419 21 508 19 c 1
 508 0 l 1
 202 0 l 1
 202 19 l 1
 293 23 303 33 303 120 c 2
 303 294 l 1
 172 486 l 2
 75 629 58 641 10 643 c 1
 10 662 l 1
 290 662 l 1
 290 643 l 1
 249 640 219 634.667 219 613 c 0
 219 602 225 585 236 569 c 2
 384 347 l 1
 527 573 l 2
 536 588 541 600 541 610 c 0
 541 634 524 642 472 643 c 1
 472 662 l 1
 691 662 l 1
EndSplineSet
Validated: 1
EndChar
StartChar: Z
Encoding: 90 90 118
Width: 613
Flags: W
HStem: 0 38<146 498.685> 624 38<123.111 447>
VStem: 32 26<491 543.391> 575 23<141.833 176>
DStem2: 10 15 146 38 0.583004 0.81247<97.9753 749.567>
LayerCount: 3
Fore
SplineSet
403 38 m 2
 538 38 555 110 575 176 c 1
 598 176 l 1
 574 0 l 1
 10 0 l 1
 10 15 l 1
 447 624 l 1
 226 624 l 2
 84 624 70 559 58 491 c 1
 32 491 l 1
 52 662 l 1
 578 662 l 1
 578 647 l 1
 146 38 l 1
 403 38 l 2
EndSplineSet
Validated: 1
EndChar
StartChar: bracketleft
Encoding: 91 91 33
Width: 241
VWidth: 0
Flags: W
HStem: -107 37<110.144 204.903> 684 38<118.143 220.894>
VStem: 0 102<-64.8513 452.688> 12 102<155.516 683.988>
LayerCount: 3
Fore
SplineSet
205 -103 m 0xe0
 204 -104 198 -106 189 -107 c 0
 186 -107 183 -107 179 -107 c 0
 172 -107 164 -107 154 -107 c 0
 141 -107 125 -107 109 -107 c 0
 94 -107 77 -107 63 -107 c 0
 49 -107 37 -102 27 -102 c 0
 17 -102 10 -98 7 -95 c 0
 4 -92 0 -88 0 -84 c 0
 -1 -82 -1 -79 -1 -76 c 0
 -1 -70 0 -61 0 -49 c 0
 0 -32 0 -4 0 31 c 0xe0
 0 68 7 117 7 182 c 0
 7 280 12 362 12 428 c 0
 12 494 12 547 12 586 c 0
 12 627 12 656 12 674 c 0
 12 693 12 705 15 709 c 0
 16 711 23 713 32 715 c 0
 41 717 54 719 67 719 c 0
 80 721 96 721 111 721 c 0
 126 721 142 722 156 722 c 0
 170 722 183 721 193 721 c 0
 204 719 210 718 213 717 c 0
 218 714 221 708 221 701 c 0
 221 694 218 687 213 684 c 0
 211 683 205 684 197 684 c 0
 187 684 177 684 166 684 c 0
 156 684 145 684 137 684 c 0
 127 684 121 680 118 678 c 1
 116 676 115 664 115 644 c 0
 115 624 114 598 114 567 c 2
 114 468 l 1xd0
 113 368 l 1
 113 314 106 261 106 211 c 0
 106 161 102 116 102 76 c 0
 102 36 102 4 102 -22 c 0
 102 -48 107 -62 110 -65 c 0
 113 -68 120 -70 129 -70 c 0
 138 -71 149 -70 159 -70 c 0
 169 -70 178 -70 188 -70 c 0
 196 -70 203 -71 205 -73 c 0
 210 -77 212 -82 213 -90 c 0
 213 -96 210 -101 205 -103 c 0xe0
EndSplineSet
Validated: 1
EndChar
StartChar: backslash
Encoding: 92 92 34
Width: 296
Flags: W
HStem: -14 21G<221.391 296> 656 20G<0 73.6377>
VStem: 0 296
DStem2: 67 676 0 676 0.31499 -0.949095<0 705.589>
LayerCount: 3
Fore
SplineSet
0 676 m 1
 67 676 l 1
 296 -14 l 1
 228 -14 l 1
 0 676 l 1
EndSplineSet
Validated: 1
EndChar
StartChar: bracketright
Encoding: 93 93 35
Width: 284
VWidth: 0
Flags: W
HStem: -107 37<41.1421 136.856> 684 38<51.3999 154.856>
VStem: 150 98<-64.8513 643.058> 158 103<469.685 684>
LayerCount: 3
Fore
SplineSet
239 -95 m 1xe0
 236 -98 229 -102 219 -102 c 0
 209 -102 196 -107 182 -107 c 0
 168 -107 152 -107 136 -107 c 0
 120 -107 104 -107 91 -107 c 0
 82 -107 73 -107 66 -107 c 0
 62 -107 59 -107 56 -107 c 0
 47 -106 41 -104 40 -103 c 0
 35 -101 32 -96 33 -90 c 0
 34 -82 36 -77 41 -73 c 0
 44 -71 49 -70 58 -70 c 0
 67 -70 77 -70 88 -70 c 0
 98 -70 109 -71 118 -70 c 0
 127 -70 134 -68 137 -65 c 0
 140 -62 145 -48 145 -22 c 0
 145 4 150 36 150 76 c 0
 150 116 150 161 150 211 c 0
 150 261 150 314 150 368 c 0xe0
 150 400 151 432 151 468 c 0
 151 504 155 536 155 567 c 0
 155 598 158 624 158 644 c 0
 158 664 157 676 155 678 c 0
 152 680 145 684 137 684 c 0
 127 684 117 684 106 684 c 0
 96 684 86 684 78 684 c 0
 68 684 62 683 59 684 c 0
 54 687 51 694 51 701 c 0
 52 708 55 714 60 717 c 0
 63 718 71 719 82 721 c 0
 92 721 105 722 119 722 c 0
 132 722 148 721 163 721 c 0
 178 721 194 721 207 719 c 0
 220 719 233 717 242 715 c 0
 251 714 257 712 258 709 c 0
 261 705 261 693 261 674 c 0xd0
 261 656 258 627 258 586 c 0
 258 547 252 494 252 428 c 0
 252 362 248 280 248 182 c 2
 248 31 l 1
 248 -49 l 1
 248 -84 l 1
 239 -95 l 1xe0
EndSplineSet
Validated: 1
EndChar
StartChar: asciicircum
Encoding: 94 94 119
Width: 469
Flags: W
HStem: 586 76<167 303>
DStem2: 24 297 92 297 0.444266 0.895895<30.2101 352.654> 265 662 235 586 0.444266 -0.895895<54.7601 377.204>
LayerCount: 3
Fore
SplineSet
92 297 m 1
 24 297 l 1
 205 662 l 1
 265 662 l 1
 446 297 l 1
 378 297 l 1
 235 586 l 1
 92 297 l 1
EndSplineSet
Validated: 1
EndChar
StartChar: underscore
Encoding: 95 95 120
Width: 500
VWidth: 999
Flags: W
HStem: 65 24<-38 450>
LayerCount: 3
Fore
SplineSet
12 24 m 1
 500 24 l 1
 488 0 l 1
 0 0 l 1
 12 24 l 1
EndSplineSet
Validated: 1
EndChar
StartChar: grave
Encoding: 96 96 121
Width: 250
Flags: W
HStem: 507 171
VStem: 19 223
LayerCount: 3
Fore
SplineSet
242 507 m 1
 202 507 l 1
 48 604 l 2
 30 616 19 631 19 647 c 0
 19 666 32 678 53 678 c 0
 68 678 77 673 95 655 c 2
 242 507 l 1
EndSplineSet
Validated: 1
EndChar
StartChar: a
Encoding: 97 97 122
Width: 435
Flags: W
HStem: -10 58<99.5 205.493 319.5 400.598> 436 24<152.767 242.713>
VStem: 25 88<66.7336 165.371> 44 83<310.859 403.823> 275 81<73.7695 268 285.046 406.606>
LayerCount: 3
Fore
SplineSet
25 97 m 0xe8
 25 205 151 242 275 292 c 1
 275 353 l 2
 275 407 248 436 199 436 c 0
 159 436 127 414 127 387 c 0
 127 373 132 356 132 347 c 0
 132 325 111 305 87 305 c 0
 64 305 44 325 44 348 c 0xd8
 44 411 118 460 212 460 c 0
 328 460 356 400 356 300 c 2
 356 105 l 2
 356 61 363 47 386 47 c 0
 401 47 413 52 430 66 c 1
 430 40 l 1
 395 2 374 -10 340 -10 c 0
 299 -10 281 11 276 63 c 1
 215 11 174 -10 130 -10 c 0
 69 -10 25 34 25 97 c 0xe8
275 123 m 2
 275 268 l 1
 154 224 113 188 113 129 c 0xe8
 113 68.8018 150.8 48 176 48 c 0
 197 48 225 57 249 71 c 0
 270 83 275 92 275 123 c 2
EndSplineSet
Validated: 1
EndChar
StartChar: b
Encoding: 98 98 123
Width: 500
Flags: W
HStem: -10 32<188.04 317.464> 397 63<219.105 322.612> 623 16<10 26.6741> 663 20G<131.016 160>
VStem: 76 84<41.004 367.28 375 620.992> 387 88<136.397 315.81>
LayerCount: 3
Fore
SplineSet
160 681 m 1
 160 375 l 1
 180 424 238 460 299 460 c 0
 399 460 475 366 475 243 c 0
 475 100 373 -10 241 -10 c 0
 161 -10 76 23 76 54 c 2
 76 573 l 2
 76 615 67 624 27 624 c 0
 20 624 16 624 10 623 c 1
 10 639 l 1
 58.6621 651.105 107.032 665.49 155 683 c 1
 160 681 l 1
160 322 m 2
 160 70 l 2
 160 45 205 22 257 22 c 0
 339 22 387 86 387 197 c 0
 387 319 337 397 259 397 c 0
 207 397 160 361 160 322 c 2
EndSplineSet
Validated: 1
EndChar
StartChar: c
Encoding: 99 99 124
Width: 444
Flags: W
HStem: -10 72<184.362 297.679> 431 29<181.036 279.846>
VStem: 25 77<153.814 322.927> 303 95<324.666 383>
LayerCount: 3
Fore
SplineSet
25 213 m 0
 25 367 133 460 244 460 c 0
 328 460 398 413 398 357 c 0
 398 334 376 315 350 315 c 0
 329 315 311 333 303 361 c 2
 297 383 l 2
 287 420 274 431 238 431 c 0
 157 431 102 360 102 257 c 0
 102 142 166 62 257 62 c 0
 314 62 350 86 398 156 c 1
 412 147 l 1
 391 106 333 -10 215 -10 c 0
 104 -10 25 83 25 213 c 0
EndSplineSet
Validated: 1
EndChar
StartChar: d
Encoding: 100 100 125
Width: 499
Flags: W
HStem: -10 52<184.033 291.394> 432 28<185.197 284.996> 623 16<270 291.626> 663 20G<393 422>
VStem: 25 86<127.042 316.819> 338 84<66.838 390.874 417 621.16>
LayerCount: 3
Fore
SplineSet
342 -10 m 1
 338 -7 l 1
 338 57 l 1
 304 10 266 -10 210 -10 c 0
 100 -10 25 77 25 205 c 0
 25 347 118 460 233 460 c 0
 273 460 300 449 338 417 c 1
 338 573 l 2
 338 614 329 624 292 624 c 0
 284 624 278 624 270 623 c 1
 270 639 l 1
 334 656 369 666 417 683 c 1
 422 681 l 1
 422 114 l 2
 422 68 430 57 466 57 c 0
 469 57 471 57 489 58 c 1
 489 42 l 1
 342 -10 l 1
249 42 m 0
 306 42 338 85 338 102 c 2
 338 332 l 2
 338 385 289 432 236 432 c 0
 160 432 111 358 111 245 c 0
 111 122 166 42 249 42 c 0
EndSplineSet
Validated: 1
EndChar
StartChar: e
Encoding: 101 101 126
Width: 444
Flags: W
HStem: -10 69<180.291 303.739> 277 32<99 303> 424 36<149.903 263.03>
VStem: 25 72<158.961 277 309 329.86>
LayerCount: 3
Fore
SplineSet
97 277 m 1
 103 99 188 59 253 59 c 0
 317 59 360 88 408 164 c 1
 424 157 l 1
 382 49 307 -10 212 -10 c 0
 97 -10 25 76 25 214 c 0
 25 363 113 460 234 460 c 0
 337 460 390 398 405 277 c 1
 97 277 l 1
99 309 m 1
 303 309 l 1
 290 396 266 424 205 424 c 0
 144 424 110 387 99 309 c 1
EndSplineSet
Validated: 1
EndChar
StartChar: f
Encoding: 102 102 127
Width: 373
Flags: W
HStem: 0 15<10 59.3046 212.095 270> 418 32<11 93 177 299> 655 28<198.225 299>
VStem: 93 84<28.3135 418 450 584.057>
LayerCount: 3
Fore
SplineSet
331 580 m 0
 283 580 290 655 233 655 c 0
 195 655 176 624 176 566 c 2
 176 450 l 1
 299 450 l 1
 299 418 l 1
 177 418 l 1
 177 104 l 2
 177 29 188 18 270 15 c 1
 270 0 l 1
 10 0 l 1
 10 15 l 1
 82 19 93 31 93 104 c 2
 93 418 l 1
 11 418 l 1
 11 450 l 1
 93 450 l 1
 95 589 137 683 269 683 c 0
 329 683 373 657 373 621 c 0
 373 598 354 580 331 580 c 0
EndSplineSet
Validated: 1
EndChar
StartChar: g
Encoding: 103 103 128
Width: 467
Flags: W
HStem: -218 57<123.716 307.166> -15 79<135.581 390.416> 149 25<199.645 281.514> 388 39<374.409 457> 432 28<171.949 256.204>
VStem: 15 70<-128.683 -67.1825> 56 83<230.739 378.073> 60 60<43.5 97.9692> 316 77<224.278 368.005> 420 28<-101.821 -34.2394>
LayerCount: 3
Fore
SplineSet
60 54 m 0xf9c0
 60 80 70 89 149 163 c 1
 83 196 56 234 56 297 c 0xfac0
 56 388 130 460 223 460 c 0
 297.575 460 319.163 427 380 427 c 2
 457 427 l 1
 457 388 l 1
 374 388 l 1
 388 356 393 333 393 304 c 0
 393 208 317 149 237 149 c 0
 225.6 149 191.371 152.737 180 154 c 1
 153 146 120 111 120 91 c 0xf9c0
 120 75 145 66 198 64 c 2
 327 58 l 2
 401 55 448 13 448 -49 c 0
 448 -150.4 306.193 -218 188 -218 c 0
 93 -218 15 -174 15 -121 c 0xfcc0
 15 -84 42 -51 113 1 c 1
 72 21 60 33 60 54 c 0xf9c0
134 -2 m 1
 92 -52 85 -65 85 -88 c 0xfcc0
 85 -132 143 -161 231 -161 c 0
 344 -161 420 -122 420 -64 c 0
 420 -28 387 -15 296 -15 c 0
 247 -15 167 -9 134 -2 c 1
316 265 m 0
 316 298 301 432 213 432 c 0
 167 432 139 397 139 338 c 0xfac0
 139 210.824 200.2 174 241 174 c 0
 287 174 316 209 316 265 c 0
EndSplineSet
Validated: 1
EndChar
StartChar: h
Encoding: 104 104 129
Width: 498
Flags: W
HStem: 0 15<10 44.4688 189.229 226 276 312.771 459.013 488> 406 54<223.642 320.65> 623 16<11 27.8116> 663 20G<125 158>
VStem: 74 84<26.9707 364.21 376 622.626> 344 84<27.2344 380.953>
LayerCount: 3
Fore
SplineSet
158 343 m 1
 158 102 l 2
 158 33 168 21 226 15 c 1
 226 0 l 1
 10 0 l 1
 10 15 l 1
 68 23 74 32 74 102 c 2
 74 573 l 2
 74 616 66.667 625 28 625 c 0
 24.0625 625 14.9092 623.818 11 623 c 1
 11 639 l 1
 68 654 97 663 153 683 c 1
 158 680 l 1
 158 376 l 1
 204 436 246 460 305 460 c 0
 386 460 428 406 428 301 c 2
 428 102 l 2
 428 33 434 25 488 15 c 1
 488 0 l 1
 276 0 l 1
 276 15 l 1
 334 21 344 34 344 102 c 2
 344 300 l 2
 344 370 319 406 269 406 c 0
 230 406 200 389 158 343 c 1
EndSplineSet
Validated: 1
EndChar
StartChar: i
Encoding: 105 105 130
Width: 278
Flags: W
HStem: 0 15<16 64.8977 208.246 253> 390 15<20 44.2187> 440 20G<149.167 179> 581 102<87.3961 170.485>
VStem: 78 102<590.456 673.544> 95 84<26.9614 391.6>
LayerCount: 3
Fore
SplineSet
62 393 m 0xf4
 53 393 35.3333 392.333 20 390 c 1
 20 405 l 1
 71.6667 419.597 123.333 438.595 175 460 c 1
 179 457 l 1
 179 102 l 2
 179 30 187 20 253 15 c 1
 253 0 l 1
 16 0 l 1
 16 15 l 1
 85 19 95 30 95 102 c 2
 95 334 l 2
 95 378 86 393 62 393 c 0xf4
128 683 m 0
 157 683 180 660 180 632 c 0
 180 603 157 581 128 581 c 0
 100 581 78 604 78 632 c 0xf8
 78 660 101 683 128 683 c 0
EndSplineSet
Validated: 1
EndChar
StartChar: j
Encoding: 106 106 131
Width: 348
Flags: W
HStem: -218 34<67 162.803> 390 16<102 125.762> 440 20G<228.5 263> 581 102<171.396 254.485>
VStem: 162 102<590.456 673.544> 179 84<-122.635 391.526>
LayerCount: 3
Fore
SplineSet
147 393 m 0xf4
 123 393 102 390 102 390 c 1
 102 406 l 1
 161 424 199 437 258 460 c 1
 263 457 l 1
 263 0 l 2
 263 -142 204 -218 94 -218 c 0
 40 -218 0 -195 0 -163 c 0
 0 -141 18 -124 41 -124 c 0
 82 -124 93 -184 131 -184 c 0
 173 -184 179 -139 179 -45 c 2
 179 334 l 2
 179 377 170 393 147 393 c 0xf4
212 683 m 0
 241 683 264 660 264 632 c 0
 264 603 241 581 212 581 c 0
 184 581 162 604 162 632 c 0xf8
 162 660 185 683 212 683 c 0
EndSplineSet
Validated: 1
EndChar
StartChar: k
Encoding: 107 107 132
Width: 513
Flags: W
HStem: 0 15<10 48.0356 207.166 244 290 327.547 471.622 508> 436 14<279 322.951 433.532 483> 623 16<10 40.0744> 663 20G<137.667 169>
VStem: 85 84<27.832 251 261 621.836>
DStem2: 169 261 238 282 0.746808 0.66504<65.4956 222.978> 238 282 169 251 0.619251 -0.785194<0 254.465>
LayerCount: 3
Fore
SplineSet
10 623 m 1
 10 639 l 1
 72 654 110.333 664.667 165 683 c 1
 169 681 l 1
 169 261 l 1
 306 383 l 2
 320 395 329 409 329 417 c 0
 329 431 318 435 279 436 c 1
 279 450 l 1
 483 450 l 1
 483 435 l 1
 434.464 435 400.732 433.51 267 309 c 2
 238 282 l 1
 391 88 l 2
 433 37 464 18 508 15 c 1
 508 0 l 1
 290 0 l 1
 290 15 l 1
 317 15 330 17 330 30 c 0
 330 40 317 52 309 64 c 2
 169 251 l 1
 169 80 l 2
 169 31.5 175 26.5 244 15 c 1
 244 0 l 1
 10 0 l 1
 10 15 l 1
 82 27 85 30 85 82 c 2
 85 564 l 2
 85 612 75 625 42 625 c 0
 32 625 21.6367 624.273 10 623 c 1
EndSplineSet
Validated: 1
EndChar
StartChar: l
Encoding: 108 108 133
Width: 258
Flags: W
HStem: 0 15<12 56.0693 201.079 248> 623 16<10 40.2449> 663 20G<143 173>
VStem: 89 84<28.0774 622.078>
LayerCount: 3
Fore
SplineSet
10 623 m 1
 10 639 l 1
 79 656 117 666 169 683 c 1
 173 681 l 1
 173 84 l 2
 173 29 185 19 248 15 c 1
 248 0 l 1
 12 0 l 1
 12 15 l 1
 75 20 89 33 89 87 c 2
 89 564 l 2
 89 611 79 625 47 625 c 0
 33.7754 625 22.667 624.5 10 623 c 1
EndSplineSet
Validated: 1
EndChar
StartChar: m
Encoding: 109 109 134
Width: 779
Flags: W
HStem: 0 15<10 53.9987 187.193 232 280 321.029 460.503 504 550 588.007 743 769> 398 17<13 41.9731> 408 52<240.541 327.777 498.129 597.802>
VStem: 80 84<24.384 372.979 383 399.885> 348 84<26.085 373.205> 616 84<25.1622 390.068>
CounterMasks: 1 1c
LayerCount: 3
Fore
SplineSet
13 398 m 1xdc
 13 415 l 1xdc
 68 430 102 441 153 460 c 1
 160 458 l 1
 160 383 l 1
 243 446 271 460 315 460 c 0
 369 460 403 433 421 376 c 1
 475 434 526 460 584 460 c 0
 661 460 700 400 700 282 c 2
 700 76 l 2
 700 37 713 19 743 17 c 2
 769 15 l 1
 769 0 l 1
 550 0 l 1
 550 15 l 1
 608 22 616 30 616 87 c 2
 616 298 l 2
 616 381 598 408 541 408 c 0
 495 408 462 390 432 347 c 1
 432 95 l 2
 432 33 447 16 504 15 c 1
 504 0 l 1
 280 0 l 1
 280 15 l 1
 337 19 348 30 348 86 c 2
 348 303 l 2
 348 373 326 408 282 408 c 0xbc
 252.718 408 195.384 394.65 164 349 c 1
 164 67 l 2
 164 28 179 17 232 15 c 1
 232 0 l 1
 10 0 l 1
 10 15 l 1
 66 16 80 31 80 85 c 2
 80 338 l 2
 80 386 71 402 45 402 c 0
 34 402 26 401 13 398 c 1xdc
EndSplineSet
Validated: 1
EndChar
StartChar: n
Encoding: 110 110 135
Width: 489
Flags: W
HStem: 0 15<12 47.6045 184.683 224 271 304.941 444.488 479> 398 17<10 36.4851> 405 55<226.961 313.525>
VStem: 74 84<24.7187 366.757 379 399.648> 334 84<26.7246 383.2>
LayerCount: 3
Fore
SplineSet
10 398 m 1xd8
 10 415 l 1xd8
 65 431 99 442 148 460 c 1
 155 458 l 1
 155 379 l 1
 223 443 254 460 300 460 c 0
 374 460 418 404 418 310 c 2
 418 81 l 2
 418 32 430 20 479 15 c 1
 479 0 l 1
 271 0 l 1
 271 15 l 1
 321 19 334 36 334 99 c 2
 334 308 l 2
 334 374 310 405 261 405 c 0xb8
 228 405 206 393 158 348 c 1
 158 67 l 2
 158 31 173 19 224 15 c 1
 224 0 l 1
 12 0 l 1
 12 15 l 1
 63 19 74 33 74 90 c 2
 74 338 l 2
 74 387 65 402 37 402 c 0
 26 402 16 401 10 398 c 1xd8
EndSplineSet
Validated: 1
EndChar
StartChar: o
Encoding: 111 111 136
Width: 491
Flags: W
HStem: -10 28<208.557 307.555> 432 28<182.311 282.592>
VStem: 25 90<135.072 331.786> 376 90<127.031 328.965>
LayerCount: 3
Fore
SplineSet
246 460 m 0
 374 460 466 365 466 234 c 0
 466 96 370 -10 244 -10 c 0
 118 -10 25 91 25 226 c 0
 25 364 116 460 246 460 c 0
115 275 m 0
 115 136 170 18 256 18 c 0
 331 18 376 86 376 199 c 0
 376 336 317 432 233 432 c 0
 162 432 115 370 115 275 c 0
EndSplineSet
Validated: 1
EndChar
StartChar: p
Encoding: 112 112 137
Width: 500
Flags: W
HStem: -217 17<10 52.3792 192.888 252> -10 32<209.607 319.088> 393 16<14 38.4652> 400 60<227.787 326.589>
VStem: 80 84<-188.428 33 53.9336 369.399 381 392.004> 389 86<133.177 323.133>
LayerCount: 3
Fore
SplineSet
14 393 m 1xec
 14 409 l 1xec
 69 426 104 439 158 460 c 1
 164 458 l 1
 164 381 l 1
 208 435 252 460 308 460 c 0xdc
 405 460 475 371 475 247 c 0
 475 102 383 -10 265 -10 c 0
 223 -10 199 0 164 33 c 1
 164 -124 l 2
 164 -187 177 -198 252 -199 c 1
 252 -217 l 1
 10 -217 l 1
 10 -200 l 1
 69 -194 80 -183 80 -131 c 2
 80 337 l 2
 80 384 73 394 39 394 c 0
 30 394 23 394 14 393 c 1xec
164 334 m 2
 164 88 l 2
 164 58 221 22 268 22 c 0
 340 22 389 97 389 208 c 0
 389 324 340 400 266 400 c 0xdc
 220 400 164 364 164 334 c 2
EndSplineSet
Validated: 1
EndChar
StartChar: q
Encoding: 113 113 138
Width: 499
Flags: W
HStem: -217 14<253 285.09 462.762 489> -10 61<175.164 273.924> 433 28<193.375 304.978>
VStem: 25 86<128.702 316.729> 342 84<-184.059 64 82.3787 406.542>
LayerCount: 3
Fore
SplineSet
361 425 m 1
 415 457 l 1
 426 457 l 1
 426 -141 l 2
 426 -183 434 -191 489 -203 c 1
 489 -217 l 1
 253 -217 l 1
 253 -200 l 1
 324 -195 342 -180 342 -124 c 2
 342 64 l 1
 298 16 243 -10 185 -10 c 0
 91 -10 25 79 25 205 c 0
 25 349 121 461 246 461 c 0
 285 461 315 452 361 425 c 1
111 241 m 0
 111 167 137 51 242 51 c 0
 273 51 306 63 328 82 c 0
 338 90 342 103 342 127 c 2
 342 333 l 2
 342 400 311 433 249 433 c 0
 164 433 111 359 111 241 c 0
EndSplineSet
Validated: 1
EndChar
StartChar: r
Encoding: 114 114 139
Width: 345
Flags: W
HStem: 0 15<10 42.3636 200.154 250> 397 63<225.76 302>
VStem: 81 84<29.2608 363.261 366 392.233>
LayerCount: 3
Fore
SplineSet
301 362 m 0
 274 362 251 397 235 397 c 0
 208 397 165 347 165 315 c 2
 165 90 l 2
 165 33 182 18 250 15 c 1
 250 0 l 1
 10 0 l 1
 10 15 l 1
 74 27 81 34 81 84 c 2
 81 334 l 2
 81 378 72 394 47 394 c 0
 35 394 26 393 12 390 c 1
 12 406 l 1
 71 425 107 438 160 460 c 1
 165 458 l 1
 165 366 l 1
 214 437 243 460 285 460 c 0
 319 460 340 440 340 407 c 0
 340 379 325 362 301 362 c 0
EndSplineSet
Validated: 1
EndChar
StartChar: s
Encoding: 115 115 140
Width: 367
Flags: W
HStem: -10 22<129.07 225.983> 430 20G<281 295.588> 437 22<130.907 219.959>
VStem: 35 62<317.807 404.721> 36 16<118.812 152> 262 70<51.4369 135.87> 284 15<314 337.598>
DStem2: 140 301 152 192 0.860292 -0.509802<-59.4226 202.545>
LayerCount: 3
Fore
SplineSet
268 440 m 0xb4
 274 440 278 446 284 450 c 1
 295 450 l 1xd2
 299 314 l 1
 284 314 l 1
 261 403 231 437 174 437 c 0
 128 437 97 409 97 369 c 0xb2
 97 342 112 317 140 301 c 2
 248 237 l 2
 308 201 332 168 332 118 c 0
 332 48 268 -10 191 -10 c 0
 146 -10 97 8 72 8 c 0
 60 8 56 6 49 -4 c 1
 36 -4 l 1
 36 152 l 1
 52 152 l 1xac
 61 112 77 12 179 12 c 0
 230 12 262 40 262 84 c 0
 262 115 245 139 210 159 c 2
 152 192 l 2
 67 240 35 280 35 336 c 0
 35 408 92 459 171 459 c 0
 229 459 246 440 268 440 c 0xb4
EndSplineSet
Validated: 1
EndChar
StartChar: t
Encoding: 116 116 141
Width: 283
Flags: W
HStem: -10 52<133.5 233.354> 418 32<158 259>
VStem: 74 84<53.0804 418>
LayerCount: 3
Fore
SplineSet
259 450 m 1
 259 418 l 1
 158 418 l 1
 158 132 l 2
 158 69 173 42 210 42 c 0
 232 42 249 52 270 77 c 1
 283 66 l 1
 250 14 212 -10 163 -10 c 0
 104 -10 74 33 74 117 c 2
 74 418 l 1
 21 418 l 1
 18 420 17 422 17 425 c 0
 17 445 42 423 131 551 c 0
 138 561 144 570 151 579 c 1
 157 579 158 576 158 566 c 2
 158 450 l 1
 259 450 l 1
EndSplineSet
Validated: 1
EndChar
StartChar: u
Encoding: 117 117 142
Width: 490
Flags: W
HStem: -10 58<178.854 267.029> 36 14<457.082 480> 436 14<10 45.6494 260 295.843>
VStem: 72 84<70.25 426.561> 334 84<54.8743 76 81.0178 424.313>
LayerCount: 3
Fore
SplineSet
480 50 m 1x78
 480 36 l 1x78
 429 22 393 11 343 -9 c 1
 339 -7 l 1
 339 76 l 1
 304.283 41.2832 265.178 -10 193 -10 c 0
 120 -10 72 41 72 120 c 2
 72 372 l 2
 72 418 58 433 10 436 c 1
 10 450 l 1
 156 450 l 1
 156 124 l 2
 156 82 188 48 227 48 c 0xb8
 247.38 48 334 58.7129 334 135 c 2
 334 370 l 2
 334 420 322 430 260 433 c 1
 260 450 l 1
 418 450 l 1
 418 107 l 2
 418 61 429 50 475 50 c 2
 480 50 l 1x78
EndSplineSet
Validated: 1
EndChar
StartChar: v
Encoding: 118 118 143
Width: 468
Flags: W
HStem: -14 21G<239.5 245> 435 15<5 35.4054 166.996 201 324 354.717 437.277 463>
DStem2: 164 370 96 320 0.385756 -0.922601<-37.2146 275.533> 266 114 270 36 0.370393 0.928875<0 306.9>
LayerCount: 3
Fore
SplineSet
463 450 m 1
 463 435 l 1
 433 432 425 426 398 357 c 2
 270 36 l 2
 255 -1 248 -14 242 -14 c 0
 237 -14 230 -10 216 33 c 2
 96 320 l 2
 52.4844 424.074 43 433 5 435 c 1
 5 450 l 1
 201 450 l 1
 201 435 l 1
 166 432 155 425 155 407 c 0
 155 398 158 384 164 370 c 2
 266 114 l 1
 365 373 l 2
 369 383 371 393 371 403 c 0
 371 422 356 432 324 435 c 1
 324 450 l 1
 463 450 l 1
EndSplineSet
Validated: 1
EndChar
StartChar: w
Encoding: 119 119 144
Width: 683
Flags: W
HStem: -14 21G<216 221.5 468 474.5> 435 15<5 26.4997 153.785 185 246 274.386 413.479 449 555 581.211 663.052 678>
DStem2: 244 111 193 30 0.367167 -0.930155<-308.791 0> 244 111 244 25 0.422885 0.906183<0 186.915> 408 340 335 310 0.351123 -0.936329<-60.6506 2.45786 51.9663 239.232> 492 116 499 35 0.370465 0.928847<0 306.487>
LayerCount: 3
Fore
SplineSet
335 310 m 1
 299 419 289 430 246 435 c 1
 246 450 l 1
 449 450 l 1
 449 435 l 1
 402 428 391 421 391 399 c 0
 391 386 391 386 408 340 c 2
 492 116 l 1
 582 338 l 2
 593 365 599 389 599 404 c 0
 599 421 589 428 555 435 c 1
 555 450 l 1
 678 450 l 1
 678 435 l 1
 658 428 654 423 637 381 c 2
 499 35 l 2
 483 -5 478 -14 471 -14 c 0
 465 -14 461 -8 447 29 c 2
 356 265 l 1
 244 25 l 2
 232 -1 224 -14 219 -14 c 0
 213 -14 205 0 193 30 c 2
 58 372 l 2
 37.6064 423.663 28 433 5 435 c 1
 5 450 l 1
 185 450 l 1
 185 435 l 1
 151 431 139 423 139 402 c 0
 139 392 141 382 145 372 c 2
 244 111 l 1
 335 310 l 1
EndSplineSet
Validated: 1
EndChar
StartChar: x
Encoding: 120 120 145
Width: 482
Flags: W
HStem: 0 15<10 42.0081 119.416 155 271 305.389 440.192 472> 435 15<17 55.6465 189.38 224 268 300.378 391.318 426>
DStem2: 83 66 135 74 0.55227 0.833665<-9.59552 181.558 285.671 412.667> 227 324 197 231 0.536188 -0.844098<-99.2551 24.3886 100.23 285.37>
LayerCount: 3
Fore
SplineSet
241 304 m 1
 279 362 308 391 308 413 c 0
 308 427 298 433 268 435 c 1
 268 450 l 1
 426 450 l 1
 426 435 l 1
 394 434 364 418 345 391 c 2
 262 271 l 1
 390 75 l 2
 419.431 29.9346 441 15 472 15 c 1
 472 0 l 1
 271 0 l 1
 271 15 l 1
 304 17 311 21 311 39 c 0
 311 45 309 51 305 57 c 2
 214 197 l 1
 135 74 l 2
 122 54 115 39 115 33 c 0
 115 20 127 15 155 15 c 1
 155 0 l 1
 10 0 l 1
 10 15 l 1
 43 18 54 24 83 66 c 2
 197 231 l 1
 103 375 l 2
 64.9482 433.292 49.75 434.25 17 435 c 1
 17 450 l 1
 224 450 l 1
 224 435 l 1
 194 434 181 427 181 413 c 0
 181 400 199 366 227 324 c 2
 241 304 l 1
EndSplineSet
Validated: 1
EndChar
StartChar: y
Encoding: 121 121 146
Width: 471
Flags: W
HStem: -218 84<51.1022 158.006> 435 15<5 32.2314 165.875 211 331 368.453 443.43 466>
DStem2: 278 117 188 120 0.421487 -0.906835<-316.105 0> 278 117 264 -18 0.353133 0.935573<0 309.612>
LayerCount: 3
Fore
SplineSet
142 -134 m 0
 183 -134 232 -11 232 19 c 0
 232 34 213.628 68.7441 188 120 c 2
 56 404 l 2
 48 421 31 432 5 436 c 1
 5 450 l 1
 211 450 l 1
 211 435 l 1
 168 433 153 426 153 408 c 0
 153 397 157 384 163 370 c 2
 278 117 l 1
 375 393 l 2
 378 400 379 406 379 410 c 0
 379 426 363 435 331 435 c 1
 331 450 l 1
 466 450 l 1
 466 435 l 1
 442 432 430 422 418 390 c 2
 264 -18 l 2
 210 -162 162 -218 95 -218 c 0
 53 -218 21 -193 21 -160 c 0
 21 -136 41 -116 64 -116 c 0
 102 -116 125 -134 142 -134 c 0
EndSplineSet
Validated: 1
EndChar
StartChar: z
Encoding: 122 122 147
Width: 417
Flags: W
HStem: 0 30<117 338.127> 420 30<79.2712 276>
VStem: 36 18<332 376.547> 383 18<100.719 136.556>
DStem2: 10 15 117 30 0.553275 0.832998<71.6954 484.536>
LayerCount: 3
Fore
SplineSet
255 30 m 2
 361 30 368 63 383 139 c 1
 401 135 l 1
 387 0 l 1
 10 0 l 1
 10 15 l 1
 276 420 l 1
 138 420 l 2
 78 420 63 405 54 332 c 1
 36 332 l 1
 39 450 l 1
 386 450 l 1
 386 435 l 1
 117 30 l 1
 255 30 l 2
EndSplineSet
Validated: 1
EndChar
StartChar: braceleft
Encoding: 123 123 148
Width: 480
Flags: W
HStem: -181 11<335.277 350> 669 11<335.405 350>
VStem: 185 74<-131.641 212.517 286.333 630.647>
LayerCount: 3
Fore
SplineSet
350 -181 m 1
 243 -179 185 -160 185 -41 c 2
 185 136 l 2
 185 205 167 229 100 250 c 1
 167 270 185 293 185 363 c 2
 185 541 l 2
 185 660 244 678 350 680 c 1
 350 669 l 1
 281 651 259 621 259 546 c 2
 259 378 l 2
 259 295 240 269 165 249 c 1
 240 230 259 204 259 121 c 2
 259 -47 l 2
 259 -122 281 -152 350 -170 c 1
 350 -181 l 1
EndSplineSet
Validated: 1
EndChar
StartChar: bar
Encoding: 124 124 149
Width: 241
VWidth: 999
Flags: W
HStem: -82 79<25.3325 77.3699 104 146.621> 592 80<96.3325 138 163.77 217.62>
VStem: 10 221
DStem2: 76 1 104 -3 0.103333 0.994647<0 598.131>
LayerCount: 3
Fore
SplineSet
25 -16 m 1
 32 -2 45 1 61 1 c 0
 66 1 71 1 76 1 c 1
 90 142 124 454 138 596 c 1
 131 596 124 597 117 597 c 0
 102 597 88 593 81 581 c 1
 96 659 l 1
 103 673 116 676 132 676 c 0
 150 676 172 672 191 672 c 0
 207 672 221 675 231 686 c 1
 218 611 l 1
 210 596 195 592 177 592 c 0
 173 592 170 592 166 593 c 1
 151 452 117 140 104 -3 c 1
 109 -3 115 -3 120 -3 c 0
 136 -3 150 -0 160 11 c 1
 147 -64 l 1
 139 -78 125 -82 108 -82 c 0
 89 -82 67 -77 48 -77 c 0
 31 -77 18 -81 10 -94 c 1
 25 -16 l 1
EndSplineSet
Validated: 1
EndChar
StartChar: asciitilde
Encoding: 126 126 151
Width: 500
Flags: W
HStem: 186 66<278.573 403.867> 254 66<96.1329 221.427>
LayerCount: 3
Fore
SplineSet
142 320 m 0
 237 320 278 252 353 252 c 0
 384 252 401 264 427 303 c 1
 481 271 l 1
 435 207 404 186 358 186 c 0
 263 186 222 254 147 254 c 0
 116 254 99 242 73 203 c 1
 19 235 l 1
 65 299 96 320 142 320 c 0
EndSplineSet
Validated: 1
EndChar
StartChar: currency
Encoding: 164 164 152
Width: 500
Flags: W
HStem: 115 64<174.256 326.454> 481 64<174.743 326.891>
VStem: 35 68<251.85 408.946> 397 68<251.509 408.522>
DStem2: 28 602 -22 554 0.707107 -0.707107<0 140.868 557.717 698.621> 76 204 124 156 0.708534 0.705677<-137.038 4.29456 421.453 562.856>
LayerCount: 3
Fore
SplineSet
-22 108 m 1
 76 204 l 1
 47 246 35 283 35 330 c 0
 35 378 47 416 76 456 c 1
 -22 554 l 1
 28 602 l 1
 124 506 l 1
 169 535 202 545 251 545 c 0
 299 545 337 533 376 506 c 1
 474 602 l 1
 522 554 l 1
 426 456 l 1
 455 413 465 380 465 331 c 0
 465 283 455 249 426 204 c 1
 522 108 l 1
 474 58 l 1
 376 156 l 1
 337 128 298 115 251 115 c 0
 205 115 166 128 124 156 c 1
 28 58 l 1
 -22 108 l 1
253 481 m 0
 169 481 103 414 103 330 c 0
 103 247 169 179 251 179 c 0
 332 179 397 246 397 331 c 0
 397 413 332 481 253 481 c 0
EndSplineSet
Validated: 1
EndChar
StartChar: brokenbar
Encoding: 166 166 154
Width: 200
Flags: W
HStem: -14 21G<67 133> 656 20G<67 133>
VStem: 67 66<-14 262 400 676>
LayerCount: 3
Fore
SplineSet
67 -14 m 1
 67 262 l 1
 133 262 l 1
 133 -14 l 1
 67 -14 l 1
67 400 m 1
 67 676 l 1
 133 676 l 1
 133 400 l 1
 67 400 l 1
EndSplineSet
Validated: 1
EndChar
StartChar: section
Encoding: 167 167 153
Width: 500
Flags: W
HStem: -148 21<195.959 290.694> 124 22<292.444 341.002> 383 22<152.492 208.906> 655 21<204.371 296.847>
VStem: 70 53<259.702 356.412> 104 68<-102.476 -32.5 519.101 614.309> 313 64<561.5 633.875> 330 56<-92.7632 5.54492> 374 52<171.553 268.496>
LayerCount: 3
Fore
SplineSet
279 568 m 0xfa
 279 600 313 613 313 623 c 0xfa
 313 641 285 655 251 655 c 0
 200 655 166 626 166 584 c 0
 166 559 180 530 200 513 c 2
 337 400 l 2
 395 352 426 298 426 245 c 0xf080
 426 175 378 124 310 124 c 0
 303.545 124 298.727 124.455 292 125 c 1
 367 60 386 30 386 -21 c 0
 386 -97 329 -148 242 -148 c 0
 164 -148 104 -104 104 -48 c 0
 104 -17 127 6 158 6 c 0
 185 6 206 -12 206 -36 c 0
 206 -67 172 -80 172 -92 c 0
 172 -110 206 -127 243 -127 c 0
 296 -127 330 -97 330 -50 c 0xf5
 330 68 70 111 70 286 c 0
 70 354 119 405 185 405 c 0
 191 405 200 405 210 404 c 1
 130 470 110 500 110 554 c 0
 110 626 166 676 249 676 c 0
 322 676 377 634 377 578 c 0
 377 545 358 525 326 525 c 0
 299 525 279 543 279 568 c 0xfa
374 212 m 0xf880
 374 288 234 383 191 383 c 0
 152 383 123 355 123 316 c 0
 123 248 242 146 305 146 c 0
 342 146 374 177 374 212 c 0xf880
EndSplineSet
Validated: 1
EndChar
StartChar: logicalnot
Encoding: 172 172 155
Width: 564
Flags: W
HStem: 320 66<30 468>
VStem: 468 66<108 320>
LayerCount: 3
Fore
SplineSet
468 108 m 1
 468 320 l 1
 30 320 l 1
 30 386 l 1
 534 386 l 1
 534 108 l 1
 468 108 l 1
EndSplineSet
Validated: 1
EndChar
StartChar: macron
Encoding: 175 175 157
Width: 333
Flags: W
HStem: 547 54<11 322>
VStem: 11 311<547 601>
LayerCount: 3
Fore
SplineSet
11 601 m 1
 322 601 l 1
 322 547 l 1
 11 547 l 1
 11 601 l 1
EndSplineSet
Validated: 1
EndChar
StartChar: degree
Encoding: 176 176 159
Width: 400
Flags: W
HStem: 390 34<146.115 254.139> 642 34<146.705 253.073>
VStem: 57 39<470.708 595.51> 304 39<471.436 594.244>
LayerCount: 3
Fore
SplineSet
200 676 m 0
 280 676 343 613 343 532 c 0
 343 452 279 390 198 390 c 0
 120 390 57 454 57 533 c 0
 57 613 120 676 200 676 c 0
200 642 m 0
 143 642 96 592 96 533 c 0
 96 474 143 424 199 424 c 0
 257 424 304 473 304 533 c 0
 304 592 256 642 200 642 c 0
EndSplineSet
Validated: 1
EndChar
StartChar: paragraph
Encoding: 182 182 158
Width: 483
Flags: W
HStem: -154 22<114 172.688 422.2 480> 273 22<160.359 202> 640 22<149.644 202 268 326 416.7 480>
VStem: 8 76<362.527 581.119> 202 66<-117.054 273 295 640> 326 66<-115.835 627.725>
LayerCount: 3
Fore
SplineSet
202 273 m 1
 86 277 8 324 8 477 c 0
 8 607 70 662 217 662 c 2
 480 662 l 1
 480 643 l 1
 403 636 392 625 392 553 c 2
 392 -42 l 2
 392 -113 404 -126 480 -132 c 1
 480 -154 l 1
 326 -154 l 1
 326 640 l 1
 268 640 l 1
 268 -154 l 1
 114 -154 l 1
 114 -132 l 1
 192 -127 202 -115 202 -31 c 2
 202 273 l 1
202 640 m 1
 128 634 84 611 84 481 c 0
 84 355 116 304 202 295 c 1
 202 640 l 1
EndSplineSet
Validated: 1
EndChar
StartChar: uni200D
Encoding: 8205 8205 67
Width: 817
VWidth: 2048
Flags: MW
LayerCount: 3
Fore
SplineSet
802 767 m 1
 755 712 l 1
 755 724 l 1
 797 773 l 1
 802 773 l 1
 802 767 l 1
787 773 m 1
 748 728 l 1
 738 728 l 1
 777 773 l 1
 787 773 l 1
802 743 m 1
 755 689 l 1
 755 701 l 1
 802 755 l 1
 802 743 l 1
767 773 m 1
 728 728 l 1
 718 728 l 1
 757 773 l 1
 767 773 l 1
802 721 m 1
 773 687 l 1
 763 687 l 1
 802 732 l 1
 802 721 l 1
802 697 m 1
 794 687 l 1
 783 687 l 1
 802 709 l 1
 802 697 l 1
727 773 m 1
 712 755 l 1
 712 768 l 1
 716 773 l 1
 727 773 l 1
747 773 m 1
 712 732 l 1
 712 744 l 1
 737 773 l 1
 747 773 l 1
661 743 m 1
 648 728 l 1
 637 728 l 1
 661 755 l 1
 661 743 l 1
661 766 m 1
 628 728 l 1
 617 728 l 1
 656 773 l 1
 661 773 l 1
 661 766 l 1
661 728 m 1
 657 728 l 1
 661 732 l 1
 661 728 l 1
771 639 m 1
 755 620 l 1
 755 632 l 1
 761 639 l 1
 771 639 l 1
791 639 m 1
 755 597 l 1
 755 608 l 1
 781 639 l 1
 791 639 l 1
802 628 m 1
 755 574 l 1
 755 586 l 1
 801 639 l 1
 802 639 l 1
 802 628 l 1
647 773 m 1
 608 728 l 1
 597 728 l 1
 636 773 l 1
 647 773 l 1
802 605 m 1
 757 554 l 1
 755 554 l 1
 755 562 l 1
 802 617 l 1
 802 605 l 1
627 773 m 1
 588 728 l 1
 577 728 l 1
 616 773 l 1
 627 773 l 1
802 582 m 1
 777 554 l 1
 767 554 l 1
 802 594 l 1
 802 582 l 1
802 559 m 1
 798 554 l 1
 787 554 l 1
 802 571 l 1
 802 559 l 1
586 773 m 1
 571 755 l 1
 571 767 l 1
 576 773 l 1
 586 773 l 1
606 773 m 1
 571 732 l 1
 571 743 l 1
 596 773 l 1
 606 773 l 1
519 743 m 1
 506 728 l 1
 496 728 l 1
 519 755 l 1
 519 743 l 1
519 766 m 1
 486 728 l 1
 476 728 l 1
 515 773 l 1
 519 773 l 1
 519 766 l 1
519 728 m 1
 516 728 l 1
 519 732 l 1
 519 728 l 1
755 505 m 1
 755 504 l 1
 755 505 l 1
775 505 m 1
 755 481 l 1
 755 493 l 1
 765 505 l 1
 775 505 l 1
796 505 m 1
 755 458 l 1
 755 470 l 1
 785 505 l 1
 796 505 l 1
505 773 m 1
 466 728 l 1
 456 728 l 1
 495 773 l 1
 505 773 l 1
802 490 m 1
 755 435 l 1
 755 447 l 1
 802 501 l 1
 802 490 l 1
485 773 m 1
 446 728 l 1
 436 728 l 1
 475 773 l 1
 485 773 l 1
802 466 m 1
 762 420 l 1
 755 420 l 1
 755 424 l 1
 802 479 l 1
 802 466 l 1
802 443 m 1
 782 420 l 1
 771 420 l 1
 802 455 l 1
 802 443 l 1
802 420 m 1
 792 420 l 1
 802 432 l 1
 802 420 l 1
445 773 m 1
 429 755 l 1
 429 767 l 1
 435 773 l 1
 445 773 l 1
465 773 m 1
 429 732 l 1
 429 743 l 1
 455 773 l 1
 465 773 l 1
378 765 m 1
 346 728 l 1
 335 728 l 1
 374 773 l 1
 378 773 l 1
 378 765 l 1
378 742 m 1
 366 728 l 1
 356 728 l 1
 378 754 l 1
 378 742 l 1
378 728 m 1
 376 728 l 1
 378 730 l 1
 378 728 l 1
759 371 m 1
 755 366 l 1
 755 371 l 1
 759 371 l 1
779 371 m 1
 755 343 l 1
 755 355 l 1
 769 371 l 1
 779 371 l 1
800 371 m 1
 755 319 l 1
 755 332 l 1
 789 371 l 1
 800 371 l 1
365 773 m 1
 326 728 l 1
 315 728 l 1
 354 773 l 1
 365 773 l 1
802 351 m 1
 755 297 l 1
 755 308 l 1
 802 363 l 1
 802 351 l 1
345 773 m 1
 306 728 l 1
 295 728 l 1
 334 773 l 1
 345 773 l 1
802 328 m 1
 766 286 l 1
 755 286 l 1
 802 340 l 1
 802 328 l 1
802 305 m 1
 786 286 l 1
 775 286 l 1
 802 317 l 1
 802 305 l 1
802 286 m 1
 796 286 l 1
 802 294 l 1
 802 286 l 1
305 773 m 1
 288 754 l 1
 288 766 l 1
 294 773 l 1
 305 773 l 1
325 773 m 1
 288 730 l 1
 288 743 l 1
 314 773 l 1
 325 773 l 1
438 493 m 1
 448 555 474 605 484 672 c 1
 544 672 l 1
 544 662 547 646 553 623 c 0
 562 594 575 550 590 491 c 1
 591 509 600 539 613 581 c 0
 626 619 631 650 632 672 c 1
 690 672 l 1
 690 658 682 628 665 583 c 0
 645 530 628 494 614 431 c 1
 558 431 l 1
 558 444 554 462 545 487 c 0
 533 521 514 569 508 604 c 1
 505 586 500 564 491 538 c 2
 470 473 l 2
 467 464 464 450 462 431 c 1
 406 431 l 1
 405 445 397 475 381 520 c 0
 361 574 344 609 330 672 c 1
 395 672 l 1
 396 662 398 646 404 625 c 0
 413 596 425 552 438 493 c 1
237 764 m 1
 205 728 l 1
 195 728 l 1
 234 773 l 1
 237 773 l 1
 237 764 l 1
237 741 m 1
 225 728 l 1
 215 728 l 1
 237 753 l 1
 237 741 l 1
237 728 m 1
 235 728 l 1
 237 730 l 1
 237 728 l 1
764 238 m 1
 755 227 l 1
 755 238 l 1
 764 238 l 1
784 238 m 1
 755 204 l 1
 755 216 l 1
 773 238 l 1
 784 238 l 1
802 235 m 1
 755 181 l 1
 755 193 l 1
 794 238 l 1
 802 238 l 1
 802 235 l 1
224 773 m 1
 185 728 l 1
 175 728 l 1
 214 773 l 1
 224 773 l 1
802 212 m 1
 755 158 l 1
 755 170 l 1
 802 224 l 1
 802 212 l 1
204 773 m 1
 165 728 l 1
 155 728 l 1
 194 773 l 1
 204 773 l 1
802 189 m 1
 770 153 l 1
 760 153 l 1
 802 201 l 1
 802 189 l 1
802 166 m 1
 790 153 l 1
 780 153 l 1
 802 178 l 1
 802 166 l 1
802 153 m 1
 800 153 l 1
 802 155 l 1
 802 153 l 1
164 773 m 1
 147 753 l 1
 147 765 l 1
 154 773 l 1
 164 773 l 1
184 773 m 1
 147 730 l 1
 147 741 l 1
 174 773 l 1
 184 773 l 1
95 763 m 1
 65 728 l 1
 54 728 l 1
 93 773 l 1
 95 773 l 1
 95 763 l 1
95 740 m 1
 85 728 l 1
 75 728 l 1
 95 752 l 1
 95 740 l 1
95 728 m 1
 95 729 l 1
 95 728 l 1
768 104 m 1
 755 89 l 1
 755 101 l 1
 757 104 l 1
 768 104 l 1
788 104 m 1
 755 66 l 1
 755 77 l 1
 777 104 l 1
 788 104 l 1
802 74 m 1
 754 19 l 1
 744 19 l 1
 802 86 l 1
 802 74 l 1
802 97 m 1
 734 19 l 1
 724 19 l 1
 798 104 l 1
 802 104 l 1
 802 97 l 1
802 51 m 1
 774 19 l 1
 764 19 l 1
 802 63 l 1
 802 51 l 1
802 28 m 1
 794 19 l 1
 784 19 l 1
 802 40 l 1
 802 28 l 1
24 773 m 1
 5 752 l 1
 5 764 l 1
 13 773 l 1
 24 773 l 1
44 773 m 1
 5 729 l 1
 5 741 l 1
 33 773 l 1
 44 773 l 1
84 773 m 1
 10 687 l 1
 5 687 l 1
 5 694 l 1
 73 773 l 1
 84 773 l 1
64 773 m 1
 5 706 l 1
 5 717 l 1
 53 773 l 1
 64 773 l 1
307 477 m 1
 305 431 l 1
 130 431 l 1
 133 472 l 1
 155 500 231 604 239 632 c 1
 208 632 173 631 133 628 c 1
 134 672 l 1
 303 672 l 1
 300 632 l 1
 239 551 205 498 198 473 c 1
 225 473 262 474 307 477 c 1
53 714 m 1
 30 687 l 1
 20 687 l 1
 53 726 l 1
 53 714 l 1
53 691 m 1
 50 687 l 1
 40 687 l 1
 53 703 l 1
 53 691 l 1
713 64 m 1
 712 63 l 1
 712 64 l 1
 713 64 l 1
733 64 m 1
 712 40 l 1
 712 52 l 1
 722 64 l 1
 733 64 l 1
753 64 m 1
 714 19 l 1
 712 19 l 1
 712 28 l 1
 743 64 l 1
 753 64 l 1
661 50 m 1
 634 19 l 1
 623 19 l 1
 661 62 l 1
 661 50 l 1
661 27 m 1
 654 19 l 1
 643 19 l 1
 661 39 l 1
 661 27 l 1
7 639 m 1
 5 636 l 1
 5 639 l 1
 7 639 l 1
28 639 m 1
 5 613 l 1
 5 625 l 1
 18 639 l 1
 28 639 l 1
48 639 m 1
 5 590 l 1
 5 602 l 1
 38 639 l 1
 48 639 l 1
653 64 m 1
 614 19 l 1
 603 19 l 1
 642 64 l 1
 653 64 l 1
53 622 m 1
 5 567 l 1
 5 579 l 1
 53 634 l 1
 53 622 l 1
633 64 m 1
 594 19 l 1
 583 19 l 1
 622 64 l 1
 633 64 l 1
53 599 m 1
 14 554 l 1
 5 554 l 1
 5 556 l 1
 53 610 l 1
 53 599 l 1
53 575 m 1
 34 554 l 1
 24 554 l 1
 53 587 l 1
 53 575 l 1
353 156 m 0
 393 156 404 178 404 221 c 0
 404 278 403 324 401 360 c 1
 458 360 l 1
 456 322 456 277 456 224 c 0
 456 151 423 114 358 114 c 0
 346 114 334 116 322 118 c 1
 325 162 l 1
 335 158 344 156 353 156 c 0
53 554 m 1
 44 554 l 1
 53 564 l 1
 53 554 l 1
572 64 m 1
 571 62 l 1
 571 64 l 1
 572 64 l 1
592 64 m 1
 571 39 l 1
 571 51 l 1
 582 64 l 1
 592 64 l 1
612 64 m 1
 574 19 l 1
 571 19 l 1
 571 28 l 1
 602 64 l 1
 612 64 l 1
519 50 m 1
 492 19 l 1
 482 19 l 1
 519 62 l 1
 519 50 l 1
519 27 m 1
 513 19 l 1
 502 19 l 1
 519 39 l 1
 519 27 l 1
12 505 m 1
 5 498 l 1
 5 505 l 1
 12 505 l 1
32 505 m 1
 5 475 l 1
 5 487 l 1
 22 505 l 1
 32 505 l 1
52 505 m 1
 5 452 l 1
 5 464 l 1
 42 505 l 1
 52 505 l 1
511 64 m 1
 472 19 l 1
 462 19 l 1
 501 64 l 1
 511 64 l 1
53 483 m 1
 5 428 l 1
 5 441 l 1
 53 495 l 1
 53 483 l 1
491 64 m 1
 452 19 l 1
 442 19 l 1
 481 64 l 1
 491 64 l 1
53 460 m 1
 18 420 l 1
 8 420 l 1
 53 472 l 1
 53 460 l 1
53 437 m 1
 38 420 l 1
 28 420 l 1
 53 449 l 1
 53 437 l 1
53 420 m 1
 48 420 l 1
 53 426 l 1
 53 420 l 1
431 64 m 1
 429 62 l 1
 429 64 l 1
 431 64 l 1
451 64 m 1
 429 39 l 1
 429 51 l 1
 441 64 l 1
 451 64 l 1
471 64 m 1
 432 19 l 1
 429 19 l 1
 429 28 l 1
 461 64 l 1
 471 64 l 1
378 49 m 1
 352 19 l 1
 341 19 l 1
 378 61 l 1
 378 49 l 1
378 26 m 1
 372 19 l 1
 362 19 l 1
 378 38 l 1
 378 26 l 1
16 371 m 1
 5 359 l 1
 5 371 l 1
 16 371 l 1
36 371 m 1
 5 336 l 1
 5 348 l 1
 26 371 l 1
 36 371 l 1
53 368 m 1
 5 313 l 1
 5 325 l 1
 46 371 l 1
 53 371 l 1
 53 368 l 1
371 64 m 1
 332 19 l 1
 321 19 l 1
 360 64 l 1
 371 64 l 1
53 344 m 1
 5 290 l 1
 5 302 l 1
 53 357 l 1
 53 344 l 1
351 64 m 1
 312 19 l 1
 301 19 l 1
 340 64 l 1
 351 64 l 1
53 321 m 1
 22 286 l 1
 12 286 l 1
 53 333 l 1
 53 321 l 1
53 298 m 1
 42 286 l 1
 32 286 l 1
 53 310 l 1
 53 298 l 1
53 286 m 1
 52 286 l 1
 53 287 l 1
 53 286 l 1
291 64 m 1
 288 61 l 1
 288 64 l 1
 291 64 l 1
311 64 m 1
 288 38 l 1
 288 50 l 1
 300 64 l 1
 311 64 l 1
331 64 m 1
 292 19 l 1
 288 19 l 1
 288 27 l 1
 320 64 l 1
 331 64 l 1
237 48 m 1
 211 19 l 1
 201 19 l 1
 237 60 l 1
 237 48 l 1
237 25 m 1
 231 19 l 1
 221 19 l 1
 237 37 l 1
 237 25 l 1
20 238 m 1
 5 221 l 1
 5 233 l 1
 10 238 l 1
 20 238 l 1
40 238 m 1
 5 198 l 1
 5 210 l 1
 30 238 l 1
 40 238 l 1
230 64 m 1
 191 19 l 1
 181 19 l 1
 220 64 l 1
 230 64 l 1
53 229 m 1
 5 175 l 1
 5 186 l 1
 50 238 l 1
 53 238 l 1
 53 229 l 1
210 64 m 1
 171 19 l 1
 161 19 l 1
 200 64 l 1
 210 64 l 1
53 206 m 1
 6 153 l 1
 5 153 l 1
 5 163 l 1
 53 218 l 1
 53 206 l 1
53 183 m 1
 26 153 l 1
 16 153 l 1
 53 195 l 1
 53 183 l 1
53 160 m 1
 46 153 l 1
 36 153 l 1
 53 172 l 1
 53 160 l 1
150 64 m 1
 147 60 l 1
 147 64 l 1
 150 64 l 1
190 64 m 1
 151 19 l 1
 147 19 l 1
 147 26 l 1
 180 64 l 1
 190 64 l 1
170 64 m 1
 147 37 l 1
 147 49 l 1
 160 64 l 1
 170 64 l 1
95 47 m 1
 71 19 l 1
 60 19 l 1
 95 59 l 1
 95 47 l 1
95 24 m 1
 91 19 l 1
 81 19 l 1
 95 36 l 1
 95 24 l 1
24 104 m 1
 5 82 l 1
 5 94 l 1
 14 104 l 1
 24 104 l 1
44 104 m 1
 5 59 l 1
 5 71 l 1
 34 104 l 1
 44 104 l 1
90 64 m 1
 51 19 l 1
 40 19 l 1
 79 64 l 1
 90 64 l 1
53 90 m 1
 5 36 l 1
 5 48 l 1
 53 102 l 1
 53 90 l 1
70 64 m 1
 31 19 l 1
 20 19 l 1
 59 64 l 1
 70 64 l 1
53 67 m 1
 11 19 l 1
 5 19 l 1
 5 25 l 1
 53 79 l 1
 53 67 l 1
EndSplineSet
Validated: 257
EndChar
StartChar: uni2010
Encoding: 8208 8208 70
Width: 333
Flags: W
HStem: 194 63<39 285>
VStem: 39 246<194 257>
LayerCount: 3
Fore
SplineSet
39 257 m 1
 285 257 l 1
 285 194 l 1
 39 194 l 1
 39 257 l 1
EndSplineSet
Validated: 1
EndChar
StartChar: uni2011
Encoding: 8209 8209 71
Width: 333
Flags: W
HStem: 194 63<39 285>
VStem: 39 246<194 257>
LayerCount: 3
Fore
SplineSet
39 257 m 1
 285 257 l 1
 285 194 l 1
 39 194 l 1
 39 257 l 1
EndSplineSet
Validated: 1
EndChar
StartChar: endash
Encoding: 8211 8211 73
Width: 500
Flags: W
HStem: 194 63<0 500>
LayerCount: 3
Fore
SplineSet
0 257 m 1
 500 257 l 1
 500 194 l 1
 0 194 l 1
 0 257 l 1
EndSplineSet
Validated: 1
EndChar
StartChar: emdash
Encoding: 8212 8212 74
Width: 1000
Flags: W
HStem: 194 63<0 1000>
LayerCount: 3
Fore
SplineSet
0 257 m 1
 1000 257 l 1
 1000 194 l 1
 0 194 l 1
 0 257 l 1
EndSplineSet
Validated: 1
EndChar
StartChar: uni25CC
Encoding: 9676 9676 37
Width: 525
GlyphClass: 2
Flags: W
HStem: -11 69<228.499 293.116> 42 69<94.4993 160.204 360.499 425.204> 174 69<34.1933 99.4636 422.499 487.204> 319 69<94.7991 159.92 363.219 422.698> 376 69<228.508 293.246>
VStem: 33 67<174.596 241.864> 93 68<42.7508 109.864 319.837 385.91> 227 67<-9.86539 56.8636 376.837 443.492> 359 67<42.7508 109.97 324.788 392.864> 421 67<174.796 241.864>
AnchorPoint: "Podtinka" 65 -77 basechar 0
AnchorPoint: "Otsechka" 632 201.2 basechar 0
AnchorPoint: "Borzaya" -15 -1 basechar 0
AnchorPoint: "Podvertka" 533 -13 basechar 0
AnchorPoint: "Tonal" 274 638 basechar 0
AnchorPoint: "Zaderzhka" 515 501.9 basechar 0
AnchorPoint: "Podchashie" 266 -118 basechar 0
AnchorPoint: "Oblachko" 260 640 basechar 0
AnchorPoint: "Tikhaya" 206 160.5 basechar 0
AnchorPoint: "Lomka" 528 -15 basechar 0
AnchorPoint: "Kachka" 263 639 basechar 0
AnchorPoint: "Kupnaya" 268 -114 basechar 0
AnchorPoint: "Udarka" 525 496 basechar 0
AnchorPoint: "Zevok" 519 501 basechar 0
AnchorPoint: "Shaidur" 1 209.4 basechar 0
LayerCount: 3
Fore
SplineSet
67 243 m 0x25
 81 243 84 243 93 233 c 0x23
 102 223 100 223 100 208 c 0
 100 193 100 193 91 183.5 c 0
 82 174 82 174 67 174 c 0
 52 174 52 174 42.5 184 c 0
 33 194 33 194 33 208 c 0
 33 222 33 222 43.5 232.5 c 0
 54 243 54 243 67 243 c 0x25
127 111 m 0x63
 142 111 142 111 151.5 101 c 0
 161 91 161 91 161 76 c 0
 161 62 161 62 151 52 c 0
 141 42 141 42 127 42 c 0
 113 42 113 42 103 52 c 0
 93 62 93 62 93 76 c 0
 93 89 93 89 103.5 100 c 0
 114 111 114 111 127 111 c 0x63
127 388 m 0x33
 141 388 141 386 151 376 c 0x2b
 161 366 161 368 161 354 c 0
 161 339 161 339 151.5 329 c 0
 142 319 142 319 127 319 c 0x33
 113 319 113 319 103 329.5 c 0
 93 340 93 340 93 354 c 0
 93 366 93 365 104 376 c 0x2b
 115 387 115 388 127 388 c 0x33
261 58 m 0xa1
 276 58 276 58 285 48 c 0
 294 38 294 38 294 23 c 0
 294 9 294 10 284.5 0 c 0
 275 -10 275 -11 261 -11 c 0
 247 -11 247 -10 237 0 c 0
 227 10 227 9 227 23 c 0
 227 36 227 36 237.5 47 c 0
 248 58 248 58 261 58 c 0xa1
261 445 m 0x29
 275 445 275 445 284.5 435 c 0
 294 425 294 425 294 411 c 0
 294 396 294 396 285 386 c 0
 276 376 276 376 261 376 c 0
 247 376 247 376 237 386.5 c 0
 227 397 227 397 227 411 c 0
 227 423 227 423 238 434 c 0
 249 445 249 445 261 445 c 0x29
392 111 m 0x6180
 407 111 407 111 416.5 101 c 0
 426 91 426 91 426 76 c 0
 426 61 426 61 416.5 51.5 c 0
 407 42 407 42 392 42 c 0
 379 42 379 42 369 52 c 0
 359 62 359 62 359 76 c 0
 359 89 359 89 369.5 100 c 0
 380 111 380 111 392 111 c 0x6180
392 394 m 0
 407 394 407 394 416.5 384 c 0
 426 374 426 374 426 359 c 0
 426 344 426 344 416.5 334 c 0
 407 324 407 324 392 324 c 0
 379 324 379 324 369 334.5 c 0
 359 345 359 345 359 359 c 0
 359 371 359 371 369.5 382.5 c 0
 380 394 380 394 392 394 c 0
455 243 m 0
 469 243 469 243 478.5 233 c 0
 488 223 488 223 488 208 c 0
 488 193 488 193 479 183.5 c 0
 470 174 470 174 455 174 c 0
 441 174 441 174 431 184 c 0
 421 194 421 194 421 208 c 0x2140
 421 221 421 221 431.5 232 c 0
 442 243 442 243 455 243 c 0
EndSplineSet
Validated: 1
EndChar
StartChar: uniEA00
Encoding: 59904 59904 270
Width: 0
VWidth: 999
GlyphClass: 4
Flags: W
HStem: 201 150<-353.591 -324.079 -189.9 -164.283 -79.9004 -54.0688> 270 14<-164 -90> 302 52<-254.851 -228.63> 341 13<-376.993 -351 -316.914 -254>
VStem: -360 36<201.023 339.69> -255 27<306.22 340.717> -201 37<201.04 270 284 342.247> -90 36<201.03 270 284 343.01>
DStem2: -459 36 -450 24 0.733297 0.679909<-5.4823 111.551>
AnchorPoint: "DoubleShaidur" -198 198 mark 0
AnchorPoint: "DoubleShaidur" 393 533 basemark 0
AnchorPoint: "Shaidur" 0 345.5 mark 0
LayerCount: 3
Fore
SplineSet
-45 344 m 0x8f
 -45 323 -54 294 -54 264 c 0
 -54 243 -51 228 -51 207 c 0
 -51 201 -61 201 -68 201 c 0x8f
 -76 201 -87 201 -87 207 c 0
 -89 223 -91 240 -91 258 c 0
 -91 262 -91 266 -90 270 c 1
 -164 270 l 1x4f
 -164 267 -164 264 -164 261 c 0
 -164 241 -163 228 -161 207 c 0
 -161 201 -171 201 -178 201 c 0
 -186 201 -197 201 -197 207 c 0
 -199 223 -201 242 -201 261 c 0
 -201 291 -196 322 -190 345 c 0
 -188 352 -178 351 -172 351 c 0x8f
 -167 351 -153 350 -155 343 c 0
 -158 327 -162 307 -164 284 c 1
 -90 284 l 1x4f
 -87 306 -84 327 -80 345 c 0
 -78 352 -68 351 -62 351 c 0
 -57 351 -45 350 -45 344 c 0x8f
-360 260 m 0
 -360 287 -356 323 -351 341 c 1
 -370 341 l 2
 -376 341 -377 344 -377 348 c 0
 -377 352 -375 353 -368 354 c 1x1f
 -322 354 -275 354 -229 354 c 0
 -221 354 -220 350 -220 346 c 0
 -221 340 -227 334 -228 326 c 0
 -231 312 -224 302 -231 302 c 0x2f
 -238 302 -252 312 -255 321 c 0
 -256 327 -256 335 -254 341 c 1
 -275 341 -295 341 -316 341 c 1x1f
 -321 313 -324 288 -324 258 c 0
 -324 240 -322 227 -321 207 c 0
 -320 201 -333 201 -339 201 c 0
 -345 201 -356 201 -357 207 c 0
 -358 223 -360 241 -360 260 c 0
-261 190 m 0
 -258 190 -256 186 -256 183 c 0
 -256 181 -257 179 -261 176 c 0
 -281 165 -316 144 -349 119 c 1
 -337 103 -325 82 -323 77 c 0
 -319 70 -329 70 -335 70 c 1
 -340 69 -345 65 -349 72 c 0
 -354 80 -360 91 -369 103 c 1
 -403 74 -433 41 -450 24 c 0
 -452 22 -453 22 -455 22 c 0
 -458 22 -461 25 -461 30 c 0
 -461 32 -461 34 -459 36 c 0
 -445 50 -413 85 -378 115 c 1
 -389 128 -401 140 -407 146 c 0
 -418 156 -408 157 -404 157 c 0
 -396 158 -388 159 -383 155 c 0
 -376 150 -367 141 -358 130 c 1
 -325 155 -288 178 -272 186 c 0
 -268 188 -264 190 -261 190 c 0
EndSplineSet
Validated: 1
Colour: faff61
EndChar
StartChar: uniEA01
Encoding: 59905 59905 271
Width: 0
VWidth: 999
GlyphClass: 4
Flags: W
HStem: 201 150<-353.591 -324.079 -189.9 -164.283 -79.9004 -54.0688> 270 14<-164 -90> 302 52<-254.851 -228.63> 341 13<-376.993 -351 -316.914 -254>
VStem: -360 36<201.023 339.69> -255 27<306.22 340.717> -201 37<201.04 270 284 342.247> -90 36<201.03 270 284 343.01>
AnchorPoint: "DoubleShaidur" -198 198 mark 0
AnchorPoint: "DoubleShaidur" 393 533 basemark 0
AnchorPoint: "Shaidur" 0 345.5 mark 0
LayerCount: 3
Fore
SplineSet
-45 344 m 0x8f
 -45 323 -54 294 -54 264 c 0
 -54 243 -53 228 -51 207 c 0
 -51 201 -61 201 -68 201 c 0x8f
 -76 201 -87 201 -87 207 c 0
 -89 223 -91 240 -91 258 c 0
 -91 262 -91 266 -90 270 c 1
 -164 270 l 1x4f
 -164 267 -164 264 -164 261 c 0
 -164 241 -163 228 -161 207 c 0
 -161 201 -171 201 -178 201 c 0
 -186 201 -197 201 -197 207 c 0
 -199 223 -201 242 -201 261 c 0
 -201 291 -196 322 -190 345 c 0
 -188 352 -178 351 -172 351 c 0x8f
 -167 351 -153 350 -155 343 c 0
 -158 327 -162 307 -164 284 c 1
 -90 284 l 1x4f
 -87 306 -84 327 -80 345 c 0
 -78 352 -68 351 -62 351 c 0
 -57 351 -45 350 -45 344 c 0x8f
-360 260 m 0
 -360 287 -356 323 -351 341 c 1
 -370 341 l 2
 -376 341 -377 344 -377 348 c 0
 -377 352 -375 353 -368 354 c 1x1f
 -322 354 -275 354 -229 354 c 0
 -221 354 -220 350 -220 346 c 0
 -221 340 -227 334 -228 326 c 0
 -231 312 -224 302 -231 302 c 0x2f
 -238 302 -252 312 -255 321 c 0
 -256 327 -256 335 -254 341 c 1
 -275 341 -295 341 -316 341 c 1x1f
 -321 313 -324 288 -324 258 c 0
 -324 240 -322 227 -321 207 c 0
 -320 201 -333 201 -339 201 c 0
 -345 201 -356 201 -357 207 c 0
 -358 223 -360 241 -360 260 c 0
EndSplineSet
Validated: 1
Colour: faff61
EndChar
StartChar: uniEA02
Encoding: 59906 59906 272
Width: 0
VWidth: 999
GlyphClass: 4
Flags: W
VStem: -180 36<229 343.922> -169 34<312 346> -68 36<199.096 322.11>
DStem2: -299 28 -290 16 0.733297 0.679909<-5.4823 111.551>
AnchorPoint: "DoubleShaidur" -109 195.7 mark 0
AnchorPoint: "Shaidur" -7 343.5 mark 0
LayerCount: 3
Fore
SplineSet
-23 344 m 0xa0
 -23 316 -32 297 -32 266 c 0
 -32 244 -29 228 -29 205 c 0
 -29 201 -38 199 -47 199 c 0
 -56 199 -64 201 -65 206 c 0
 -67 223 -68 243 -68 264 c 0
 -68 286 -66 304 -62 323 c 1
 -70 316 -88 288 -102 270 c 0
 -107 263 -138 212 -141 207 c 0
 -144 201 -153 199 -159 200 c 0
 -164 201 -176 201 -177 207 c 0
 -179 224 -180 244 -180 265 c 0xa0
 -180 294 -176 325 -169 346 c 0
 -167 351 -161 352 -156 352 c 2
 -152 352 l 2
 -146 352 -134 351 -135 344 c 0x60
 -140 319 -144 304 -144 278 c 0
 -144 259 -144 248 -142 229 c 1
 -134 245 -121 269 -105 292 c 1
 -87 316 -69 339 -57 347 c 0
 -52 350 -44 351 -39 351 c 0
 -33 351 -23 350 -23 344 c 0xa0
-101 182 m 0
 -98 182 -96 178 -96 175 c 0
 -96 173 -97 171 -101 168 c 0
 -121 157 -156 136 -189 111 c 1
 -177 95 -165 74 -163 69 c 0
 -159 62 -169 62 -175 62 c 1
 -180 61 -185 57 -189 64 c 0
 -194 72 -200 83 -209 95 c 1
 -243 66 -273 33 -290 16 c 0
 -292 14 -293 14 -295 14 c 0
 -298 14 -301 17 -301 22 c 0
 -301 24 -301 26 -299 28 c 0
 -285 42 -253 77 -218 107 c 1
 -229 120 -241 132 -247 138 c 0
 -258 148 -248 149 -244 149 c 0
 -236 150 -228 151 -223 147 c 0
 -216 142 -207 133 -198 122 c 1
 -165 147 -128 170 -112 178 c 0
 -108 180 -104 182 -101 182 c 0
EndSplineSet
Validated: 1
Colour: faff61
EndChar
StartChar: uniEA03
Encoding: 59907 59907 273
Width: 0
VWidth: 999
GlyphClass: 4
Flags: W
HStem: 199 153
VStem: -180 36<229 343.922> -169 34<312 346> -68 36<199.096 322.11>
AnchorPoint: "DoubleShaidur" -109 194.7 mark 0
AnchorPoint: "Shaidur" -7 342.5 mark 0
LayerCount: 3
Fore
SplineSet
-23 344 m 0xd0
 -23 316 -32 297 -32 266 c 0
 -32 244 -29 228 -29 205 c 0
 -29 201 -38 199 -47 199 c 0
 -56 199 -64 201 -65 206 c 0
 -67 223 -68 243 -68 264 c 0
 -68 286 -66 304 -62 323 c 1
 -70 316 -88 288 -102 270 c 0
 -107 263 -138 212 -141 207 c 0
 -144 202 -150 200 -156 200 c 0
 -162 200 -176 201 -177 207 c 0
 -179 224 -180 244 -180 265 c 0xd0
 -180 294 -176 325 -169 346 c 0
 -167 351 -161 352 -156 352 c 2
 -152 352 l 2
 -146 352 -134 351 -135 344 c 0xb0
 -140 319 -144 304 -144 278 c 0
 -144 259 -144 248 -142 229 c 1
 -134 245 -121 269 -105 292 c 1
 -87 316 -69 339 -57 347 c 0
 -52 350 -44 351 -39 351 c 0
 -33 351 -23 350 -23 344 c 0xd0
EndSplineSet
Validated: 1
Colour: faff61
EndChar
StartChar: uniEA04
Encoding: 59908 59908 274
Width: 0
VWidth: 999
GlyphClass: 4
Flags: W
HStem: 214 19<-117.905 -69.9794> 326 22<-122.156 -70.6486>
VStem: -173 39<242.119 321.712> -62 28<307.922 319.279>
LayerCount: 3
Fore
SplineSet
-34 241 m 0
 -50 224 -75 214 -101 214 c 0
 -141 214 -173 239 -173 280 c 0
 -173 320 -133 348 -88 348 c 0
 -67 348 -48 341 -36 328 c 0
 -35 326 -34 325 -34 323 c 0
 -34 314 -52 304 -59 304 c 0
 -61 304 -62 304 -62 305 c 0
 -69 317 -83 326 -98 326 c 0
 -124 326 -134 301 -134 275 c 0
 -134 264 -128 253 -120 244 c 0
 -112 235 -102 233 -91 233 c 0
 -77 233 -68 241 -63 253 c 0
 -62 255 -58 256 -54 256 c 0
 -45 256 -33 251 -33 245 c 0
 -33 244 -33 243 -34 241 c 0
EndSplineSet
Validated: 1
Colour: faff61
EndChar
StartChar: uniEA0F
Encoding: 59919 59919 275
Width: 0
VWidth: 999
GlyphClass: 4
Flags: W
HStem: 24 172
VStem: -212 201
DStem2: -210 35 -200 24 0.697786 0.716307<-4.2267 92.4656> -80 155 -70 144 0.815383 0.578922<-56.1688 -24.9915 1.78569 75.8899>
AnchorPoint: "Shaidur" -1 198 mark 0
LayerCount: 3
Fore
SplineSet
-15 196 m 0
 -12 196 -11 192 -11 189 c 0
 -11 187 -12 185 -15 183 c 0
 -28 175 -49 160 -70 144 c 1
 -68 141 -43 113 -43 101 c 0
 -43 100 -44 98 -45 97 c 2
 -55 95 l 1
 -63 95 -65 92 -69 98 c 0
 -77 108 -81 118 -90 128 c 0
 -91 128 l 0
 -101 121 -110 114 -116 108 c 1
 -115 107 -89 77 -89 65 c 0
 -89 63 -90 62 -91 61 c 2
 -101 59 l 1
 -109 58 -111 55 -115 61 c 0
 -122 71 -127 82 -136 92 c 1
 -157 72 -186 39 -200 24 c 0
 -201 22 -203 22 -204 22 c 0
 -209 22 -212 27 -212 31 c 0
 -212 32 -212 34 -210 35 c 0
 -192 54 -169 82 -145 103 c 1
 -151 110 -157 116 -162 121 c 2
 -175 133 l 2
 -180 138 -182 141 -180 143 c 1
 -177 143 -175 144 -173 146 c 1
 -161 146 l 2
 -158 146 -155 145 -152 143 c 0
 -144 138 -135 130 -126 119 c 1
 -119 125 -109 132 -100 140 c 1
 -105 147 -111 153 -116 157 c 2
 -129 170 l 2
 -135 175 -137 178 -134 180 c 1
 -131 180 -129 181 -127 182 c 1
 -115 182 l 2
 -112 183 -109 182 -106 180 c 0
 -99 175 -89 166 -80 155 c 1
 -64 167 -37 186 -26 190 c 0
 -24 192 -18 196 -15 196 c 0
EndSplineSet
Validated: 1
Colour: faff61
EndChar
StartChar: uniEA10
Encoding: 59920 59920 276
Width: 0
VWidth: 999
GlyphClass: 4
Flags: W
HStem: 327 32<-87.1205 -51.667>
VStem: -172 33<42.3527 217.834>
AnchorPoint: "DoubleShaidur" 376 421.6 basemark 0
AnchorPoint: "Shaidur" 1 301 mark 0
LayerCount: 3
Fore
SplineSet
-69 327 m 0
 -83 327 -104 284 -107 274 c 0
 -136 205 -139 165 -139 63 c 1
 -138 56 -149 42 -158 42 c 0
 -167 42 -172 56 -172 64 c 0
 -172 140 -167 187 -148 244 c 0
 -138 276 -117 328 -93 347 c 0
 -83 355 -71 359 -60 359 c 0
 -52 359 -49 356 -49 351 c 0
 -49 342 -63 327 -69 327 c 0
EndSplineSet
Validated: 1
Colour: faff61
EndChar
StartChar: uniEA11
Encoding: 59921 59921 277
Width: 0
VWidth: 500
GlyphClass: 4
Flags: W
HStem: 210 12<-139.97 -47.9856>
VStem: -308 36<101.534 186.59> -178 37<109.168 201.995> -46 36<119.058 209.586>
LayerCount: 3
Fore
SplineSet
-308 146 m 2
 -307 150 -306 155 -306 164 c 2
 -306 176 l 2
 -306 187 -307 189 -318 188 c 0
 -343 185 -368 182 -394 178 c 0
 -398 178 -400 180 -400 183 c 2
 -400 188 l 2
 -400 190 -398 191 -394 193 c 1
 -305 209 -184 214 -80 222 c 0
 -60 223 -40 224 -18 224 c 0
 -11 224 -10 211 -10 199 c 0
 -10 192 -10 185 -10 182 c 0
 -10 177 -10 172 -10 167 c 0
 -10 141 -12 118 -36 118 c 0
 -44 118 -48 123 -48 133 c 0
 -47 157 -46 174 -46 193 c 0
 -46 204 -50 210 -56 210 c 0
 -71 210 -86 209 -100 208 c 2
 -141 208 l 1
 -141 199 -141 185 -142 174 c 0
 -142 169 -141 165 -141 160 c 0
 -141 134 -143 108 -167 108 c 0
 -178 108 -180 117 -180 129 c 0
 -180 138 -178 148 -178 156 c 2
 -178 182 l 2
 -178 195 -181 202 -186 202 c 0
 -204 200 -233 197 -272 194 c 1
 -272 128 l 2
 -272 110 -280 101 -296 101 c 0
 -304 101 -308 106 -308 116 c 2
 -308 146 l 2
EndSplineSet
Validated: 1
Colour: faff61
EndChar
StartChar: uniEA12
Encoding: 59922 59922 279
Width: 0
VWidth: 999
GlyphClass: 4
Flags: W
HStem: 190 20<-169.799 -114.697> 281 18<-164.622 -121.405> 312 42<-127.851 -101.63> 341 13<-229.993 -204 -169.948 -127>
VStem: -213 37<211.356 308.739> -204 35<291.343 341> -128 27<316.22 340.725> -108 20<217.143 268.012>
AnchorPoint: "DoubleShaidur" -198 198 mark 0
AnchorPoint: "DoubleShaidur" 393 533 basemark 0
AnchorPoint: "Shaidur" -77 347.5 mark 0
LayerCount: 3
Fore
SplineSet
-143 281 m 0xc9
 -164 281 -176 262 -176 243 c 1
 -175 221 -168 210 -148 210 c 0
 -147 210 -145 210 -143 211 c 0
 -142 211 l 0
 -119 211 -108 221 -108 237 c 0
 -108 261 -122 281 -143 281 c 0xc9
-175 290 m 1
 -166 295 -154 299 -140 299 c 0
 -115 299 -89 280 -88 250 c 0xd5
 -88 209 -96 197 -128 192 c 0
 -135 191 -147 190 -158 190 c 0
 -179 190 -201 192 -206 195 c 1
 -213 203 -209 202 -210 207 c 0
 -211 223 -213 241 -213 260 c 0xda
 -213 287 -209 323 -204 341 c 1
 -223 341 l 2
 -229 341 -230 344 -230 348 c 0
 -230 352 -228 353 -221 354 c 1xd4
 -181 354 -142 354 -102 354 c 0
 -94 354 -93 350 -93 346 c 0
 -94 340 -100 344 -101 336 c 0
 -104 322 -97 312 -104 312 c 0xe6
 -111 312 -125 322 -128 331 c 0
 -129 337 -129 335 -127 341 c 1
 -141 341 -155 341 -169 341 c 1xd6
 -172 323 -174 308 -175 290 c 1
EndSplineSet
Validated: 1
Colour: faff61
EndChar
StartChar: uniEA13
Encoding: 59923 59923 278
Width: 0
GlyphClass: 4
Flags: W
HStem: 124 19<-116.91 -69.055> 236 22<-121.103 -70.4012>
VStem: -172 39<149.914 231.304> -56 38<148.101 229.245> -38 34<272.899 367.072>
LayerCount: 3
Fore
SplineSet
-39 414 m 0xe8
 -38 414 -37 414 -36 414 c 0
 -32 414 -32 412 -29 407 c 0
 -19 388 -4 320 -4 283 c 0
 -4 278 -18 272 -28 272 c 0
 -33 272 -37 274 -38 277 c 0
 -48 301 -51 331 -53 350 c 0
 -54 361 -54 372 -58 369 c 0
 -90 350 -109 312 -132 278 c 0
 -136 272 -158 273 -154 282 c 0
 -136 325 -68 407 -39 414 c 0xe8
-100 124 m 0
 -136 124 -172 146 -172 187 c 0
 -172 227 -136 258 -87 258 c 0
 -56 258 -18 241 -18 192 c 0xf0
 -18 153 -54 124 -100 124 c 0
-95 236 m 0
 -121 236 -133 215 -133 192 c 0
 -133 168 -119 143 -93 143 c 0
 -67 143 -56 164 -56 187 c 0
 -56 211 -70 236 -95 236 c 0
EndSplineSet
Validated: 1
Colour: faff61
EndChar
StartChar: uniEA14
Encoding: 59924 59924 367
Width: 0
GlyphClass: 4
Flags: W
HStem: 293 26<-276.903 -232.404 -120.993 -75.1428> 630 27<-275.656 -228.404 -111.225 -66.4982>
VStem: -325 44<322.103 629.605> -66 46<322.221 630.999>
AnchorPoint: "Zaderzhka" -244.004 362.599 mark 0
LayerCount: 3
Fore
SplineSet
-228 496 m 1
 -206 540 -123 583 -123 583 c 1
 -136 488 l 1
 -136 488 -218 447 -243 398 c 1
 -228 496 l 1
-275 558 m 0
 -275 497 -281 405 -281 361 c 0
 -281 338 -280 324 -277 322 c 0
 -275 320 -269 319 -262 319 c 0
 -256 319 -250 319 -245 319 c 0
 -240 319 -237 319 -235 318 c 0
 -231 315 -230 296 -235 295 c 0
 -237 294 -255 293 -274 293 c 0
 -296 293 -319 294 -322 298 c 0
 -324 300 -325 302 -325 318 c 0
 -325 352 -320 509 -320 548 c 0
 -320 588 -321 614 -321 629 c 0
 -321 642 -320 649 -318 651 c 0
 -316 655 -287 657 -263 657 c 0
 -248 657 -235 657 -231 655 c 0
 -227 653 -226 634 -231 631 c 0
 -233 630 -238 630 -243 630 c 0
 -246 630 -249 630 -252 630 c 2
 -256 630 l 2
 -274 630 -276 630 -276 616 c 0
 -276 611 -275 606 -275 598 c 0
 -275 587 -275 573 -275 558 c 0
-66 617 m 0
 -66 629 -69 631 -77 631 c 0
 -80 631 -84 630 -89 630 c 0
 -92 630 -95 630 -98 630 c 0
 -104 630 -108 630 -109 631 c 0
 -114 634 -113 653 -108 655 c 0
 -105 657 -93 657 -78 657 c 0
 -54 657 -25 655 -21 651 c 0
 -21 650 -20 647 -20 642 c 0
 -20 621 -26 562 -26 420 c 0
 -26 306 -26 303 -30 298 c 0
 -34 294 -57 293 -79 293 c 0
 -98 293 -116 294 -117 295 c 0
 -120 295 -121 300 -121 305 c 0
 -121 316 -119 319 -108 319 c 0
 -103 319 -97 319 -91 319 c 0
 -84 319 -78 320 -75 322 c 0
 -71 326 -69 376 -69 443 c 0
 -69 465 -70 490 -70 513 c 0
 -70 553 -66 597 -66 617 c 0
EndSplineSet
Validated: 1
Colour: faff61
EndChar
StartChar: uniEA15
Encoding: 59925 59925 368
Width: 0
GlyphClass: 4
Flags: W
HStem: 153 26<-269.903 -225.404 -112.596 -68.1428> 490 27<-267.494 -221.404 -104.225 -59.6646>
VStem: -318 44<182.103 489.605> -188 22<182 204> -160 22<449 471> -59 46<182.221 490.999>
DStem2: -188 182 -166 182 0.0964343 0.995339<2.12155 290.353>
AnchorPoint: "Otsechka" -300 168.266 mark 0
LayerCount: 3
Fore
SplineSet
-268 418 m 0
 -268 357 -274 265 -274 221 c 0
 -274 198 -273 184 -270 182 c 0
 -268 180 -262 179 -255 179 c 0
 -249 179 -243 179 -238 179 c 0
 -233 179 -229 179 -228 178 c 0
 -224 175 -223 156 -228 155 c 0
 -230 154 -248 153 -267 153 c 0
 -288 153 -312 154 -315 158 c 0
 -317 160 -318 162 -318 178 c 0
 -318 212 -313 369 -313 408 c 0
 -313 448 -314 474 -314 489 c 0
 -314 502 -313 509 -311 511 c 0
 -309 515 -280 517 -256 517 c 0
 -241 517 -228 517 -224 515 c 0
 -220 513 -219 494 -224 491 c 0
 -226 490 -231 490 -236 490 c 0
 -239 490 -242 490 -245 490 c 2
 -249 490 l 2
 -266 490 -268 490 -268 476 c 0
 -268 471 -268 466 -268 458 c 0
 -268 447 -268 433 -268 418 c 0
-59 477 m 0
 -59 489 -62 491 -70 491 c 0
 -73 491 -77 490 -82 490 c 0
 -85 490 -88 490 -91 490 c 0
 -96 490 -101 490 -102 491 c 0
 -107 494 -106 513 -101 515 c 0
 -98 517 -85 517 -70 517 c 0
 -46 517 -17 515 -14 511 c 0
 -13 510 -13 506 -13 501 c 0
 -13 479 -19 418 -19 280 c 0
 -19 166 -19 163 -23 158 c 0
 -27 154 -50 153 -72 153 c 0
 -91 153 -109 154 -110 155 c 0
 -115 156 -114 175 -110 178 c 0
 -109 179 -105 179 -101 179 c 0
 -96 179 -90 179 -84 179 c 0
 -77 179 -71 180 -68 182 c 0
 -64 186 -62 236 -62 303 c 0
 -62 325 -62 350 -62 373 c 0
 -62 413 -59 457 -59 477 c 0
-160 471 m 1
 -138 471 l 1
 -166 182 l 1
 -188 182 l 1
 -160 471 l 1
EndSplineSet
Validated: 1
Colour: faff61
EndChar
StartChar: uniEA16
Encoding: 59926 59926 369
Width: 0
GlyphClass: 4
Flags: W
HStem: 456 21G<-123 -119.5> 579 89<-79.9366 -14.0547>
VStem: -124 12<457.217 491.728> -12 12<504.42 533.81>
AnchorPoint: "Oblachko" -60 342 mark 0
LayerCount: 3
Fore
SplineSet
-120 403 m 1
 -109 427 -81 448 -59 463 c 0
 -45 472 -30 481 -15 490 c 1
 -28 395 l 1
 -68 372 -113 346 -135 305 c 1
 -120 403 l 1
-42 668 m 0
 -2 668 13 646 13 612 c 0
 13 602 12 590 10 578 c 2
 0 512 l 2
 -1 507 -5 504 -8 504 c 0
 -11 504 -12 510 -12 516 c 0
 -12 522 -11 530 -11 534 c 0
 -11 562 -19 578 -51 579 c 1
 -83 579 -94 536 -102 508 c 0
 -105 495 -109 481 -112 467 c 0
 -113 461 -117 456 -122 456 c 0
 -124 456 -125 459 -124 463 c 2
 -111 550 l 2
 -105 594 -95 638 -67 660 c 0
 -60 665 -51 668 -42 668 c 0
EndSplineSet
Validated: 1
LCarets2: 1 0 
Ligature2: "'ccmp' Precomposed Neumes-1" uniEE53 uniEE58
Colour: faff61
EndChar
StartChar: uniEA17
Encoding: 59927 59927 370
Width: 0
GlyphClass: 4
Flags: W
HStem: 459 21G<-493.709 -485> 630 79<-388.254 -269.019>
VStem: -256 14<597.5 605>
AnchorPoint: "Tonal" -370.5 487.1 mark 0
LayerCount: 3
Fore
SplineSet
-418 496 m 1
 -396 540 -313 583 -313 583 c 1
 -326 488 l 1
 -326 488 -408 447 -433 398 c 1
 -418 496 l 1
-484 538 m 2
 -468 638 -397 709 -307 709 c 0
 -262 709 -242 684 -242 637 c 1
 -256 558 l 1
 -256 605 -276 630 -321 630 c 0
 -415 630 -473 557 -497 459 c 1
 -484 538 l 2
EndSplineSet
Validated: 1
LCarets2: 1 0 
Ligature2: "'ccmp' Precomposed Neumes-1" uniEE50 uniEE58
Colour: faff61
EndChar
StartChar: uniEA18
Encoding: 59928 59928 371
Width: 0
GlyphClass: 4
Flags: W
HStem: 702 79<-400.254 -281.019>
VStem: -268 14<669.5 677>
AnchorPoint: "Tonal" -375 479.9 mark 0
LayerCount: 3
Fore
SplineSet
-345 540 m 1
 -323 584 -240 627 -240 627 c 1
 -253 532 l 1
 -253 532 -335 491 -360 442 c 1
 -345 540 l 1
-498 450 m 1
 -476 494 -393 537 -393 537 c 1
 -406 442 l 1
 -406 442 -488 401 -513 352 c 1
 -498 450 l 1
-496 610 m 2
 -480 710 -409 781 -319 781 c 0
 -274 781 -254 756 -254 709 c 1
 -268 630 l 1
 -268 677 -288 702 -333 702 c 0
 -427 702 -485 629 -509 531 c 1
 -496 610 l 2
EndSplineSet
Validated: 1
Ligature2: "'ccmp' Precomposed Neumes-1" uniEE51 uniEE58
Colour: faff61
EndChar
StartChar: uniEA19
Encoding: 59929 59929 372
Width: 0
GlyphClass: 4
Flags: W
HStem: 655 20G<-202.138 -180.737> 690 79<-420.254 -301.019>
VStem: -288 14<657.5 665>
AnchorPoint: "Tonal" -384 489.1 mark 0
LayerCount: 3
Fore
SplineSet
-435 496 m 1
 -413 540 -330 583 -330 583 c 1
 -343 488 l 1
 -343 488 -425 447 -450 398 c 1
 -435 496 l 1
-283 588 m 1
 -261 632 -178 675 -178 675 c 1
 -191 580 l 1
 -191 580 -273 539 -298 490 c 1
 -283 588 l 1
-588 406 m 1
 -566 450 -483 493 -483 493 c 1
 -496 398 l 1
 -496 398 -578 357 -603 308 c 1
 -588 406 l 1
-516 598 m 2
 -500 698 -429 769 -339 769 c 0
 -294 769 -274 744 -274 697 c 1
 -288 618 l 1
 -288 665 -308 690 -353 690 c 0
 -447 690 -505 617 -529 519 c 1
 -516 598 l 2
EndSplineSet
Validated: 1
Ligature2: "'ccmp' Precomposed Neumes-1" uniEE52 uniEE58
Colour: faff61
EndChar
StartChar: uniEA1A
Encoding: 59930 59930 373
Width: 0
GlyphClass: 4
Flags: W
HStem: 382 261
VStem: -448 135
DStem2: -404 631 -402 518 0.174011 0.984744<-110.928 0>
AnchorPoint: "Tonal" -391.5 488.7 mark 0
LayerCount: 3
Fore
SplineSet
-402 518 m 1
 -370 553 -313 583 -313 583 c 1
 -326 488 l 1
 -326 488 -428 431 -448 382 c 1
 -404 631 l 1
 -381 643 l 1
 -402 518 l 1
EndSplineSet
Validated: 1
Ligature2: "'ccmp' Priznak Composition-1" uniEE50 uniEEE0
Colour: faff61
EndChar
StartChar: uniEA1B
Encoding: 59931 59931 374
Width: 0
GlyphClass: 4
Flags: W
HStem: 398 296
VStem: -433 151
DStem2: -323 577 -315 494 0.162799 0.986659<-8.43983 107.516>
AnchorPoint: "Tonal" -364.5 497.6 mark 0
LayerCount: 3
Fore
SplineSet
-315 494 m 1
 -315 494 -408 447 -433 398 c 1
 -418 496 l 1
 -401 530 -346 564 -323 577 c 1
 -305 683 l 1
 -282 694 l 1
 -315 494 l 1
EndSplineSet
Validated: 1
Ligature2: "'ccmp' Priznak Composition-1" uniEE50 uniEEE1
Colour: faff61
EndChar
StartChar: uniEA1C
Encoding: 59932 59932 375
Width: 0
GlyphClass: 4
Flags: W
HStem: 336 291
VStem: -528 288
DStem2: -484 585 -482 472 0.174011 0.984744<-110.928 0>
AnchorPoint: "Tonal" -376 493.3 mark 0
LayerCount: 3
Fore
SplineSet
-345 540 m 1
 -323 584 -240 627 -240 627 c 1
 -253 532 l 1
 -253 532 -335 491 -360 442 c 1
 -345 540 l 1
-482 472 m 1
 -450 507 -393 537 -393 537 c 1
 -406 442 l 1
 -406 442 -508 385 -528 336 c 1
 -484 585 l 1
 -461 597 l 1
 -482 472 l 1
EndSplineSet
Validated: 1
Ligature2: "'ccmp' Priznak Composition-1" uniEE51 uniEEE0
Colour: faff61
EndChar
StartChar: uniEA1D
Encoding: 59933 59933 376
Width: 0
GlyphClass: 4
Flags: W
VStem: -513 304
DStem2: -250 621 -242 538 0.162799 0.986659<-8.43983 107.516>
AnchorPoint: "Tonal" -374.5 496.2 mark 0
LayerCount: 3
Fore
SplineSet
-498 450 m 1
 -476 494 -393 537 -393 537 c 1
 -406 442 l 1
 -406 442 -488 401 -513 352 c 1
 -498 450 l 1
-242 538 m 1
 -242 538 -335 491 -360 442 c 1
 -345 540 l 1
 -328 574 -273 608 -250 621 c 1
 -232 727 l 1
 -209 738 l 1
 -242 538 l 1
EndSplineSet
Validated: 1
Ligature2: "'ccmp' Priznak Composition-1" uniEE51 uniEEE1
Colour: faff61
EndChar
StartChar: uniEA1E
Encoding: 59934 59934 377
Width: 0
GlyphClass: 4
Flags: W
HStem: 655 20G<-202.138 -180.737>
DStem2: -574 541 -572 428 0.174011 0.984744<-110.928 0> -483 493 -496 398 0.858733 0.512424<44.7363 117.66 221.462 295.331>
AnchorPoint: "Tonal" -391 494.5 mark 0
LayerCount: 3
Fore
SplineSet
-435 496 m 1
 -413 540 -330 583 -330 583 c 1
 -343 488 l 1
 -343 488 -425 447 -450 398 c 1
 -435 496 l 1
-283 588 m 1
 -261 632 -178 675 -178 675 c 1
 -191 580 l 1
 -191 580 -273 539 -298 490 c 1
 -283 588 l 1
-572 428 m 1
 -540 463 -483 493 -483 493 c 1
 -496 398 l 1
 -496 398 -598 341 -618 292 c 1
 -574 541 l 1
 -551 553 l 1
 -572 428 l 1
EndSplineSet
Validated: 1
Ligature2: "'ccmp' Priznak Composition-1" uniEE52 uniEEE0
Colour: faff61
EndChar
StartChar: uniEA1F
Encoding: 59935 59935 378
Width: 0
GlyphClass: 4
Flags: W
DStem2: -188 669 -180 586 0.162799 0.986659<-8.43983 107.516>
AnchorPoint: "Tonal" -390 492 mark 0
LayerCount: 3
Fore
SplineSet
-435 496 m 1
 -413 540 -330 583 -330 583 c 1
 -343 488 l 1
 -343 488 -425 447 -450 398 c 1
 -435 496 l 1
-588 406 m 1
 -566 450 -483 493 -483 493 c 1
 -496 398 l 1
 -496 398 -578 357 -603 308 c 1
 -588 406 l 1
-180 586 m 1
 -180 586 -273 539 -298 490 c 1
 -283 588 l 1
 -266 622 -211 656 -188 669 c 1
 -170 775 l 1
 -147 786 l 1
 -180 586 l 1
EndSplineSet
Validated: 1
Ligature2: "'ccmp' Priznak Composition-1" uniEE52 uniEEE1
Colour: faff61
EndChar
StartChar: uniEA30
Encoding: 59952 59952 380
Width: 0
Flags: W
HStem: 553 300 653 20G<-301.5 -300.5>
DStem2: -631 560 -590 647 0.320142 0.94737<100.106 304.211> -504 589 -490 587 0.279599 0.960117<-6.90983 128.824>
LayerCount: 3
Fore
SplineSet
-456 703 m 0x00
 -463 678 -475 639 -490 587 c 0
 -491 582 -494 580 -498 580 c 0
 -503 580 -505 583 -504 589 c 0
 -497 613 -486 651 -470 704 c 0
 -469 709 -466 711 -462 711 c 0
 -456 711 -454 708 -456 703 c 0x00
-206 813 m 0
 -205 813 -204 812 -204 810 c 0
 -204 799 -218 770 -220 766 c 0
 -229 749 -235 740 -240 738 c 0
 -281 724 -298 718 -326 701 c 0
 -328 699 -330 698 -331 699 c 0
 -332 699 -332 700 -331 703 c 0
 -325 715 -295 770 -287 778 c 0
 -281 785 -271 791 -256 797 c 0
 -253 798 -238 803 -210 812 c 0
 -208 813 -207 813 -206 813 c 0
-301 673 m 0x40
 -300 673 -299 672 -299 670 c 0
 -299 659 -313 630 -315 626 c 0
 -324 609 -330 600 -335 598 c 0
 -376 584 -393 578 -421 561 c 0
 -423 559 -425 558 -426 559 c 0
 -427 559 -427 560 -426 563 c 0
 -420 575 -390 630 -382 638 c 0
 -376 645 -366 651 -351 657 c 0
 -348 658 -333 663 -305 672 c 0
 -303 673 -302 673 -301 673 c 0x40
-514 668 m 0
 -521 641 -528 618 -537 597 c 1
 -541 591 -609 562 -627 554 c 0
 -628 553 -629 553 -630 553 c 0
 -631 554 -632 555 -632 557 c 0
 -632 558 -632 559 -631 560 c 0
 -602 656 -573 756 -540 846 c 0
 -539 851 -536 853 -532 853 c 0x80
 -527 853 -524 850 -524 845 c 0
 -524 844 -524 843 -525 842 c 0
 -538 805 -560 740 -590 647 c 0
 -591 644 -590 642 -589 642 c 0
 -588 641 -585 642 -582 644 c 0
 -566 651 -544 660 -517 671 c 0
 -514 672 -514 670 -514 668 c 0
EndSplineSet
Validated: 1
Colour: 94fff5
EndChar
StartChar: uniEA31
Encoding: 59953 59953 381
Width: 0
Flags: W
HStem: 651 20G<-501.5 -496.5> 661 21G<-378 -371> 668 74<-288.624 -265.176>
DStem2: -613 560 -572 647 0.320142 0.94737<100.106 304.211> -486 589 -472 587 0.279599 0.960117<-6.90983 128.824> -374 566 -354 563 0.347314 0.937749<-12.4729 104.055 192.69 298.88>
LayerCount: 3
Fore
SplineSet
-438 703 m 0x00
 -445 678 -457 639 -472 587 c 0
 -473 582 -476 580 -480 580 c 0
 -485 580 -487 583 -486 589 c 0
 -479 613 -468 651 -452 704 c 0
 -451 709 -448 711 -444 711 c 0
 -438 711 -436 708 -438 703 c 0x00
-339 664 m 1
 -346 663 -367 661 -375 661 c 0
 -378 661 l 2x40
 -378 664 l 1
 -365 704 -356 726 -350 730 c 0
 -346 733 -333 735 -312 738 c 1
 -277 834 l 2
 -274 843 -269 848 -262 848 c 0
 -256 848 -253 845 -253 840 c 0
 -253 838 -253 836 -254 833 c 0
 -256 830 -268 799 -289 740 c 1
 -281 741 -272 742 -265 742 c 0
 -257 742 -252 741 -252 736 c 0
 -252 721 -270 670 -278 668 c 1x20
 -285 668 -298 667 -317 666 c 1
 -354 563 l 2
 -357 554 -361 550 -367 550 c 0
 -375 550 -377 555 -374 566 c 0
 -371 575 -360 607 -339 664 c 1
-571 642 m 0
 -571 642 -571 642 -570 642 c 0
 -563 642 -506 671 -497 671 c 0x80
 -496 671 -496 668 -496 668 c 0x20
 -503 641 -510 618 -519 597 c 1
 -523 591 -591 562 -609 554 c 0
 -610 553 -611 553 -612 553 c 0
 -613 554 -614 555 -614 557 c 0
 -614 558 -614 559 -613 560 c 0
 -584 656 -555 756 -522 846 c 0
 -521 851 -518 853 -514 853 c 0
 -509 853 -506 850 -506 845 c 0
 -506 844 -506 843 -507 842 c 0
 -520 805 -542 740 -572 647 c 0
 -573 644 -572 642 -571 642 c 0
EndSplineSet
Validated: 1
Colour: 94fff5
EndChar
StartChar: uniEA32
Encoding: 59954 59954 382
Width: 0
Flags: W
HStem: 553 300
VStem: -560 102<557 661>
LayerCount: 3
Fore
SplineSet
-368 636 m 0
 -393 622 -417 610 -439 601 c 0
 -443 600 -445 601 -445 604 c 0
 -445 610 -425 669 -423 672 c 0
 -419 677 -361 705 -351 708 c 0
 -348 709 -346 709 -346 706 c 0
 -346 692 -361 640 -368 636 c 0
-453 842 m 0
 -465 809 -487 744 -518 647 c 0
 -519 644 -518 642 -517 642 c 0
 -516 641 -514 642 -510 644 c 0
 -508 645 -492 651 -461 664 c 0
 -459 665 -458 663 -458 661 c 0
 -464 634 -472 611 -481 590 c 0
 -483 585 -542 560 -555 554 c 0
 -556 553 -557 553 -558 553 c 0
 -559 554 -560 555 -560 557 c 0
 -560 558 -560 559 -559 560 c 0
 -530 656 -501 756 -468 846 c 0
 -467 851 -464 853 -460 853 c 0
 -455 853 -452 850 -452 845 c 0
 -452 844 -452 843 -453 842 c 0
EndSplineSet
Validated: 1
Colour: 94fff5
EndChar
StartChar: uniEA33
Encoding: 59955 59955 383
Width: 0
Flags: W
HStem: 463 300
DStem2: -291 470 -250 557 0.320142 0.947369<100.106 304.211> -164 499 -150 497 0.279599 0.960117<-6.90983 125.989>
LayerCount: 3
Fore
SplineSet
-116 613 m 0
 -123 588 -135 549 -150 497 c 0
 -151 492 -154 490 -158 490 c 0
 -163 490 -165 493 -164 499 c 0
 -157 523 -146 561 -130 614 c 0
 -129 619 -126 621 -122 621 c 0
 -118 621 -115 619 -115 616 c 0
 -115 615 -116 614 -116 613 c 0
-174 578 m 0
 -181 551 -188 528 -197 507 c 1
 -201 501 -269 471 -287 463 c 0
 -288 462 -289 463 -290 463 c 0
 -291 464 -292 465 -292 467 c 0
 -292 468 -292 469 -291 470 c 0
 -262 566 -233 666 -200 756 c 0
 -199 761 -196 763 -192 763 c 0
 -187 763 -184 760 -184 755 c 0
 -184 754 -184 753 -185 752 c 0
 -198 715 -220 650 -250 557 c 0
 -251 554 -250 552 -249 552 c 0
 -248 551 -245 552 -242 554 c 0
 -226 561 -204 570 -177 581 c 0
 -174 582 -174 580 -174 578 c 0
EndSplineSet
Validated: 1
Colour: 94fff5
EndChar
StartChar: uniEA34
Encoding: 59956 59956 384
Width: 0
Flags: W
HStem: 553 300
DStem2: -633 560 -592 647 0.320142 0.94737<100.106 304.211> -506 589 -492 587 0.279599 0.960117<-6.90983 128.824> -408 560 -367 647 0.320142 0.94737<100.106 304.211> -281 589 -267 587 0.279599 0.960117<-6.90983 125.989>
LayerCount: 3
Fore
SplineSet
-458 703 m 0
 -465 678 -477 639 -492 587 c 0
 -493 582 -496 580 -500 580 c 0
 -505 580 -507 583 -506 589 c 0
 -499 613 -488 651 -472 704 c 0
 -471 709 -468 711 -464 711 c 0
 -458 711 -456 708 -458 703 c 0
-516 668 m 0
 -523 641 -530 618 -539 597 c 1
 -543 591 -611 561 -629 553 c 0
 -630 552 -631 553 -632 553 c 0
 -633 554 -634 555 -634 557 c 0
 -634 558 -634 559 -633 560 c 0
 -604 656 -575 756 -542 846 c 0
 -541 851 -538 853 -534 853 c 0
 -529 853 -526 850 -526 845 c 0
 -526 844 -526 843 -527 842 c 0
 -540 805 -562 740 -592 647 c 0
 -593 644 -592 642 -591 642 c 0
 -590 641 -587 642 -584 644 c 0
 -568 651 -546 660 -519 671 c 0
 -516 672 -516 670 -516 668 c 0
-233 703 m 0
 -240 678 -252 639 -267 587 c 0
 -268 582 -271 580 -275 580 c 0
 -280 580 -282 583 -281 589 c 0
 -274 613 -263 651 -247 704 c 0
 -246 709 -243 711 -239 711 c 0
 -234 711 -232 709 -232 706 c 0
 -232 705 -232 704 -233 703 c 0
-291 668 m 0
 -298 641 -305 618 -314 597 c 1
 -318 591 -386 561 -404 553 c 0
 -405 552 -406 553 -407 553 c 0
 -408 554 -409 555 -409 557 c 0
 -408 558 -408 559 -408 560 c 0
 -379 656 -350 756 -317 846 c 0
 -316 851 -313 853 -309 853 c 0
 -304 853 -301 850 -301 845 c 0
 -301 844 -301 843 -302 842 c 0
 -315 805 -337 740 -367 647 c 0
 -368 644 -367 642 -366 642 c 0
 -365 641 -362 642 -359 644 c 0
 -343 651 -321 660 -294 671 c 0
 -292 672 -291 670 -291 668 c 0
EndSplineSet
Validated: 1
Colour: 94fff5
EndChar
StartChar: uniEA35
Encoding: 59957 59957 385
Width: 0
Flags: W
HStem: 616 72<-253.192 -228.613 -221 -195.526> 643 20G<-495.5 -494.5> 762 97<-155.56 -83.3888> 778 81<-165.824 -105.394>
DStem2: -810 560 -769 647 0.320142 0.94737<100.106 304.211> -683 589 -669 587 0.279599 0.960117<-6.90983 128.824> -265 609 -266 560 0.350149 0.936694<-0.11419 0 87.266 143.155>
LayerCount: 3
Fore
SplineSet
-635 703 m 0x00
 -642 678 -654 639 -669 587 c 0
 -670 582 -673 580 -677 580 c 0
 -682 580 -684 583 -683 589 c 0
 -676 613 -665 651 -649 704 c 0
 -648 709 -645 711 -641 711 c 0
 -635 711 -633 708 -635 703 c 0x00
-693 668 m 0
 -700 641 -707 618 -716 597 c 1
 -720 591 -788 562 -806 554 c 0
 -807 553 -808 553 -809 553 c 0
 -810 554 -811 555 -811 557 c 0
 -811 558 -811 559 -810 560 c 0
 -781 656 -752 756 -719 846 c 0
 -718 851 -715 853 -711 853 c 0
 -706 853 -703 850 -703 845 c 0
 -703 844 -703 843 -704 842 c 0
 -717 805 -739 740 -769 647 c 0
 -770 644 -769 642 -768 642 c 0
 -767 641 -764 642 -761 644 c 0
 -745 651 -723 660 -696 671 c 0
 -693 672 -693 670 -693 668 c 0
-177 922 m 0
 -181 904 -195 854 -206 849 c 0
 -243 834 -273 819 -295 802 c 0
 -298 800 -299 799 -300 799 c 0
 -301 799 -301 801 -301 803 c 0
 -301 819 -267 884 -264 888 c 0
 -256 898 -245 906 -231 913 c 0
 -224 917 -208 923 -185 931 c 0
 -183 932 -181 932 -180 932 c 0
 -176 932 -175 929 -177 922 c 0
-105 762 m 0x20
 -113 762 -147 778 -156 778 c 0x10
 -192 776 -308 719 -340 698 c 0
 -396 658 -430 624 -485 559 c 0
 -491 552 -494 549 -496 549 c 0
 -497 549 -497 550 -497 551 c 0
 -497 556 -493 567 -486 581 c 0
 -473 610 -451 640 -422 671 c 0
 -362 734 -274 793 -182 831 c 0
 -151 844 -126 854 -105 859 c 0
 -104 859 l 0
 -93 859 -60 842 -60 834 c 0
 -60 829 -64 818 -74 800 c 0
 -84 780 -92 768 -97 765 c 0
 -99 763 -102 762 -105 762 c 0x20
-185 688 m 0x80
 -183 688 -182 686 -182 683 c 0
 -182 666 -203 616 -209 616 c 0
 -221 615 -234 614 -248 611 c 1
 -253 595 -259 578 -266 560 c 0
 -269 550 -281 543 -281 557 c 0
 -281 573 -266 607 -265 609 c 1
 -278 608 -290 606 -301 602 c 0
 -306 600 -306 602 -305 607 c 0
 -292 647 -282 669 -276 674 c 0
 -271 678 -258 681 -238 683 c 1
 -233 698 -227 715 -220 732 c 0
 -217 741 -212 745 -207 745 c 0
 -203 745 -201 743 -201 738 c 0
 -201 736 -201 734 -202 731 c 0
 -209 713 -215 698 -221 685 c 1
 -209 687 -199 688 -191 688 c 0
 -189 688 -187 688 -185 688 c 0x80
-390 803 m 0
 -389 803 -388 802 -388 800 c 0
 -388 789 -402 760 -404 756 c 0
 -413 739 -419 730 -424 728 c 0
 -465 714 -482 708 -510 691 c 0
 -512 689 -514 688 -515 689 c 0
 -516 689 -516 690 -515 693 c 0
 -509 705 -479 760 -471 768 c 0
 -465 775 -455 781 -440 787 c 0
 -437 788 -422 793 -394 802 c 0
 -392 803 -391 803 -390 803 c 0
-495 663 m 0x40
 -494 663 -493 662 -493 660 c 0
 -493 649 -507 620 -509 616 c 0x80
 -518 599 -524 590 -529 588 c 0
 -570 574 -587 568 -615 551 c 0
 -617 549 -619 548 -620 548 c 0
 -620 548 -621 548 -621 549 c 0
 -621 550 -620 551 -620 553 c 0
 -614 565 -584 620 -576 628 c 0
 -570 635 -560 641 -545 647 c 0
 -542 648 -527 653 -499 662 c 0
 -497 663 -496 663 -495 663 c 0x40
EndSplineSet
Validated: 1
Colour: 94fff5
EndChar
StartChar: uniEA36
Encoding: 59958 59958 386
Width: 0
Flags: W
HStem: 553 300 653 20G<-423.5 -418.5 -205.5 -204.5>
DStem2: -750 560 -709 647 0.320142 0.94737<100.106 304.211> -623 589 -609 587 0.279599 0.960117<-6.90983 125.989> -535 560 -494 647 0.320142 0.94737<100.106 304.211> -408 589 -394 587 0.279599 0.960117<-6.90983 128.824>
LayerCount: 3
Fore
SplineSet
-360 703 m 0x00
 -367 678 -379 639 -394 587 c 0
 -395 582 -398 580 -402 580 c 0
 -407 580 -409 583 -408 589 c 0
 -401 613 -390 651 -374 704 c 0
 -373 709 -370 711 -366 711 c 0
 -360 711 -358 708 -360 703 c 0x00
-110 813 m 0
 -109 813 -108 812 -108 810 c 0
 -108 799 -122 770 -124 766 c 0
 -133 749 -139 740 -144 738 c 0
 -185 724 -202 718 -230 701 c 0
 -232 699 -234 698 -235 699 c 0
 -236 699 -236 700 -235 703 c 0
 -229 715 -199 770 -191 778 c 0
 -185 785 -175 791 -160 797 c 0
 -157 798 -142 803 -114 812 c 0
 -112 813 -111 813 -110 813 c 0
-205 673 m 0x40
 -204 673 -203 672 -203 670 c 0
 -203 659 -217 630 -219 626 c 0
 -228 609 -234 600 -239 598 c 0
 -280 584 -297 578 -325 561 c 0
 -327 559 -329 558 -330 559 c 0
 -331 559 -331 560 -330 563 c 0
 -324 575 -294 630 -286 638 c 0
 -280 645 -270 651 -255 657 c 0
 -252 658 -237 663 -209 672 c 0
 -207 673 -206 673 -205 673 c 0x40
-493 642 m 0
 -493 642 -493 642 -492 642 c 0
 -485 642 -428 671 -419 671 c 0
 -418 671 -418 668 -418 668 c 0
 -425 641 -432 618 -441 597 c 1
 -445 591 -513 562 -531 554 c 0
 -532 553 -533 553 -534 553 c 0
 -535 554 -536 555 -536 557 c 0
 -535 558 -535 559 -535 560 c 0
 -506 656 -477 756 -444 846 c 0
 -443 851 -440 853 -436 853 c 0x80
 -431 853 -428 850 -428 845 c 0
 -428 844 -428 843 -429 842 c 0
 -442 805 -464 740 -494 647 c 0
 -495 644 -494 642 -493 642 c 0
-575 703 m 0
 -582 678 -594 639 -609 587 c 0
 -610 582 -613 580 -617 580 c 0
 -622 580 -624 583 -623 589 c 0
 -616 613 -605 651 -589 704 c 0
 -588 709 -585 711 -581 711 c 0
 -576 711 -574 709 -574 706 c 0
 -574 705 -574 704 -575 703 c 0
-633 668 m 0
 -640 641 -647 618 -656 597 c 1
 -660 591 -728 562 -746 554 c 0
 -747 553 -748 553 -749 553 c 0
 -750 554 -751 555 -751 557 c 0
 -751 558 -751 559 -750 560 c 0
 -721 656 -692 756 -659 846 c 0
 -658 851 -655 853 -651 853 c 0
 -646 853 -643 850 -643 845 c 0
 -643 844 -643 843 -644 842 c 0
 -657 805 -679 740 -709 647 c 0
 -710 644 -709 642 -708 642 c 0
 -707 641 -704 642 -701 644 c 0
 -685 651 -663 660 -636 671 c 0
 -633 672 -633 670 -633 668 c 0
EndSplineSet
Validated: 1
Colour: 94fff5
EndChar
StartChar: uniEA37
Encoding: 59959 59959 387
Width: 0
Flags: W
HStem: 607 76<-211.656 -153.881>
VStem: -226 34<683.2 703.233>
DStem2: -164 831 -194 758 0.931457 0.363852<-112.871 -21.7554 59.0272 147.953>
LayerCount: 3
Fore
SplineSet
-3 878 m 0
 -17 838 -29 816 -39 813 c 0
 -60 806 -89 793 -125 775 c 0
 -127 774 -129 773 -130 773 c 0
 -131 774 -131 775 -130 777 c 0
 -116 811 -101 836 -86 853 c 0
 -79 861 -53 872 -9 886 c 0
 -7 887 -5 887 -4 887 c 0
 -2 887 0 886 0 884 c 0
 0 883 -2 881 -3 878 c 0
-158 823 m 0
 -172 783 -184 761 -194 758 c 0
 -215 751 -244 738 -280 720 c 0
 -282 719 -284 718 -285 718 c 0
 -286 719 -286 720 -285 722 c 0
 -271 756 -256 781 -241 798 c 0
 -234 806 -208 817 -164 831 c 0
 -162 832 -160 832 -159 832 c 0
 -156 832 -156 828 -158 823 c 0
-102 758 m 0
 -99 758 -98 755 -98 751 c 0
 -98 728 -137 650 -137 650 c 1
 -153 624 -174 607 -199 607 c 0
 -217 607 -226 619 -226 643 c 0
 -226 675 -209 709 -196 722 c 0
 -193 725 -192 724 -192 721 c 0
 -192 718 -192 715 -192 713 c 0
 -192 694 -186 683 -172 683 c 0
 -167 683 -161 686 -154 689 c 0
 -141 696 -126 718 -109 753 c 0
 -107 756 -105 758 -102 758 c 0
-263 683 m 0
 -277 643 -289 621 -299 618 c 0
 -320 611 -349 598 -385 580 c 0
 -387 579 -389 578 -390 578 c 0
 -391 578 -391 579 -391 580 c 0
 -391 580 -391 581 -390 582 c 0
 -376 616 -361 641 -346 658 c 0
 -339 666 -313 677 -269 691 c 0
 -267 692 -265 692 -264 692 c 0
 -262 692 -262 691 -262 689 c 0
 -262 688 -262 686 -263 683 c 0
EndSplineSet
Validated: 1
Colour: 94fff5
EndChar
StartChar: uniEA38
Encoding: 59960 59960 388
Width: 0
Flags: W
HStem: 599 71<-556.663 -511.014> 752 96<-462.398 -390.094>
VStem: -569 25<628 690>
DStem2: -350 630 -309 717 0.303335 0.952884<89.9411 346.951> -302 713 -346 624 0.919145 0.393919<-6.25934 24.2487 44.6442 54.2296 92.7037 127.304 170.83 171.749 218.012 252.612>
LayerCount: 3
Fore
SplineSet
-45 758 m 0
 -70 744 -94 732 -117 723 c 0
 -120 722 -122 722 -122 725 c 0
 -122 731 -102 791 -100 794 c 0
 -94 803 -70 815 -29 830 c 0
 -25 831 -23 831 -23 828 c 0
 -23 789 -43 759 -45 758 c 0
-159 706 m 0
 -185 692 -209 680 -231 671 c 0
 -235 670 -237 670 -237 673 c 0
 -237 679 -216 739 -214 742 c 0
 -209 751 -185 763 -143 778 c 0
 -139 779 -137 778 -137 776 c 0
 -137 737 -157 707 -159 706 c 0
-231 950 m 0
 -246 911 -272 834 -309 717 c 0
 -310 714 -310 712 -308 711 c 0
 -307 711 -306 712 -302 713 c 0
 -300 714 -283 721 -252 734 c 1
 -249 731 l 1
 -256 704 -263 681 -272 660 c 1
 -295 649 -319 637 -346 624 c 0
 -348 623 -349 625 -350 630 c 1
 -329 702 -294 810 -247 955 c 0
 -245 960 -242 962 -238 962 c 0
 -233 962 -230 960 -230 956 c 0
 -230 954 -230 952 -231 950 c 0
-460 726 m 0
 -464 708 -473 685 -488 657 c 0
 -508 618 -527 599 -546 599 c 0
 -561 599 -569 609 -569 628 c 0
 -569 653 -562 676 -549 699 c 0
 -542 711 -544 696 -544 690 c 0
 -544 678 -535 670 -524 670 c 0
 -521 670 -517 671 -514 673 c 0
 -498 680 -481 698 -464 727 c 0
 -463 730 -462 731 -461 731 c 0
 -460 732 -460 732 -459 731 c 0
 -459 730 -459 728 -460 726 c 0
-398 752 m 0
 -405 752 -438 767 -447 767 c 0
 -448 767 l 0
 -463 767 -495 756 -543 735 c 0
 -603 708 -659 670 -712 621 c 0
 -725 608 -747 584 -777 549 c 0
 -783 542 -787 539 -789 539 c 0
 -789 539 -790 540 -790 541 c 0
 -790 545 -785 556 -779 570 c 0
 -766 599 -744 630 -714 661 c 0
 -676 701 -629 738 -572 772 c 0
 -509 809 -451 835 -398 848 c 0
 -397 848 -396 848 -395 848 c 0
 -383 848 -352 831 -352 823 c 0
 -352 809 -387 756 -390 754 c 0
 -392 753 -395 752 -398 752 c 0
EndSplineSet
Validated: 1
Colour: 94fff5
EndChar
StartChar: uniEA39
Encoding: 59961 59961 389
Width: 0
Flags: W
HStem: 579 71<-121.758 -76.1019> 781 73<-4.43956 73.3931>
VStem: -134 24<598.5 671>
LayerCount: 3
Fore
SplineSet
-25 706 m 1
 -29 688 -38 665 -53 637 c 0
 -73 598 -92 579 -111 579 c 0
 -126 579 -134 589 -134 608 c 0
 -134 633 -128 656 -115 679 c 0
 -113 682 -111 684 -109 683 c 0
 -107 682 -110 672 -110 670 c 0
 -110 658 -101 650 -90 650 c 0
 -86 650 -82 651 -79 653 c 0
 -64 660 -47 678 -30 707 c 0
 -29 710 -27 711 -26 711 c 0
 -25 712 -25 712 -25 711 c 2
 -25 706 l 1
88 832 m 0
 88 819 58 768 45 768 c 0
 42 768 38 770 32 774 c 0
 27 779 20 781 11 781 c 0
 -12 781 -62 759 -138 715 c 1
 -249 652 -327 598 -372 552 c 0
 -373 552 -373 552 -374 552 c 0
 -375 552 -376 552 -376 553 c 0
 -373 562 -337 632 -268 761 c 0
 -263 770 -259 774 -256 774 c 0
 -250 774 -245 767 -249 760 c 0
 -261 743 -277 712 -298 669 c 1
 -273 686 -214 723 -119 780 c 1
 -61 813 -0 837 63 853 c 0
 66 854 69 854 71 854 c 0
 82 854 88 847 88 832 c 0
EndSplineSet
Validated: 1
Colour: 94fff5
EndChar
StartChar: uniEA3A
Encoding: 59962 59962 390
Width: 0
Flags: W
HStem: 599 71<-556.663 -511.014> 662 21G<-344.5 -341.5> 752 96<-462.398 -390.094> 889 97<32.3946 90.8601>
VStem: -569 25<628 690> -91 112<742 863>
LayerCount: 3
Fore
SplineSet
-460 726 m 0xbc
 -464 708 -473 685 -488 657 c 0
 -508 618 -527 599 -546 599 c 0
 -561 599 -569 609 -569 628 c 0
 -569 653 -562 676 -549 699 c 0
 -542 711 -544 696 -544 690 c 0
 -544 678 -535 670 -524 670 c 0
 -521 670 -517 671 -514 673 c 0
 -498 680 -481 698 -464 727 c 0
 -463 730 -462 731 -461 731 c 0
 -460 732 -460 732 -459 731 c 0
 -459 730 -459 728 -460 726 c 0xbc
-398 752 m 0
 -405 752 -438 767 -447 767 c 0
 -448 767 l 0
 -463 767 -495 756 -543 735 c 0
 -603 708 -659 670 -712 621 c 0
 -725 608 -747 584 -777 549 c 0
 -783 542 -787 539 -789 539 c 0
 -789 539 -790 540 -790 541 c 0
 -790 545 -785 556 -779 570 c 0
 -766 599 -744 630 -714 661 c 0
 -676 701 -629 738 -572 772 c 0
 -509 809 -451 835 -398 848 c 0
 -397 848 -396 848 -395 848 c 0
 -383 848 -352 831 -352 823 c 0
 -352 809 -387 756 -390 754 c 0
 -392 753 -395 752 -398 752 c 0
17 872 m 0
 20 872 21 868 21 863 c 0
 21 850 15 826 13 820 c 0
 8 801 4 791 -1 789 c 0
 -36 774 -64 759 -85 742 c 0
 -87 740 -89 739 -90 740 c 0
 -91 740 -91 741 -91 742 c 0
 -91 762 -70 819 -63 828 c 0
 -56 838 -46 846 -33 853 c 0
 -26 857 -11 863 12 871 c 0
 14 872 16 872 17 872 c 0
-117 803 m 0
 -114 803 -113 799 -113 794 c 0
 -113 781 -119 757 -121 751 c 0
 -126 732 -130 722 -135 720 c 0
 -170 705 -198 690 -219 673 c 0
 -222 671 -223 670 -224 671 c 0
 -225 671 -226 672 -226 675 c 0
 -223 690 -204 749 -197 759 c 0
 -190 769 -180 777 -167 784 c 0
 -160 788 -145 794 -122 802 c 0
 -120 803 -118 803 -117 803 c 0
83 889 m 0
 75 889 40 905 32 905 c 0
 15 903 -63 867 -80 858 c 0
 -136 827 -197 786 -262 735 c 0
 -272 728 -284 717 -298 704 c 0
 -312 690 -339 662 -344 662 c 0x7c
 -345 662 -345 663 -345 664 c 0
 -345 668 -341 678 -334 693 c 0
 -323 716 -301 742 -266 771 c 0
 -198 829 -103 895 -5 947 c 0
 37 969 66 982 82 986 c 0
 83 986 l 0
 95 986 128 970 128 961 c 0
 128 948 93 894 91 892 c 0
 88 890 86 889 83 889 c 0
EndSplineSet
Validated: 1
Colour: 94fff5
EndChar
StartChar: uniEA3B
Encoding: 59963 59963 391
Width: 0
Flags: W
HStem: 755 109<-575.5 -482.664>
VStem: -514 57<692 827.5>
DStem2: -396 650 -355 737 0.303336 0.952884<89.6517 346.648> -349 733 -393 644 0.919665 0.392704<-6.25933 25.1818 45.651 55.1497 92.7562 128.306 170.913 172.672 218.896 253.569>
LayerCount: 3
Fore
SplineSet
-69 846 m 0
 -76 805 -84 782 -91 778 c 0
 -117 764 -141 752 -163 743 c 0
 -167 742 -169 742 -169 745 c 0
 -169 751 -148 811 -146 814 c 0
 -141 823 -117 835 -75 850 c 0
 -70 851 -69 850 -69 846 c 0
-183 794 m 0
 -190 753 -198 730 -205 726 c 0
 -231 712 -255 700 -277 691 c 0
 -281 690 -283 690 -283 693 c 0
 -283 699 -263 759 -261 762 c 0
 -255 771 -231 783 -189 798 c 0
 -184 799 -183 798 -183 794 c 0
-278 970 m 0
 -292 931 -318 854 -355 737 c 0
 -356 734 -356 732 -355 731 c 0
 -354 731 -352 732 -349 733 c 0
 -346 734 -329 741 -298 754 c 0
 -297 753 -297 752 -296 751 c 0
 -302 724 -309 701 -318 680 c 1
 -341 669 -366 657 -393 644 c 0
 -395 643 -396 645 -396 650 c 1
 -375 722 -341 830 -293 975 c 0
 -291 980 -288 982 -285 982 c 0
 -279 982 -277 980 -277 976 c 0
 -277 974 -277 972 -278 970 c 0
-514 700 m 0
 -514 731 -531 755 -564 755 c 0
 -587 755 -604 746 -616 728 c 0
 -623 718 -627 713 -630 713 c 0
 -631 714 -631 715 -631 716 c 0
 -631 718 -630 721 -628 726 c 0
 -617 755 -602 784 -585 811 c 0
 -563 846 -535 864 -502 864 c 0
 -472 864 -457 846 -457 809 c 0
 -457 738 -509 632 -546 555 c 0
 -551 544 -557 539 -563 539 c 0
 -564 539 l 0
 -571 539 -575 547 -572 554 c 0
 -564 568 -556 583 -549 600 c 0
 -526 651 -514 684 -514 700 c 0
EndSplineSet
Validated: 1
Colour: 94fff5
EndChar
StartChar: uniEA3C
Encoding: 59964 59964 392
Width: 0
Flags: W
HStem: 449 21G<-830 -828> 509 71<-596.663 -551.014> 662 96<-502.398 -430.094> 669 21G<-360 -358> 729 71<-126.663 -81.0139> 882 96<-32.3982 39.9055>
VStem: -609 25<538 600> -139 25<758 820>
LayerCount: 3
Fore
SplineSet
-30 856 m 0xcf
 -34 838 -43 815 -58 787 c 0
 -78 748 -97 729 -116 729 c 0xcf
 -131 729 -139 739 -139 758 c 0xe7
 -139 783 -132 806 -119 829 c 0
 -112 841 -114 826 -114 820 c 0
 -114 808 -105 800 -94 800 c 0
 -91 800 -87 801 -84 803 c 0
 -68 810 -51 828 -34 857 c 0
 -33 860 -32 861 -31 861 c 0
 -30 862 -30 862 -29 861 c 0
 -29 860 -29 858 -30 856 c 0xcf
32 882 m 0
 25 882 -8 897 -17 897 c 0
 -18 897 l 0
 -33 897 -65 886 -113 865 c 0
 -173 839 -229 801 -282 751 c 0
 -295 738 -317 714 -347 679 c 0
 -353 672 -357 669 -359 669 c 0xd7
 -359 669 -360 670 -360 671 c 0
 -360 675 -355 686 -349 700 c 0
 -336 729 -314 760 -284 791 c 0
 -246 831 -199 868 -142 902 c 0
 -79 939 -21 965 32 978 c 0
 33 978 34 978 35 978 c 0
 47 978 78 961 78 953 c 0
 78 939 43 886 40 884 c 0
 38 883 35 882 32 882 c 0
-500 636 m 0
 -504 618 -513 595 -528 567 c 0
 -548 528 -567 509 -586 509 c 0
 -601 509 -609 519 -609 538 c 0
 -609 563 -602 586 -589 609 c 0
 -582 621 -584 606 -584 600 c 0
 -584 588 -575 580 -564 580 c 0
 -561 580 -557 581 -554 583 c 0
 -538 590 -521 608 -504 637 c 0
 -503 640 -502 641 -501 641 c 0
 -500 642 -500 642 -499 641 c 0
 -499 640 -499 638 -500 636 c 0
-438 662 m 0xe7
 -445 662 -478 677 -487 677 c 0
 -488 677 l 0
 -503 677 -535 666 -583 645 c 0
 -643 618 -699 580 -752 531 c 0
 -765 518 -787 494 -817 459 c 0
 -823 452 -827 449 -829 449 c 0
 -829 449 -830 450 -830 451 c 0
 -830 455 -825 466 -819 480 c 0
 -806 509 -784 540 -754 571 c 0
 -716 611 -669 648 -612 682 c 0
 -549 719 -491 745 -438 758 c 0
 -437 758 -436 758 -435 758 c 0
 -423 758 -392 741 -392 733 c 0
 -392 719 -427 666 -430 664 c 0
 -432 663 -435 662 -438 662 c 0xe7
EndSplineSet
Validated: 1
Colour: 94fff5
EndChar
StartChar: uniEA3D
Encoding: 59965 59965 393
Width: 0
Flags: W
HStem: -7 71<288.337 333.98> 152 97<-42.56 29.6112> 168 81<-52.8237 7.60615> 195 73<406.08 483.923>
VStem: -225 112<184 305> -91 112<253 374> 276 25<22 84>
LayerCount: 3
Fore
SplineSet
8 152 m 0xce
 -0 152 -34 168 -43 168 c 0xae
 -79 166 -195 109 -226 88 c 0
 -283 48 -317 14 -372 -51 c 0
 -378 -58 -381 -61 -383 -61 c 0
 -384 -61 -384 -60 -384 -59 c 0
 -384 -54 -380 -43 -373 -29 c 0
 -360 -0 -338 30 -309 61 c 0
 -249 124 -161 183 -69 221 c 0
 -38 234 -13 244 8 249 c 0
 9 249 l 0
 20 249 53 232 53 224 c 0
 53 219 49 208 40 190 c 0
 28 170 21 158 16 155 c 0
 14 153 11 152 8 152 c 0xce
-277 193 m 0
 -276 193 -275 192 -275 190 c 0
 -275 179 -289 150 -291 146 c 0
 -300 129 -306 120 -311 118 c 0
 -352 104 -369 98 -397 81 c 0
 -399 79 -401 78 -402 79 c 0
 -403 79 -403 80 -402 83 c 0
 -396 95 -366 150 -358 158 c 0
 -352 165 -342 171 -327 177 c 0
 -324 178 -309 183 -281 192 c 0
 -279 193 -278 193 -277 193 c 0
-382 53 m 0
 -381 53 -380 52 -380 50 c 0
 -380 39 -394 10 -396 6 c 0
 -405 -11 -411 -20 -416 -22 c 0
 -457 -36 -474 -42 -502 -59 c 0
 -504 -61 -506 -62 -507 -62 c 0
 -508 -62 -508 -62 -508 -61 c 0
 -508 -60 -508 -59 -507 -57 c 0
 -501 -45 -471 10 -463 18 c 0
 -457 25 -447 31 -432 37 c 0
 -429 38 -414 43 -386 52 c 0
 -384 53 -383 53 -382 53 c 0
17 383 m 0
 20 383 21 379 21 374 c 0
 21 361 15 337 13 331 c 0
 8 312 4 302 -1 300 c 0
 -36 285 -64 270 -85 253 c 0
 -87 251 -89 250 -90 251 c 0
 -91 251 -91 252 -91 253 c 0
 -91 273 -70 330 -63 339 c 0
 -56 349 -46 357 -33 364 c 0
 -26 368 -11 374 12 382 c 0
 14 383 16 383 17 383 c 0
-117 314 m 0
 -114 314 -113 310 -113 305 c 0
 -113 292 -119 268 -121 262 c 0
 -126 243 -130 233 -135 231 c 0
 -170 216 -198 201 -219 184 c 0
 -221 182 -223 181 -224 182 c 0
 -224 182 -225 183 -225 184 c 0
 -225 191 -216 220 -212 232 c 0
 -199 270 -197 280 -167 295 c 0
 -160 299 -145 305 -122 313 c 0
 -120 314 -118 314 -117 314 c 0
385 120 m 0
 381 102 372 79 357 51 c 0
 337 12 318 -7 299 -7 c 0
 284 -7 276 3 276 22 c 0
 276 47 283 70 296 93 c 0
 303 105 301 90 301 84 c 0
 301 72 310 64 321 64 c 0
 324 64 328 65 331 67 c 0
 347 74 363 92 380 121 c 0
 382 124 383 125 384 125 c 0
 385 126 385 126 386 125 c 0
 386 124 386 122 385 120 c 0
498 246 m 0
 498 233 468 182 455 182 c 0
 452 182 448 184 443 188 c 0
 438 193 430 195 421 195 c 0
 398 195 349 173 272 129 c 0
 161 66 83 12 39 -34 c 0
 38 -34 38 -34 37 -34 c 0
 36 -34 35 -34 34 -33 c 1
 37 -24 74 46 143 175 c 0
 148 184 152 188 155 188 c 0
 161 188 165 180 161 174 c 0
 149 157 133 126 112 83 c 1
 137 100 196 137 291 194 c 1
 350 227 411 251 474 267 c 0
 477 268 480 268 482 268 c 0x9e
 493 268 498 261 498 246 c 0
EndSplineSet
Validated: 1
Colour: 94fff5
EndChar
StartChar: uniEA3E
Encoding: 59966 59966 394
Width: 0
Flags: W
HStem: 152 97<-42.56 29.6112> 168 81<-52.8237 7.60615>
VStem: -225 112<184 305> -91 112<253 374>
DStem2: 256 222 226 148 0.94437 0.328885<-103.049 -22.5298 60.1853 140.984>
LayerCount: 3
Fore
SplineSet
8 152 m 0xb0
 -0 152 -34 168 -43 168 c 0x70
 -79 166 -195 109 -226 88 c 0
 -283 48 -317 14 -372 -51 c 0
 -378 -58 -381 -61 -383 -61 c 0
 -384 -61 -384 -60 -384 -59 c 0
 -384 -54 -380 -43 -373 -29 c 0
 -360 -0 -338 30 -309 61 c 0
 -249 124 -161 183 -69 221 c 0
 -38 234 -13 244 8 249 c 0
 9 249 l 0
 20 249 53 232 53 224 c 0
 53 219 49 208 40 190 c 0
 28 170 21 158 16 155 c 0
 14 153 11 152 8 152 c 0xb0
-277 193 m 0
 -276 193 -275 192 -275 190 c 0
 -275 179 -289 150 -291 146 c 0
 -300 129 -306 120 -311 118 c 0
 -352 104 -369 98 -397 81 c 0
 -399 79 -401 78 -402 79 c 0
 -403 79 -403 80 -402 83 c 0
 -396 95 -366 150 -358 158 c 0
 -352 165 -342 171 -327 177 c 0
 -324 178 -309 183 -281 192 c 0
 -279 193 -278 193 -277 193 c 0
-382 53 m 0
 -381 53 -380 52 -380 50 c 0
 -380 39 -394 10 -396 6 c 0
 -405 -11 -411 -20 -416 -22 c 0
 -457 -36 -474 -42 -502 -59 c 0
 -504 -61 -506 -62 -507 -62 c 0
 -508 -62 -508 -62 -508 -61 c 0
 -508 -60 -508 -59 -507 -57 c 0
 -501 -45 -471 10 -463 18 c 0
 -457 25 -447 31 -432 37 c 0
 -429 38 -414 43 -386 52 c 0
 -384 53 -383 53 -382 53 c 0
17 383 m 0
 20 383 21 379 21 374 c 0
 21 361 15 337 13 331 c 0
 8 312 4 302 -1 300 c 0
 -36 285 -64 270 -85 253 c 0
 -87 251 -89 250 -90 251 c 0
 -91 251 -91 252 -91 253 c 0
 -91 273 -70 330 -63 339 c 0
 -56 349 -46 357 -33 364 c 0
 -26 368 -11 374 12 382 c 0
 14 383 16 383 17 383 c 0
-117 314 m 0
 -114 314 -113 310 -113 305 c 0
 -113 292 -119 268 -121 262 c 0
 -126 243 -130 233 -135 231 c 0
 -170 216 -198 201 -219 184 c 0
 -221 182 -223 181 -224 182 c 0
 -224 182 -225 183 -225 184 c 0
 -225 191 -216 220 -212 232 c 0
 -199 270 -197 280 -167 295 c 0
 -160 299 -145 305 -122 313 c 0
 -120 314 -118 314 -117 314 c 0
415 278 m 0
 416 278 417 277 417 275 c 0
 417 264 403 235 401 231 c 0
 392 214 386 205 381 203 c 0
 340 189 323 183 295 166 c 0
 293 164 291 163 290 164 c 0
 289 164 289 165 290 168 c 0
 296 180 326 235 334 243 c 0
 340 250 350 256 365 262 c 0
 368 263 383 268 411 277 c 0
 413 278 414 278 415 278 c 0
260 223 m 0
 261 223 262 222 262 220 c 0
 262 209 248 180 246 176 c 0
 237 159 231 150 226 148 c 0
 185 134 168 128 140 111 c 0
 138 109 136 108 135 109 c 0
 134 109 134 110 135 113 c 0
 141 125 171 180 179 188 c 0
 185 195 195 201 210 207 c 0
 213 208 228 213 256 222 c 0
 258 223 259 223 260 223 c 0
155 83 m 0
 156 83 157 82 157 80 c 0
 157 69 143 40 141 36 c 0
 132 19 126 10 121 8 c 0
 80 -6 63 -12 35 -29 c 0
 33 -31 32 -31 31 -31 c 0
 30 -31 l 0
 29 -31 29 -31 29 -30 c 0
 29 -29 29 -28 30 -27 c 0
 36 -15 66 40 74 48 c 0
 80 55 90 61 105 67 c 0
 108 68 123 73 151 82 c 0
 153 83 154 83 155 83 c 0
EndSplineSet
Validated: 1
Colour: 94fff5
EndChar
StartChar: uniEA3F
Encoding: 59967 59967 395
Width: 0
Flags: W
HStem: 151 85<292.131 358.414> 152 97<-42.56 29.6112> 168 81<-52.8237 7.60615>
VStem: -225 112<184 305> -91 112<253 374> 58 87<14.9768 76.619> 333 45<104.316 207.5>
LayerCount: 3
Fore
SplineSet
8 152 m 0x5e
 -0 152 -34 168 -43 168 c 0x3e
 -79 166 -195 109 -226 88 c 0
 -283 48 -317 14 -372 -51 c 0
 -378 -58 -381 -61 -383 -61 c 0
 -384 -61 -384 -60 -384 -59 c 0
 -384 -54 -380 -43 -373 -29 c 0
 -360 -0 -338 30 -309 61 c 0
 -249 124 -161 183 -69 221 c 0
 -38 234 -13 244 8 249 c 0
 9 249 l 0
 20 249 53 232 53 224 c 0
 53 219 49 208 40 190 c 0
 28 170 21 158 16 155 c 0
 14 153 11 152 8 152 c 0x5e
-277 193 m 0
 -276 193 -275 192 -275 190 c 0
 -275 179 -289 150 -291 146 c 0
 -300 129 -306 120 -311 118 c 0
 -352 104 -369 98 -397 81 c 0
 -399 79 -401 78 -402 79 c 0
 -403 79 -403 80 -402 83 c 0
 -396 95 -366 150 -358 158 c 0
 -352 165 -342 171 -327 177 c 0
 -324 178 -309 183 -281 192 c 0
 -279 193 -278 193 -277 193 c 0
-382 53 m 0
 -381 53 -380 52 -380 50 c 0
 -380 39 -394 10 -396 6 c 0
 -405 -11 -411 -20 -416 -22 c 0
 -457 -36 -474 -42 -502 -59 c 0
 -504 -61 -506 -62 -507 -62 c 0
 -508 -62 -508 -62 -508 -61 c 0
 -508 -60 -508 -59 -507 -57 c 0
 -501 -45 -471 10 -463 18 c 0
 -457 25 -447 31 -432 37 c 0
 -429 38 -414 43 -386 52 c 0
 -384 53 -383 53 -382 53 c 0
17 383 m 0
 20 383 21 379 21 374 c 0
 21 361 15 337 13 331 c 0
 8 312 4 302 -1 300 c 0
 -36 285 -64 270 -85 253 c 0
 -87 251 -89 250 -90 251 c 0
 -91 251 -91 252 -91 253 c 0
 -91 273 -70 330 -63 339 c 0
 -56 349 -46 357 -33 364 c 0
 -26 368 -11 374 12 382 c 0
 14 383 16 383 17 383 c 0
-117 314 m 0
 -114 314 -113 310 -113 305 c 0
 -113 292 -119 268 -121 262 c 0
 -126 243 -130 233 -135 231 c 0
 -170 216 -198 201 -219 184 c 0
 -221 182 -223 181 -224 182 c 0
 -224 182 -225 183 -225 184 c 0
 -225 191 -216 220 -212 232 c 0
 -199 270 -197 280 -167 295 c 0
 -160 299 -145 305 -122 313 c 0
 -120 314 -118 314 -117 314 c 0
333 107 m 0
 333 132 319 151 293 151 c 0
 277 151 265 145 257 133 c 0
 252 126 249 123 247 123 c 0
 246 123 246 124 246 125 c 0
 246 127 247 130 249 134 c 0
 268 184 289 236 342 236 c 0x9e
 366 236 378 222 378 193 c 0
 378 139 337 55 308 -6 c 0
 304 -15 299 -19 294 -18 c 0
 289 -18 285 -12 288 -6 c 0
 300 16 312 43 323 67 c 0
 330 82 333 96 333 107 c 0
247 86 m 0
 249 83 260 66 260 53 c 0
 260 50 260 48 259 46 c 0
 254 35 239 14 214 -16 c 0
 212 -19 211 -20 210 -20 c 0
 208 -20 206 -18 204 -13 c 0
 200 -4 190 14 175 39 c 0
 172 44 173 49 177 54 c 0
 178 55 192 73 219 108 c 0
 220 109 222 110 224 110 c 0
 233 110 243 92 247 86 c 0
132 86 m 0
 134 83 145 66 145 53 c 0
 145 50 145 48 144 46 c 0
 139 35 124 14 99 -16 c 0
 97 -19 96 -20 95 -20 c 0
 93 -20 91 -18 89 -13 c 0
 85 -4 75 14 60 39 c 0
 59 41 58 43 58 45 c 0
 58 48 60 51 62 54 c 0
 63 55 77 73 104 108 c 0
 105 109 107 110 109 110 c 0
 118 110 128 92 132 86 c 0
EndSplineSet
Validated: 1
Colour: 94fff5
EndChar
StartChar: uniEA40
Encoding: 59968 59968 396
Width: 0
Flags: W
HStem: -1 21G<-408.5 -407> 30 70<-174.971 -132.084> 100 33<-169 -142.5> 212 97<-67.6054 -9.1399> 228 81<-77.8241 -17.3946>
LayerCount: 3
Fore
SplineSet
-17 212 m 0x90
 -25 212 -60 228 -68 228 c 0x88
 -104 226 -220 169 -252 148 c 0
 -309 109 -342 74 -397 9 c 0
 -403 2 -406 -1 -408 -1 c 0
 -409 -1 -409 0 -409 2 c 0
 -409 7 -406 17 -399 31 c 0
 -386 60 -364 90 -334 121 c 0
 -274 184 -187 243 -94 281 c 0
 -63 294 -38 304 -18 309 c 0
 -17 309 l 0
 -5 309 28 293 28 284 c 0
 28 271 -7 217 -9 215 c 0
 -12 213 -14 212 -17 212 c 0x90
-165 30 m 0xc0
 -181 30 -188 39 -188 58 c 0
 -188 70 -174 133 -164 133 c 0xa0
 -160 133 -164 123 -164 120 c 0
 -164 109 -155 100 -144 100 c 0
 -141 100 -137 101 -134 103 c 0
 -118 110 -101 128 -84 157 c 0
 -83 159 -81 162 -80 162 c 0
 -79 162 -79 162 -79 161 c 0
 -79 160 -79 158 -80 156 c 0
 -87 122 -129 30 -165 30 c 0xc0
EndSplineSet
Validated: 1
Colour: 94fff5
EndChar
StartChar: uniEA50
Encoding: 59984 59984 280
Width: 96
VWidth: 999
GlyphClass: 5
Flags: W
HStem: 0 21G<10 38>
VStem: 10 19<0 19> 67 19<563 582>
DStem2: 10 0 29 0 0.0974718 0.995238<1.85196 584.785>
LayerCount: 3
Fore
SplineSet
29 0 m 1
 10 0 l 1
 29 194 48 388 67 582 c 1
 86 582 l 1
 66 389 47 195 29 0 c 1
EndSplineSet
Validated: 1
Colour: ff9ef7
EndChar
StartChar: uniEA51
Encoding: 59985 59985 281
Width: 314
GlyphClass: 5
Flags: W
HStem: -3 21G<2 4.5 120.5 125.5> 120 99<54.2083 105.938> 140 99<214.208 265.938>
VStem: 11 140<58.65 161.503> 120 31<31.3125 101.332> 120 11<-2.64857 33.9771> 171 140<78.65 181.503> 280 31<51.3125 121.332> 280 11<17.3514 53.9771>
LayerCount: 3
Fore
SplineSet
131 6 m 2xc4
 130 1 127 -3 124 -3 c 0
 117 -3 120 17 120 26 c 0xc4
 120 68 109 120 78 120 c 0
 45 120 23 59 13 10 c 0
 11 3 6 0 3 0 c 0
 1 0 -1 1 0 6 c 2
 11 88 l 2
 19 149 51 219 95 219 c 0
 134 219 151 182 151 134 c 0xd0
 151 119 149 103 146 87 c 2
 131 6 l 2xc4
291 26 m 2xa080
 290 21 287 17 284 17 c 0
 277 17 280 37 280 46 c 0xa080
 280 88 269 140 238 140 c 0
 205 140 183 79 173 30 c 0
 171 23 166 19 163 19 c 0
 161 19 159 21 160 26 c 2
 171 108 l 2
 179 169 211 239 255 239 c 0
 294 239 311 202 311 154 c 0xa2
 311 139 309 123 306 107 c 2
 291 26 l 2xa080
EndSplineSet
Validated: 1
Colour: ff9ef7
EndChar
StartChar: uniEA52
Encoding: 59986 59986 282
Width: 296
GlyphClass: 5
Flags: W
HStem: -3 21G<2 4.5 120.5 125.5> 120 99<54.2083 105.938>
VStem: 11 140<58.65 161.503> 120 31<31.3125 101.332> 120 11<-2.64857 33.9771>
DStem2: 211 20 232 31 0.0980107 0.995185<13.0053 96.4199 205.943 265.277>
LayerCount: 3
Fore
SplineSet
131 6 m 2xc8
 130 1 127 -3 124 -3 c 0
 117 -3 120 17 120 26 c 0xc8
 120 68 109 120 78 120 c 0
 45 120 23 59 13 10 c 0
 11 3 6 -1 3 -1 c 0
 1 -1 -1 1 0 6 c 2
 11 88 l 2
 19 149 51 219 95 219 c 0
 134 219 151 182 151 134 c 0xe0
 151 119 149 103 146 87 c 2
 131 6 l 2xc8
186 161 m 1
 194 177 211 193 229 207 c 1
 237 284 l 1
 258 295 l 1
 251 223 l 1
 275 238 296 249 296 249 c 1
 283 154 l 1
 283 154 264 145 242 130 c 1
 232 31 l 1
 211 20 l 1
 220 116 l 1
 200 101 181 82 171 63 c 1
 186 161 l 1
EndSplineSet
Validated: 1
Colour: ff9ef7
EndChar
StartChar: uniEA53
Encoding: 59987 59987 283
Width: 145
GlyphClass: 5
Flags: W
HStem: 0 275
VStem: 10 125
DStem2: 50 0 71 11 0.0980107 0.995185<13.0053 96.4199 205.943 265.277>
LayerCount: 3
Fore
SplineSet
25 141 m 1
 33 157 50 173 68 187 c 1
 76 264 l 1
 97 275 l 1
 90 203 l 1
 114 218 135 229 135 229 c 1
 122 134 l 1
 122 134 103 125 81 110 c 1
 71 11 l 1
 50 0 l 1
 59 96 l 1
 39 81 20 62 10 43 c 1
 25 141 l 1
EndSplineSet
Validated: 1
Colour: ff9ef7
EndChar
StartChar: uniEA54
Encoding: 59988 59988 284
Width: 281
VWidth: 999
Flags: W
HStem: 0 21G<121.818 159.091>
VStem: 10 65<219.288 416.012> 209 62<169.679 366.352>
LayerCount: 3
Fore
SplineSet
183 78 m 1
 195 129 209 182 209 242 c 0
 209 306 202 340 179 384 c 1
 156 431 130 468 98 506 c 1
 91 477 86 449 82 422 c 0
 79 399 75 374 75 346 c 0
 75 320 75 295 80 272 c 0
 98 193 142 134 183 78 c 1
140 585 m 257
 161 564 l 1
 198 530 230 472 251 413 c 0
 264 377 271 336 271 292 c 256
 271 205 239 133 206 80 c 0
 190 54 174 36 161 22 c 2
 140 0 l 257
 120 22 l 2
 66 81 10 176 10 292 c 0
 10 381 42 452 75 506 c 0
 91 532 107 551 120 564 c 2
 140 585 l 257
EndSplineSet
Validated: 1
Colour: ff9ef7
EndChar
StartChar: uniEE75EE5A
Encoding: 60000 60000 297
Width: 371
VWidth: 999
GlyphClass: 3
Flags: W
HStem: 0 21G<34.9032 43.5>
VStem: 92 18<602 620>
DStem2: 33 0 61 100 0.0947333 0.995503<102.203 622.801>
AnchorPoint: "Podtinka" 39.6329 -10 basechar 0
AnchorPoint: "Lomka" 315 616 basechar 0
AnchorPoint: "Kupnaya" 100 722 basechar 0
AnchorPoint: "Udarka" 314 614 basechar 0
AnchorPoint: "Zevok" 316 614 basechar 0
AnchorPoint: "Kachka" 99 724 basechar 0
AnchorPoint: "Tikhaya" 52 200 basechar 0
AnchorPoint: "Shaidur" 15 342 basechar 0
AnchorPoint: "Otsechka" 388 40 basechar 0
AnchorPoint: "Borzaya" 347 4 basechar 0
AnchorPoint: "Podvertka" 388 134 basechar 0
AnchorPoint: "Tonal" 100 725 basechar 0
AnchorPoint: "Zaderzhka" 99 724 basechar 0
AnchorPoint: "Podchashie" 99 724 basechar 0
AnchorPoint: "Oblachko" 101 725 basechar 0
LayerCount: 3
Fore
SplineSet
236 234 m 1
 258 278 341 321 341 321 c 1
 328 226 l 1
 328 226 246 185 221 136 c 1
 236 234 l 1
61 100 m 1
 82 166 187 208 187 208 c 1
 173 115 l 1
 173 115 54 63 33 0 c 1
 92 620 l 1
 110 620 l 1
 61 100 l 1
EndSplineSet
Validated: 1
Position2: "Advance neume with cinnabar mark-1" dx=200 dy=0 dh=0 dv=0
LCarets2: 1 0 
Ligature2: "'ccmp' Precomposed Neumes-1" uniEE75 uniEE5A
Colour: 4cff40
EndChar
StartChar: uniEA61
Encoding: 60001 60001 397
Width: 250
Flags: W
HStem: -4 98<48.6626 109.315> 468 129<17 88.2813>
VStem: 14 29<51 166.75> 33 12<153.733 199.559> 199 40<68.4404 347.464>
LayerCount: 3
Fore
SplineSet
218 15 m 0xc8
 217 6 211 0 203 0 c 0
 192 0 189 10 189 15 c 0
 190 34 199 110 199 190 c 0
 199 266 191 345 161 384 c 0
 119 438 71 468 -0 468 c 1
 17 597 l 1
 127 597 239 485 239 316 c 0
 239 163 229 134 218 15 c 0xc8
65 -4 m 0
 22 -4 14 30 14 72 c 0xe8
 14 84 16 97 18 110 c 2
 33 192 l 2
 35 202 47 205 45 187 c 0xd8
 44 174 43 160 43 148 c 0xe8
 43 121 50 94 87 94 c 0
 124 94 145 168 154 219 c 0
 155 226 160 230 163 230 c 0
 166 230 168 228 167 223 c 2
 153 127 l 2
 144 64 116 -4 65 -4 c 0
EndSplineSet
Validated: 1
Position2: "Advance neume with cinnabar mark-1" dx=200 dy=0 dh=0 dv=0
Colour: 4cff40
EndChar
StartChar: uniEE78EE5A
Encoding: 60002 60002 302
Width: 398
VWidth: 999
GlyphClass: 3
Flags: W
HStem: 0 21G<197.5 207> 468 129<17 88.2813>
VStem: 199 40<68.4404 347.464>
AnchorPoint: "Podtinka" 156.633 -7.00001 basechar 0
AnchorPoint: "Zevok" 153 687 basechar 0
AnchorPoint: "Udarka" 154 686 basechar 0
AnchorPoint: "Kupnaya" 158 -115 basechar 0
AnchorPoint: "Kachka" 155 686 basechar 0
AnchorPoint: "Lomka" 153 689 basechar 0
AnchorPoint: "Tikhaya" 152 686.5 basechar 0
AnchorPoint: "Oblachko" 154 687 basechar 0
AnchorPoint: "Podchashie" 152 689 basechar 0
AnchorPoint: "Zaderzhka" 153 684.9 basechar 0
AnchorPoint: "Tonal" 152 683 basechar 0
AnchorPoint: "Podvertka" 153 684 basechar 0
AnchorPoint: "Borzaya" 154 684 basechar 0
AnchorPoint: "Otsechka" 154 683 basechar 0
AnchorPoint: "Shaidur" 53 650 basechar 0
LayerCount: 3
Fore
SplineSet
218 15 m 0
 217 6 211 0 203 0 c 0
 192 0 189 10 189 15 c 0
 190 34 199 110 199 190 c 0
 199 266 191 345 161 384 c 0
 119 438 71 468 -0 468 c 1
 17 597 l 1
 127 597 239 485 239 316 c 0
 239 163 229 134 218 15 c 0
280 297 m 1
 390 224 l 1
 373 125 l 1
 263 198 l 1
 280 297 l 1
EndSplineSet
Validated: 1
Position2: "Advance neume with cinnabar mark-1" dx=200 dy=0 dh=0 dv=0
LCarets2: 1 0 
Ligature2: "'ccmp' Precomposed Neumes-1" uniEE78 uniEE5A
Colour: 4cff40
EndChar
StartChar: uniEA63
Encoding: 60003 60003 398
Width: 406
GlyphClass: 3
Flags: W
HStem: -4 98<48.6299 116.996> 468 129<17 88.2813>
VStem: 14 31<101.086 172.781> 33 12<153.733 199.783> 199 40<68.4404 347.464>
LayerCount: 3
Fore
SplineSet
396 131 m 1xc8
 378 32 l 1
 268 105 l 1
 286 204 l 1
 396 131 l 1xc8
396 316 m 1
 378 217 l 1
 268 290 l 1
 286 389 l 1
 396 316 l 1
218 15 m 0
 217 6 211 0 203 0 c 0
 192 0 189 10 189 15 c 0
 190 34 199 110 199 190 c 0
 199 266 191 345 161 384 c 0
 119 438 71 468 -0 468 c 1
 17 597 l 1
 127 597 239 485 239 316 c 0
 239 163 229 134 218 15 c 0
75 -4 m 0
 32 -4 14 30 14 72 c 0xe8
 14 84 16 97 18 110 c 2
 33 192 l 2
 35 202 45 205 45 187 c 0xd8
 45 174 43 160 43 148 c 0
 43 121 50 94 87 94 c 0
 124 94 145 168 154 219 c 0
 155 226 160 230 163 230 c 0
 166 230 168 228 167 223 c 2
 153 127 l 2
 144 64 126 -4 75 -4 c 0
EndSplineSet
Validated: 1
Position2: "Advance neume with cinnabar mark-1" dx=200 dy=0 dh=0 dv=0
Colour: 4cff40
EndChar
StartChar: uniEE7AEE53
Encoding: 60004 60004 312
Width: 392
GlyphClass: 3
Flags: W
HStem: 344 110<104.74 196.281>
VStem: 1 27<-65.8857 137.922> 220 39<112.929 373.5>
AnchorPoint: "Podtinka" 20.6329 -8.00001 basechar 0
AnchorPoint: "Shaidur" -30 220.9 basechar 0
AnchorPoint: "Borzaya" -70 138.9 basechar 0
AnchorPoint: "Podvertka" 192 550.9 basechar 0
AnchorPoint: "Zaderzhka" 470 66.9 basechar 0
AnchorPoint: "Podchashie" 192 548.9 basechar 0
AnchorPoint: "Oblachko" 190 554.9 basechar 0
AnchorPoint: "Tikhaya" 86 100.9 basechar 0
AnchorPoint: "Lomka" 384 341.9 basechar 0
AnchorPoint: "Kachka" 190 550.9 basechar 0
AnchorPoint: "Kupnaya" 188 552.9 basechar 0
AnchorPoint: "Udarka" 384 344.9 basechar 0
AnchorPoint: "Zevok" 190 550 basechar 0
AnchorPoint: "Tonal" 188 548 basechar 0
AnchorPoint: "Otsechka" 191 552 basechar 0
LayerCount: 3
Fore
SplineSet
163 454 m 0
 216 454 259 426 259 321 c 0
 259 311 259 301 258 290 c 0
 255 239 250 180 239 106 c 2
 227 18 l 1
 227 18 219 5 211 6 c 0
 205 6 202 20 202 20 c 1
 210 88 220 159 220 216 c 0
 220 287 205 344 151 344 c 0
 130 344 52 322 36 129 c 1
 36 129 31 37 28 -48 c 0
 28 -56 22 -66 13 -66 c 0
 5 -66 1 -51 1 -51 c 0
 1 -40 1 -29 1 -18 c 0
 1 154 19 454 163 454 c 0
277 124 m 1
 288 148 316 170 338 184 c 0
 352 193 367 202 382 211 c 1
 369 116 l 1
 329 93 284 67 262 26 c 1
 277 124 l 1
EndSplineSet
Validated: 1
Position2: "Advance neume with cinnabar mark-1" dx=200 dy=0 dh=0 dv=0
LCarets2: 1 0 
Ligature2: "'ccmp' Precomposed Neumes-1" uniEE7A uniEE53
Colour: 4cff40
EndChar
StartChar: uniEE7EEE5A
Encoding: 60005 60005 321
Width: 561
VWidth: 999
GlyphClass: 3
Flags: W
HStem: -3 24G<131.5 135.5 357.5 367> 120 99<63.833 116.403> 140 99<233.833 286.403> 468 129<177 248.281>
VStem: 10 13<0.780029 33.3362> 129 32<28.7812 103.969> 129 12<-2.53125 43.8> 180 13<20.78 53.3362> 299 32<48.7812 123.969> 299 12<17.4688 63.8> 359 40<68.4404 347.464>
AnchorPoint: "Podtinka" 17.6329 -10 basechar 0
AnchorPoint: "Zevok" 296 739 basechar 0
AnchorPoint: "Udarka" 294 740 basechar 0
AnchorPoint: "Kupnaya" 233 -115 basechar 0
AnchorPoint: "Kachka" 291 738 basechar 0
AnchorPoint: "Lomka" 295 740 basechar 0
AnchorPoint: "Tikhaya" 294 734.5 basechar 0
AnchorPoint: "Oblachko" 292 737 basechar 0
AnchorPoint: "Podchashie" 294 737 basechar 0
AnchorPoint: "Zaderzhka" 297 737.9 basechar 0
AnchorPoint: "Tonal" 294 740 basechar 0
AnchorPoint: "Podvertka" 295 740 basechar 0
AnchorPoint: "Borzaya" 103 285 basechar 0
AnchorPoint: "Otsechka" 160 567 basechar 0
AnchorPoint: "Shaidur" 277 284 basechar 0
LayerCount: 3
Fore
SplineSet
378 15 m 0x9920
 377 6 371 0 363 0 c 0
 352 0 349 10 349 15 c 0
 350 34 359 110 359 190 c 0
 359 266 351 345 321 384 c 0
 279 438 231 468 160 468 c 1
 177 597 l 1
 287 597 399 485 399 316 c 0
 399 163 389 134 378 15 c 0x9920
551 224 m 1
 534 125 l 1
 424 198 l 1
 441 297 l 1
 551 224 l 1
105 219 m 0xdd20
 147 219 161 180 161 137 c 0xdd20
 161 121 159 104 156 87 c 2
 141 6 l 2
 140 1 137 -2 134 -3 c 1
 133 -3 l 2
 130 -3 129 2 129 10 c 0xdb20
 129 17 130 25 130 33 c 0
 130 37 130 41 129 46 c 1
 129 74 117 120 88 120 c 0
 68 120 54 98 47 83 c 0
 38 62 29 34 23 10 c 0
 22 4 19 1 14 0 c 0
 10 -1 9 0 10 5 c 2
 22 88 l 2
 26 120 35 154 50 176 c 1
 59 196 79 219 105 219 c 0xdd20
275 239 m 0xb9a0
 317 239 331 200 331 157 c 0xb9a0
 331 141 329 124 326 107 c 2
 311 26 l 2
 310 21 307 18 304 17 c 1
 303 17 l 2
 300 17 299 22 299 30 c 0xb960
 299 37 300 45 300 53 c 0
 300 57 300 61 299 66 c 1
 299 94 287 140 258 140 c 0
 238 140 224 118 217 103 c 0
 208 82 199 54 193 30 c 0
 192 24 189 21 184 20 c 0
 180 19 179 20 180 25 c 2
 191 108 l 2
 195 139 205 174 220 196 c 1
 229 216 249 239 275 239 c 0xb9a0
EndSplineSet
Validated: 1
Position2: "Advance neume with cinnabar mark-1" dx=200 dy=0 dh=0 dv=0
LCarets2: 1 0 
Ligature2: "'ccmp' Precomposed Neumes-1" uniEE7E uniEE5A
Colour: 4cff40
EndChar
StartChar: uniEE87EE53
Encoding: 60006 60006 322
Width: 370
GlyphClass: 3
Flags: W
HStem: 0 224
AnchorPoint: "Podtinka" 179.633 -71 basechar 0
AnchorPoint: "Kupnaya" 180 -71 basechar 0
AnchorPoint: "Shaidur" 58 258 basechar 0
AnchorPoint: "Borzaya" -22 34 basechar 0
AnchorPoint: "Podvertka" 100.5 259.5 basechar 0
AnchorPoint: "Zaderzhka" 98.5 259.4 basechar 0
AnchorPoint: "Podchashie" 98.5 259 basechar 0
AnchorPoint: "Oblachko" 100 258.5 basechar 0
AnchorPoint: "Tikhaya" 62 110.5 basechar 0
AnchorPoint: "Lomka" 100 259 basechar 0
AnchorPoint: "Kachka" 100 259 basechar 0
AnchorPoint: "Udarka" 99.5 258.5 basechar 0
AnchorPoint: "Zevok" 100 259 basechar 0
AnchorPoint: "Tonal" 215.996 368.624 basechar 0
AnchorPoint: "Otsechka" 415 16 basechar 0
LayerCount: 3
Fore
SplineSet
115 99 m 1
 98 0 l 1
 18 125 l 1
 35 224 l 1
 115 99 l 1
220 99 m 1
 203 0 l 1
 123 125 l 1
 140 224 l 1
 220 99 l 1
263 98 m 5
 274 122 302 144 324 158 c 4
 338 167 353 176 368 185 c 5
 355 90 l 5
 315 67 270 41 248 0 c 5
 263 98 l 5
EndSplineSet
Validated: 1
Position2: "Advance neume with cinnabar mark-1" dx=200 dy=0 dh=0 dv=0
LCarets2: 1 0 
Ligature2: "'ccmp' Precomposed Neumes-1" uniEE87 uniEE53
Colour: 4cff40
EndChar
StartChar: uniEE87EE55
Encoding: 60007 60007 538
Width: 395
GlyphClass: 3
Flags: W
HStem: -4 98<274.18 341.01>
VStem: 239 29<50 166.75> 258 12<153.733 199.68>
AnchorPoint: "Podtinka" 139.633 -71 basechar 0
AnchorPoint: "Kupnaya" 140 -73 basechar 0
AnchorPoint: "Shaidur" 58 258 basechar 0
AnchorPoint: "Borzaya" -22 34 basechar 0
AnchorPoint: "Podvertka" 100.5 259.5 basechar 0
AnchorPoint: "Zaderzhka" 434.5 122.4 basechar 0
AnchorPoint: "Podchashie" 98.5 259 basechar 0
AnchorPoint: "Oblachko" 100 258.5 basechar 0
AnchorPoint: "Tikhaya" 62 110.5 basechar 0
AnchorPoint: "Lomka" 100 259 basechar 0
AnchorPoint: "Kachka" 100 259 basechar 0
AnchorPoint: "Udarka" 99.5 258.5 basechar 0
AnchorPoint: "Zevok" 100 259 basechar 0
AnchorPoint: "Tonal" 211.996 360.624 basechar 0
AnchorPoint: "Otsechka" 451 12 basechar 0
LayerCount: 3
Fore
SplineSet
35 224 m 1x80
 115 99 l 1
 98 0 l 1
 18 125 l 1
 35 224 l 1x80
140 224 m 1
 220 99 l 1
 203 0 l 1
 123 125 l 1
 140 224 l 1
300 -4 m 0
 256 -4 239 29 239 71 c 0xc0
 239 83 240 97 243 110 c 2
 258 192 l 2
 260 202 271 205 270 187 c 0xa0
 269 174 268 160 268 148 c 0xc0
 268 121 275 94 312 94 c 0
 349 94 370 168 379 219 c 0
 380 226 385 230 388 230 c 0
 391 230 393 228 392 223 c 2
 378 127 l 2
 368 64 350 -4 300 -4 c 0
EndSplineSet
Validated: 1
Position2: "Advance neume with cinnabar mark-1" dx=200 dy=0 dh=0 dv=0
LCarets2: 1 0 
Ligature2: "'ccmp' Precomposed Neumes-1" uniEE87 uniEE55
Colour: 4cff40
EndChar
StartChar: uniEA68
Encoding: 60008 60008 474
Width: 360
GlyphClass: 3
Flags: W
HStem: -200 98<228.63 296.996> 0 21G<80.2 96.4343 185.2 201.434> 299 93<139.463 237.894>
VStem: 94 17<237.564 263.571> 194 29<-145 -29.25> 213 12<-42.2667 3.55859> 261 28<84.1094 263.997>
AnchorPoint: "Podtinka" 143.633 -23 basechar 0
AnchorPoint: "Tikhaya" 62 110.5 basechar 0
AnchorPoint: "Borzaya" -22 34 basechar 0
AnchorPoint: "Zaderzhka" 348.5 34.4 basechar 0
AnchorPoint: "Otsechka" 375 35 basechar 0
AnchorPoint: "Kupnaya" 146 -25 basechar 0
AnchorPoint: "Zevok" 200 477 basechar 0
AnchorPoint: "Udarka" 199.5 476.5 basechar 0
AnchorPoint: "Kachka" 200 477 basechar 0
AnchorPoint: "Lomka" 200 477 basechar 0
AnchorPoint: "Oblachko" 200 476.5 basechar 0
AnchorPoint: "Podchashie" 198.5 477 basechar 0
AnchorPoint: "Tonal" 199.5 550 basechar 0
AnchorPoint: "Podvertka" 200.5 477.5 basechar 0
AnchorPoint: "Shaidur" 26 318 basechar 0
LayerCount: 3
Fore
SplineSet
289 251 m 0xf2
 289 184 279 94 266 35 c 0
 264 28 262 21 255 21 c 0
 249 21 247 27 248 35 c 2
 255 91 l 2
 259 120 261 149 261 174 c 0
 261 247 251 299 183 299 c 0
 135 299 125 280 111 248 c 0
 108 241 104 237 100 237 c 0
 97 237 93 241 94 248 c 0
 98 300 116 392 195 392 c 0
 277 392 289 321 289 251 c 0xf2
255 -200 m 0
 212 -200 194 -166 194 -124 c 0xfa
 194 -112 196 -99 198 -86 c 2
 213 -4 l 2
 215 6 227 9 225 -9 c 0xf6
 224 -22 223 -36 223 -48 c 0xfa
 223 -75 230 -102 267 -102 c 0
 304 -102 325 -28 334 23 c 0
 335 30 340 34 343 34 c 0
 346 34 348 32 347 27 c 2
 333 -69 l 2
 324 -132 306 -200 255 -200 c 0
30 224 m 1
 110 99 l 1
 93 0 l 1
 13 125 l 1
 30 224 l 1
135 224 m 1
 215 99 l 1
 198 0 l 1
 118 125 l 1
 135 224 l 1
EndSplineSet
Validated: 1
Position2: "Advance neume with cinnabar mark-1" dx=200 dy=0 dh=0 dv=0
Colour: 4cff40
EndChar
StartChar: uniEA6A
Encoding: 60009 60009 540
Width: 479
Flags: W
HStem: 0 21G<80.2 96.4343 185.2 201.434> 299 93<139.463 237.894> 440 20G<394 417.045>
VStem: 94 17<237.564 263.571> 261 28<84.7578 263.997>
DStem2: 355 60 379 70 0.102029 0.994781<12.3965 138.708 270.81 391.944>
AnchorPoint: "Podtinka" 145.633 -24 basechar 0
AnchorPoint: "Tikhaya" 62 110.5 basechar 0
AnchorPoint: "Borzaya" -22 34 basechar 0
AnchorPoint: "Zaderzhka" 504.5 34.4 basechar 0
AnchorPoint: "Otsechka" 504.5 34.5 basechar 0
AnchorPoint: "Kupnaya" 146 -25 basechar 0
AnchorPoint: "Zevok" 200 477 basechar 0
AnchorPoint: "Udarka" 199.5 476.5 basechar 0
AnchorPoint: "Kachka" 200 477 basechar 0
AnchorPoint: "Lomka" 200 477 basechar 0
AnchorPoint: "Oblachko" 200 476.5 basechar 0
AnchorPoint: "Podchashie" 198.5 477 basechar 0
AnchorPoint: "Tonal" 199.5 550 basechar 0
AnchorPoint: "Podvertka" 200.5 477.5 basechar 0
AnchorPoint: "Shaidur" 26 318 basechar 0
LayerCount: 3
Fore
SplineSet
289 251 m 0
 289 184 279 95 266 35 c 0
 264 28 262 21 255 21 c 0
 249 21 247 27 248 35 c 2
 255 91 l 2
 259 120 261 149 261 174 c 0
 261 247 251 299 183 299 c 0
 135 299 125 280 111 248 c 0
 108 241 104 237 100 237 c 0
 97 237 93 241 94 248 c 0
 98 300 116 392 195 392 c 0
 277 392 289 321 289 251 c 0
328 253 m 1
 337 272 358 292 380 308 c 1
 394 450 l 1
 419 460 l 1
 406 327 l 1
 434 346 469 364 469 364 c 1
 453 250 l 1
 453 250 422 233 395 216 c 1
 379 70 l 1
 355 60 l 1
 369 198 l 1
 345 180 322 158 310 135 c 1
 328 253 l 1
30 224 m 1
 110 99 l 1
 93 0 l 1
 13 125 l 1
 30 224 l 1
135 224 m 1
 215 99 l 1
 198 0 l 1
 118 125 l 1
 135 224 l 1
EndSplineSet
Validated: 1
Position2: "Advance neume with cinnabar mark-1" dx=200 dy=0 dh=0 dv=0
Colour: 4cff40
EndChar
StartChar: uniEE87EE8D
Encoding: 60010 60010 539
Width: 420
GlyphClass: 3
Flags: W
HStem: 0 21G<84.2 100.434 189.2 205.434 329.863 363.434> 443 97<279.744 356.394>
VStem: 243 14<373.872 406.719> 253 143<401.2 511.874> 365 31<337.25 430.08>
AnchorPoint: "Podtinka" 144.633 -81 basechar 0
AnchorPoint: "Kupnaya" 144 -82 basechar 0
AnchorPoint: "Shaidur" 58 258 basechar 0
AnchorPoint: "Borzaya" -22 34 basechar 0
AnchorPoint: "Podvertka" 100.5 259.5 basechar 0
AnchorPoint: "Zaderzhka" 322 686.4 basechar 0
AnchorPoint: "Podchashie" 98.5 259 basechar 0
AnchorPoint: "Oblachko" 100 258.5 basechar 0
AnchorPoint: "Tikhaya" 62 110.5 basechar 0
AnchorPoint: "Lomka" 100 259 basechar 0
AnchorPoint: "Kachka" 100 259 basechar 0
AnchorPoint: "Udarka" 99.5 258.5 basechar 0
AnchorPoint: "Zevok" 100 259 basechar 0
AnchorPoint: "Tonal" 320 684 basechar 0
AnchorPoint: "Otsechka" 319 684 basechar 0
LayerCount: 3
Fore
SplineSet
369 308 m 0xd0
 364 308 365 314 365 321 c 0
 365 337 367 353 367 368 c 0
 367 409 358 443 314 443 c 0
 277 443 264 416 257 384 c 0
 255 378 252 374 248 373 c 0
 244 372 242 374 243 379 c 2xe8
 253 453 l 2
 260 502 282 540 331 540 c 0
 379 540 396 493 396 443 c 0
 396 428 394 412 391 398 c 2
 377 317 l 2
 376 313 373 308 369 308 c 0xd0
267 172 m 1
 377 99 l 1
 360 0 l 1
 250 73 l 1
 267 172 l 1
267 327 m 1
 377 254 l 1
 360 155 l 1
 250 228 l 1
 267 327 l 1
114 99 m 1
 97 0 l 1
 17 125 l 1
 34 224 l 1
 114 99 l 1
219 99 m 1
 202 0 l 1
 122 125 l 1
 139 224 l 1
 219 99 l 1
EndSplineSet
Validated: 1
Position2: "Advance neume with cinnabar mark-1" dx=200 dy=0 dh=0 dv=0
LCarets2: 1 0 
Ligature2: "'ccmp' Precomposed Neumes-1" uniEE87 uniEE8D
Colour: 4cff40
EndChar
StartChar: uniEE8FEE50EE58
Encoding: 60013 60013 477
Width: 416
GlyphClass: 3
Flags: W
HStem: 0 21G<8.6 15.5> 572 90<227.434 292.491>
VStem: 183 12<451.695 483.469> 196 124<538 624.25> 295 11<498.374 526.719> 296 24<518.141 621.5>
AnchorPoint: "Podtinka" 11.6329 -5.00001 basechar 0
AnchorPoint: "Kupnaya" 111 450 basechar 0
AnchorPoint: "Shaidur" 10 187 basechar 0
AnchorPoint: "Otsechka" 300 10 basechar 0
AnchorPoint: "Borzaya" 110 450 basechar 0
AnchorPoint: "Podvertka" 317 230 basechar 0
AnchorPoint: "Tonal" 250 800 basechar 0
AnchorPoint: "Zaderzhka" 111 448.9 basechar 0
AnchorPoint: "Podchashie" 317 229 basechar 0
AnchorPoint: "Oblachko" 109 450 basechar 0
AnchorPoint: "Tikhaya" 62 110.5 basechar 0
AnchorPoint: "Lomka" 109 450 basechar 0
AnchorPoint: "Kachka" 111 448 basechar 0
AnchorPoint: "Udarka" 109 449 basechar 0
AnchorPoint: "Zevok" 111 449 basechar 0
LayerCount: 3
Fore
SplineSet
266 662 m 0xf0
 305 662 320 639 320 604 c 0xf0
 320 594 319 583 317 571 c 2
 306 505 l 2
 304 496 294 493 295 509 c 0xe8
 295 515 296 521 296 527 c 0xe4
 296 555 288 572 255 572 c 0
 223 572 208 516 195 460 c 0
 192 449 181 446 183 456 c 2
 196 543 l 2
 204 601 221 662 266 662 c 0xf0
23 100 m 1
 44 166 159 208 159 208 c 1
 143 112 l 1
 143 112 26 63 5 0 c 1
 23 100 l 1
83 290 m 1
 104 356 219 398 219 398 c 1
 203 302 l 1
 203 302 86 253 65 190 c 1
 83 290 l 1
268 415 m 1
 289 481 404 523 404 523 c 1
 388 427 l 1
 388 427 271 378 250 315 c 1
 268 415 l 1
EndSplineSet
Validated: 1
Position2: "Advance neume with cinnabar mark-1" dx=200 dy=0 dh=0 dv=0
LCarets2: 2 234 343 
Ligature2: "'ccmp' Precomposed Neumes-1" uniEE8F uniEE50 uniEE58
Colour: 4cff40
EndChar
StartChar: uniEE90EE50
Encoding: 60015 60015 475
Width: 416
VWidth: 0
GlyphClass: 3
Flags: W
HStem: 0 21G<8.6 15.5> 164 100<239.078 319.633>
VStem: 202 14<94.1991 127.913> 213 145<127.273 237.099> 326 12<27.3586 71.75> 329 29<63.875 149.867>
AnchorPoint: "Podtinka" 11.6329 -5.00001 basechar 0
AnchorPoint: "Kupnaya" 111 450 basechar 0
AnchorPoint: "Shaidur" 10 187 basechar 0
AnchorPoint: "Otsechka" 445 117 basechar 0
AnchorPoint: "Borzaya" 110 450 basechar 0
AnchorPoint: "Podvertka" 209 582 basechar 0
AnchorPoint: "Tonal" 457 600 basechar 0
AnchorPoint: "Zaderzhka" 111 448.9 basechar 0
AnchorPoint: "Podchashie" 207 583 basechar 0
AnchorPoint: "Oblachko" 109 450 basechar 0
AnchorPoint: "Tikhaya" 62 110.5 basechar 0
AnchorPoint: "Lomka" 109 450 basechar 0
AnchorPoint: "Kachka" 111 448 basechar 0
AnchorPoint: "Udarka" 109 449 basechar 0
AnchorPoint: "Zevok" 111 449 basechar 0
LayerCount: 3
Fore
SplineSet
23 100 m 1xc0
 44 166 159 208 159 208 c 1
 143 112 l 1
 143 112 26 63 5 0 c 1
 23 100 l 1xc0
83 290 m 1
 104 356 219 398 219 398 c 1
 203 302 l 1
 203 302 86 253 65 190 c 1
 83 290 l 1
268 415 m 1
 289 481 404 523 404 523 c 1
 388 427 l 1
 388 427 271 378 250 315 c 1
 268 415 l 1
329 86 m 0xc4
 329 130 322 164 280 164 c 0
 253 164 239 158 229 139 c 1
 223 131 219 119 216 105 c 0
 215 99 211 94 206 93 c 0
 202 92 201 95 202 100 c 2xe4
 213 175 l 1
 219 227 242 264 291 264 c 0
 338 264 358 219 358 171 c 0xd0
 358 155 357 136 354 119 c 2
 338 35 l 2
 337 31 335 28 331 27 c 1
 330 27 l 2
 327 27 326 32 326 40 c 0xc8
 326 56 329 72 329 86 c 0xc4
EndSplineSet
Validated: 1
Position2: "Advance neume with cinnabar mark-1" dx=200 dy=0 dh=0 dv=0
LCarets2: 1 0 
Ligature2: "'ccmp' Precomposed Neumes-1" uniEE90 uniEE50
Colour: 4cff40
EndChar
StartChar: uniEE93EE50
Encoding: 60016 60016 355
Width: 415
VWidth: 0
GlyphClass: 3
Flags: W
HStem: 0 21G<8.6 14.5>
AnchorPoint: "Podtinka" 11.6329 -5.00001 basechar 0
AnchorPoint: "Kupnaya" 111 450 basechar 0
AnchorPoint: "Shaidur" 10 187 basechar 0
AnchorPoint: "Otsechka" 445 100 basechar 0
AnchorPoint: "Borzaya" 110 450 basechar 0
AnchorPoint: "Podvertka" 110 450 basechar 0
AnchorPoint: "Tonal" 457 650 basechar 0
AnchorPoint: "Zaderzhka" 111 448.9 basechar 0
AnchorPoint: "Podchashie" 110 449 basechar 0
AnchorPoint: "Oblachko" 109 450 basechar 0
AnchorPoint: "Tikhaya" 62 110.5 basechar 0
AnchorPoint: "Lomka" 109 450 basechar 0
AnchorPoint: "Kachka" 111 448 basechar 0
AnchorPoint: "Udarka" 109 449 basechar 0
AnchorPoint: "Zevok" 111 449 basechar 0
LayerCount: 3
Fore
SplineSet
23 100 m 1
 44 166 159 208 159 208 c 1
 143 112 l 1
 126 100 24 62 5 0 c 1
 23 100 l 1
83 290 m 1
 104 356 219 398 219 398 c 1
 203 302 l 1
 203 302 86 253 65 190 c 1
 83 290 l 1
268 415 m 1
 289 481 404 523 404 523 c 1
 388 427 l 1
 388 427 271 378 250 315 c 1
 268 415 l 1
237 244 m 1
 317 119 l 1
 300 20 l 1
 220 145 l 1
 237 244 l 1
EndSplineSet
Validated: 1
Position2: "Advance neume with cinnabar mark-1" dx=200 dy=0 dh=0 dv=0
LCarets2: 1 0 
Ligature2: "'ccmp' Precomposed Neumes-1" uniEE93 uniEE50
Colour: 4cff40
EndChar
StartChar: uniEA71
Encoding: 60017 60017 479
Width: 515
GlyphClass: 3
Flags: W
HStem: 0 21G<8.6 15.5> 164 100<386.078 466.633>
VStem: 349 14<94.1991 127.913> 360 145<127.273 237.099> 473 12<27.3586 71.75> 476 29<63.875 149.867>
AnchorPoint: "Podtinka" 11.6329 -5.00001 basechar 0
AnchorPoint: "Kupnaya" 304 607.7 basechar 0
AnchorPoint: "Shaidur" 18 244 basechar 0
AnchorPoint: "Borzaya" -22 34 basechar 0
AnchorPoint: "Podvertka" 306.5 605.5 basechar 0
AnchorPoint: "Zaderzhka" 488.496 357.305 basechar 0
AnchorPoint: "Podchashie" 304.5 605 basechar 0
AnchorPoint: "Oblachko" 306 604.5 basechar 0
AnchorPoint: "Tikhaya" 62 110.5 basechar 0
AnchorPoint: "Lomka" 306 605 basechar 0
AnchorPoint: "Kachka" 306 605 basechar 0
AnchorPoint: "Udarka" 305.5 604.5 basechar 0
AnchorPoint: "Zevok" 306 605 basechar 0
AnchorPoint: "Otsechka" 488.996 352.605 basechar 0
AnchorPoint: "Tonal" 305 605.7 basechar 0
LayerCount: 3
Fore
SplineSet
23 100 m 1xc0
 44 166 159 208 159 208 c 1
 143 112 l 1
 143 112 26 63 5 0 c 1
 23 100 l 1xc0
83 290 m 1
 104 356 219 398 219 398 c 1
 203 302 l 1
 203 302 86 253 65 190 c 1
 83 290 l 1
268 415 m 1
 289 481 404 523 404 523 c 1
 388 427 l 1
 388 427 271 378 250 315 c 1
 268 415 l 1
237 244 m 1
 317 119 l 1
 300 20 l 1
 220 145 l 1
 237 244 l 1
476 86 m 0xc4
 476 130 469 164 427 164 c 0
 400 164 386 158 376 139 c 1
 370 131 366 119 363 105 c 0
 362 99 358 94 353 93 c 0
 349 92 348 95 349 100 c 2xe4
 360 175 l 1
 366 227 389 264 438 264 c 0
 485 264 505 219 505 171 c 0xd0
 505 155 504 136 501 119 c 2
 485 35 l 2
 484 31 482 28 478 27 c 1
 477 27 l 2
 474 27 473 32 473 40 c 0xc8
 473 56 476 72 476 86 c 0xc4
EndSplineSet
Validated: 1
Position2: "Advance neume with cinnabar mark-1" dx=200 dy=0 dh=0 dv=0
LCarets2: 1 235 
Ligature2: "'ccmp' Precomposed Neumes-1" uniEE94 uniEE50
Colour: 4cff40
EndChar
StartChar: uniEE93EE50EE55
Encoding: 60018 60018 476
Width: 415
VWidth: 0
GlyphClass: 3
Flags: W
HStem: -154 98<251.18 318.01> 0 21G<8.6 15.5>
VStem: 216 29<-100 16.75> 235 12<3.73333 49.6799>
AnchorPoint: "Podtinka" 11.6329 -5.00001 basechar 0
AnchorPoint: "Kupnaya" 233.5 542.3 basechar 0
AnchorPoint: "Zevok" 238 539 basechar 0
AnchorPoint: "Udarka" 237.5 538.5 basechar 0
AnchorPoint: "Kachka" 238 539 basechar 0
AnchorPoint: "Lomka" 238 539 basechar 0
AnchorPoint: "Tikhaya" 62 110.5 basechar 0
AnchorPoint: "Oblachko" 238 538.5 basechar 0
AnchorPoint: "Podchashie" 236.5 539 basechar 0
AnchorPoint: "Zaderzhka" 234.496 535.305 basechar 0
AnchorPoint: "Podvertka" 238.5 539.5 basechar 0
AnchorPoint: "Borzaya" -22 34 basechar 0
AnchorPoint: "Shaidur" 18 244 basechar 0
AnchorPoint: "Otsechka" 444.5 72.3 basechar 0
AnchorPoint: "Tonal" 236 540 basechar 0
LayerCount: 3
Fore
SplineSet
23 100 m 1xc0
 44 166 159 208 159 208 c 1
 143 112 l 1
 143 112 26 63 5 0 c 1
 23 100 l 1xc0
83 290 m 1
 104 356 219 398 219 398 c 1
 203 302 l 1
 203 302 86 253 65 190 c 1
 83 290 l 1
268 415 m 5
 289 481 404 523 404 523 c 5
 388 427 l 5
 388 427 271 378 250 315 c 5
 268 415 l 5
237 244 m 1
 317 119 l 1
 300 20 l 1
 220 145 l 1
 237 244 l 1
277 -154 m 0
 233 -154 216 -121 216 -79 c 0xe0
 216 -67 217 -53 220 -40 c 2
 235 42 l 2
 237 52 248 55 247 37 c 0xd0
 246 24 245 10 245 -2 c 0xe0
 245 -29 252 -56 289 -56 c 0
 326 -56 347 18 356 69 c 0
 357 76 362 80 365 80 c 0
 368 80 370 78 369 73 c 2
 355 -23 l 2
 345 -86 327 -154 277 -154 c 0
EndSplineSet
Validated: 1
Position2: "Advance neume with cinnabar mark-1" dx=200 dy=0 dh=0 dv=0
LCarets2: 2 0 0 
Ligature2: "'ccmp' Precomposed Neumes-1" uniEE93 uniEE50 uniEE55
Colour: 4cff40
EndChar
StartChar: uniEE98EE50
Encoding: 60022 60022 351
Width: 415
VWidth: 0
GlyphClass: 3
Flags: W
HStem: 0 21G<8.6 15.5> 56 98<251.18 318.01>
VStem: 216 31<161.086 232.781>
AnchorPoint: "Podtinka" 11.6329 -5.00001 basechar 0
AnchorPoint: "Kupnaya" 111 450 basechar 0
AnchorPoint: "Shaidur" 10 187 basechar 0
AnchorPoint: "Otsechka" 445 117 basechar 0
AnchorPoint: "Borzaya" 110 450 basechar 0
AnchorPoint: "Podvertka" 209 582 basechar 0
AnchorPoint: "Tonal" 457 650 basechar 0
AnchorPoint: "Zaderzhka" 111 448.9 basechar 0
AnchorPoint: "Podchashie" 207 583 basechar 0
AnchorPoint: "Oblachko" 109 450 basechar 0
AnchorPoint: "Tikhaya" 62 110.5 basechar 0
AnchorPoint: "Lomka" 109 450 basechar 0
AnchorPoint: "Kachka" 111 448 basechar 0
AnchorPoint: "Udarka" 109 449 basechar 0
AnchorPoint: "Zevok" 111 449 basechar 0
LayerCount: 3
Fore
SplineSet
23 100 m 1
 44 166 159 208 159 208 c 1
 143 112 l 1
 143 112 26 63 5 0 c 1
 23 100 l 1
83 290 m 1
 104 356 219 398 219 398 c 1
 203 302 l 1
 203 302 86 253 65 190 c 1
 83 290 l 1
268 415 m 1
 289 481 404 523 404 523 c 1
 388 427 l 1
 388 427 271 378 250 315 c 1
 268 415 l 1
277 56 m 0
 233 56 216 89 216 131 c 0
 216 143 217 157 220 170 c 2
 235 252 l 2
 237 262 247 265 247 247 c 0
 247 234 245 220 245 208 c 0
 245 181 252 154 289 154 c 0
 326 154 347 228 356 279 c 0
 357 286 362 290 365 290 c 0
 368 290 370 288 369 283 c 2
 355 187 l 2
 345 124 327 56 277 56 c 0
EndSplineSet
Validated: 1
Position2: "Advance neume with cinnabar mark-1" dx=200 dy=0 dh=0 dv=0
LCarets2: 1 239 
Ligature2: "'ccmp' Precomposed Neumes-1" uniEE98 uniEE50
Colour: 4cff40
EndChar
StartChar: uniEA79
Encoding: 60025 60025 480
Width: 322
VWidth: 750
Flags: W
HStem: -2 21G<51 52.5 223 225>
VStem: 0 128<65.9763 132.567>
DStem2: 151 210 200 281 0.345537 0.938405<-12.1646 71.7589 202.234 286.299>
LayerCount: 3
Fore
SplineSet
301 390 m 0
 301 370 272 288 259 288 c 0
 241 288 221 284 200 281 c 1
 192 258 183 232 173 204 c 0
 169 193 164 188 158 188 c 0
 152 188 148 192 148 198 c 0
 148 201 149 205 151 210 c 0
 159 238 166 261 174 278 c 1
 155 278 137 273 121 267 c 0
 115 266 114 267 116 274 c 0
 134 334 148 367 158 374 c 0
 166 380 185 385 214 389 c 1
 223 412 232 436 242 462 c 0
 247 475 253 481 261 481 c 0
 268 481 271 478 271 471 c 0
 271 469 270 465 268 462 c 0
 259 434 250 410 242 392 c 1
 261 395 277 396 289 396 c 0
 296 396 301 396 301 390 c 0
298 117 m 0
 300 115 300 112 300 109 c 0
 300 105 299 102 298 97 c 0
 291 80 268 49 230 3 c 0
 228 -0 226 -2 224 -2 c 0
 222 -2 219 2 216 8 c 0
 209 23 195 48 172 86 c 0
 171 89 170 92 170 95 c 0
 170 99 172 104 175 108 c 0
 177 110 198 138 238 190 c 0
 241 192 243 194 245 194 c 0
 248 194 250 192 253 190 c 0
 274 170 284 153 298 117 c 0
126 117 m 0
 128 115 128 112 128 109 c 0
 128 105 127 102 125 97 c 0
 118 80 96 49 58 3 c 0
 56 -0 53 -2 52 -2 c 0
 50 -2 46 2 44 8 c 0
 37 23 22 48 0 86 c 0
 -2 89 0 92 0 95 c 0
 0 99 -1 104 2 108 c 0
 4 110 26 138 66 190 c 0
 68 192 70 194 73 194 c 0
 75 194 78 192 80 190 c 0
 102 170 111 153 126 117 c 0
EndSplineSet
Validated: 1
Colour: 4cff40
EndChar
StartChar: uniEA7A
Encoding: 60026 60026 481
Width: 321
VWidth: 750
Flags: W
HStem: -3 21G<49 55.5>
DStem2: 46 20 68 14 0.336336 0.941742<-11.8405 71.7742 201.709 286.022>
LayerCount: 3
Fore
SplineSet
298 399 m 0
 300 397 300 394 300 391 c 0
 300 387 299 384 298 379 c 0
 291 362 268 331 230 285 c 0
 228 282 226 280 224 280 c 0
 222 280 219 284 216 290 c 0
 209 305 195 330 172 368 c 0
 171 371 170 374 170 377 c 0
 170 381 172 386 175 390 c 0
 177 392 198 420 238 472 c 0
 241 474 243 476 245 476 c 0
 248 476 250 474 253 472 c 0
 274 452 284 435 298 399 c 0
126 399 m 0
 128 394 128 387 125 379 c 0
 118 362 96 331 58 285 c 0
 56 282 53 280 52 280 c 0
 50 280 46 284 44 290 c 0
 37 305 22 330 0 368 c 0
 -2 371 -2 374 -2 377 c 0
 -2 381 -1 386 2 390 c 0
 4 392 26 420 66 472 c 0
 68 474 70 476 73 476 c 0
 75 476 78 474 80 472 c 0
 102 452 111 435 126 399 c 0
196 199 m 0
 196 180 167 97 154 97 c 0
 136 97 117 94 95 90 c 1
 87 67 78 42 68 14 c 0
 64 2 59 -3 52 -3 c 0
 46 -3 44 1 44 8 c 0
 44 11 44 15 46 20 c 0
 54 48 62 71 69 88 c 1
 50 88 32 83 16 77 c 0
 11 76 10 77 10 79 c 0
 10 80 10 82 10 84 c 0
 29 144 44 176 52 183 c 0
 61 190 80 194 110 198 c 1
 118 222 127 246 136 272 c 0
 142 284 148 290 156 290 c 0
 163 290 166 288 166 281 c 0
 166 278 165 275 164 271 c 0
 154 243 145 220 136 201 c 1
 156 204 172 206 184 206 c 0
 191 206 196 205 196 199 c 0
EndSplineSet
Validated: 1
Colour: 4cff40
EndChar
StartChar: uniEA7B
Encoding: 60027 60027 482
Width: 603
VWidth: 750
Flags: W
HStem: 0 21G<131.5 134 304 306.5>
VStem: 80 129<66.4277 131.652> 252 130<67.9763 130.979>
DStem2: 181 340 136 230 0.9442 0.329372<-124.51 -45.0523 103.97 201.549> 338 550 294 440 0.944539 0.328399<-139.673 -44.4435 104.936 200.491>
LayerCount: 3
Fore
SplineSet
580 620 m 0
 572 596 544 528 526 522 c 0
 465 500 439 492 398 466 c 0
 394 464 392 462 390 463 c 0
 388 463 388 465 390 469 c 0
 398 488 444 568 456 582 c 0
 465 592 480 602 502 610 c 0
 506 611 530 619 571 632 c 0
 574 633 576 634 578 634 c 0
 580 634 582 632 582 628 c 0
 582 626 581 624 580 620 c 0
348 538 m 0
 340 514 311 446 294 440 c 0
 232 417 206 410 165 383 c 0
 161 381 159 380 158 380 c 0
 156 380 156 382 158 386 c 0
 165 405 212 486 224 500 c 0
 232 509 248 519 269 527 c 0
 274 529 297 536 338 550 c 0
 341 550 344 551 345 551 c 0
 350 551 351 547 348 538 c 0
423 410 m 0
 415 386 386 318 369 312 c 0
 308 290 281 282 240 256 c 0
 236 254 234 252 232 253 c 0
 231 253 231 255 232 259 c 0
 240 278 286 358 298 372 c 0
 308 382 322 392 344 400 c 0
 349 401 372 409 413 422 c 0
 416 423 418 424 420 424 c 0
 423 424 424 422 424 418 c 0
 424 416 424 414 423 410 c 0
380 119 m 0
 381 117 382 115 382 112 c 0
 382 108 381 104 379 99 c 0
 372 82 350 51 312 5 c 0
 310 2 308 0 305 0 c 0
 303 0 300 4 297 10 c 0
 291 25 277 50 254 88 c 0
 253 91 252 94 252 97 c 0
 252 101 254 106 256 110 c 0
 259 112 280 140 320 192 c 0
 322 194 324 195 326 195 c 0
 339 195 357 166 361 159 c 0
 366 152 372 139 380 119 c 0
190 328 m 0
 182 304 154 236 136 230 c 0
 75 207 49 200 8 173 c 0
 4 171 2 170 0 170 c 0
 -1 170 0 171 0 172 c 0
 0 172 -1 174 0 176 c 0
 8 195 54 276 66 290 c 0
 75 299 90 309 112 317 c 0
 116 319 140 326 181 340 c 0
 184 340 186 341 188 341 c 0
 193 341 194 337 190 328 c 0
208 119 m 0
 208 117 209 115 209 112 c 0
 209 108 208 104 206 99 c 0
 200 82 178 51 140 5 c 0
 137 2 135 0 133 0 c 0
 130 0 128 4 124 10 c 0
 118 25 104 50 82 88 c 0
 80 91 80 94 80 97 c 0
 80 101 81 106 84 110 c 0
 86 112 107 140 148 192 c 0
 150 194 152 196 154 196 c 0
 157 196 159 194 162 192 c 0
 184 172 193 155 208 119 c 0
EndSplineSet
Validated: 1
Colour: 4cff40
EndChar
StartChar: uniEA7C
Encoding: 60028 60028 483
Width: 808
VWidth: 750
Flags: W
HStem: 0 21G<373 375> 484 116<426.556 482.413>
VStem: 0 128<142.983 209.567> 170 130<142.174 206.366> 485 130<141.436 206.366> 658 130<142.983 206.652>
LayerCount: 3
Fore
SplineSet
470 600 m 0
 493 600 506 579 506 555 c 0
 506 550 506 546 505 541 c 0
 498 508 484 476 464 445 c 0
 460 440 456 437 452 437 c 0
 450 437 449 439 449 441 c 0
 449 445 454 458 454 463 c 0
 454 477 445 484 427 484 c 0
 408 484 393 476 381 461 c 0
 370 446 363 439 361 439 c 0
 358 439 357 441 357 446 c 0
 356 450 357 454 358 457 c 0
 376 498 390 527 400 544 c 0
 423 581 446 600 470 600 c 0
786 194 m 0
 788 192 788 189 788 186 c 0
 788 182 787 178 785 174 c 0
 778 157 756 126 718 80 c 0
 716 76 713 75 712 75 c 0
 710 75 706 79 704 86 c 0
 697 100 682 125 660 163 c 0
 658 166 658 169 658 172 c 0
 658 176 659 181 662 185 c 0
 664 188 686 215 726 267 c 0
 730 272 735 272 740 267 c 0
 762 247 771 230 786 194 c 0
614 194 m 0
 615 192 615 189 615 186 c 0
 615 182 614 178 613 174 c 0
 606 157 584 126 545 80 c 0
 543 76 541 75 539 75 c 0
 537 75 534 79 531 86 c 0
 524 100 510 125 488 163 c 0
 486 166 485 169 485 172 c 0
 485 176 487 181 490 185 c 0
 492 188 513 215 554 267 c 0
 558 272 562 272 568 267 c 0
 590 247 598 230 614 194 c 0
464 338 m 0
 465 335 465 332 465 328 c 0
 465 325 464 321 463 316 c 0
 456 299 434 268 395 223 c 0
 393 219 391 218 389 218 c 0
 387 218 384 221 381 228 c 0
 374 242 360 268 338 305 c 0
 336 308 335 311 335 314 c 0
 335 319 337 323 340 328 c 0
 342 330 363 358 404 410 c 0
 406 412 408 413 410 413 c 0
 412 413 416 412 418 410 c 0
 440 389 448 374 464 338 c 0
448 119 m 0
 450 117 450 114 450 111 c 0
 450 107 449 104 448 99 c 0
 441 82 418 51 380 5 c 0
 378 2 376 0 374 0 c 0
 372 0 369 4 366 10 c 0
 359 25 345 50 322 88 c 0
 321 91 320 94 320 97 c 0
 320 101 322 106 325 110 c 0
 327 112 348 140 388 192 c 0
 393 197 398 197 403 192 c 0
 424 172 434 155 448 119 c 0
298 194 m 0
 300 192 300 189 300 186 c 0
 300 182 299 178 298 174 c 0
 291 157 268 126 230 80 c 0
 228 76 226 75 224 75 c 0
 222 75 219 79 216 86 c 0
 209 100 195 125 172 163 c 0
 171 166 170 169 170 172 c 0
 170 176 172 181 175 185 c 0
 177 188 198 215 238 267 c 0
 241 269 243 271 245 271 c 0
 248 271 250 269 253 267 c 0
 274 247 284 230 298 194 c 0
126 194 m 0
 128 192 128 189 128 186 c 0
 128 182 127 178 125 174 c 0
 118 157 96 126 58 80 c 0
 56 76 53 75 52 75 c 0
 50 75 46 79 44 86 c 0
 37 100 22 125 0 163 c 0
 -2 166 0 169 0 172 c 0
 0 176 -1 181 2 185 c 0
 4 188 26 215 66 267 c 0
 68 269 70 271 73 271 c 0
 75 271 78 269 80 267 c 0
 102 247 111 230 126 194 c 0
EndSplineSet
Validated: 1
Colour: 4cff40
EndChar
StartChar: uniEA7D
Encoding: 60029 60029 484
Width: 651
VWidth: 750
Flags: W
HStem: 0 21G<242.5 246> 552 80<587.704 617.173> 555 91<502.518 548.086 589.44 617.173> 649 20G<358.5 363>
VStem: 212 51<97.9778 192.877> 212 32<224 274.417> 274 10<640.505 646.911> 300 44<144.672 208 238 327.601>
DStem2: 94 430 0 316 0.896552 0.442939<0.847029 117.124 126.147 202.008 239.699 413.52> 244 224 245 194 0.970142 0.242536<0 50.4474> 274 523 302 542 0.480077 0.877226<29.451 169.294>
LayerCount: 3
Fore
SplineSet
620 577 m 0xd3
 616 572 609 563 601 552 c 0xd3
 600 552 597 546 590 534 c 0
 584 524 579 519 573 519 c 0
 567 519 560 524 550 532 c 0
 529 550 527 555 506 555 c 0
 502 555 499 554 496 554 c 0
 458 544 406 519 368 502 c 0
 321 483 74 353 0 316 c 0
 -1 315 0 316 0 317 c 0
 0 321 5 332 16 350 c 1
 65 434 118 520 175 610 c 1
 177 611 179 612 182 612 c 0
 185 612 188 610 188 607 c 0
 188 605 187 604 186 602 c 0
 155 550 124 496 94 442 c 1
 90 434 89 429 91 429 c 0
 92 429 93 430 94 430 c 0
 110 438 136 452 171 471 c 0
 182 478 262 637 274 645 c 0
 276 646 278 647 280 647 c 0
 285 647 286 642 284 638 c 0
 258 590 232 542 204 491 c 1
 205 490 206 489 206 488 c 0
 207 488 208 489 210 490 c 0
 228 498 267 511 274 523 c 0
 301 570 327 617 353 665 c 0
 355 668 357 669 360 669 c 0
 366 669 368 667 367 662 c 1
 349 630 327 590 302 542 c 0
 302 539 302 538 304 538 c 2
 308 538 l 1
 350 557 390 577 430 596 c 0
 478 616 524 633 567 645 c 0
 568 645 569 646 571 646 c 0xb3
 579 646 590 640 606 632 c 0
 624 621 633 611 633 602 c 0
 633 596 628 590 620 577 c 0xd3
344 278 m 0
 344 221 334 174 316 126 c 0
 303 93 282 53 254 7 c 0
 250 2 248 0 244 0 c 0x97
 241 0 238 2 238 7 c 0
 220 64 212 117 212 167 c 0
 212 173 212 180 212 186 c 0x9b
 212 256 244 332 302 416 c 0
 306 422 309 424 312 424 c 0
 315 424 317 422 320 417 c 0
 336 380 344 334 344 278 c 0
300 238 m 1
 300 280 290 311 273 338 c 1
 254 296 244 259 244 224 c 1
 300 238 l 1
300 208 m 1
 245 194 l 1
 248 170 254 149 263 131 c 0x9b
 263 130 270 118 284 97 c 1
 288 114 293 151 300 208 c 1
EndSplineSet
Validated: 1
Colour: 4cff40
EndChar
StartChar: uniEA82
Encoding: 60034 60034 399
Width: 800
Flags: W
HStem: 0 21G<34.9936 52.779> 460 98<671.698 743.058>
VStem: 94 18<602 620>
DStem2: 33 0 62 100 0.0979143 0.995195<102.359 312.541 389.856 622.994> 233 279 212 181 0.859456 0.511209<-143.168 503.142>
AnchorPoint: "Podtinka" 44.6329 -5.00001 basechar 0
AnchorPoint: "Shaidur" -56 258 basechar 0
AnchorPoint: "Borzaya" 768 4 basechar 0
AnchorPoint: "Podvertka" 704 348 basechar 0
AnchorPoint: "Zaderzhka" 810 483.9 basechar 0
AnchorPoint: "Podchashie" 394 214 basechar 0
AnchorPoint: "Oblachko" 664 645 basechar 0
AnchorPoint: "Tikhaya" 38 260 basechar 0
AnchorPoint: "Lomka" 617 180 basechar 0
AnchorPoint: "Kachka" 290 556 basechar 0
AnchorPoint: "Kupnaya" 364 -108 basechar 0
AnchorPoint: "Udarka" 762 182 basechar 0
AnchorPoint: "Zevok" 805 646 basechar 0
AnchorPoint: "Otsechka" 823 308 basechar 0
AnchorPoint: "Tonal" 375 475 basechar 0
LayerCount: 3
Fore
SplineSet
233 279 m 2
 618 508 l 1
 618 508 705 558 729 558 c 0
 748 558 772 522 779 508 c 1
 762 410 l 1
 755 424 731 460 712 460 c 0
 687 460 597 410 597 410 c 1
 212 181 l 2
 91 109 33 0 33 0 c 1
 64 311 l 1
 8 338 l 1
 16 416 l 1
 71 388 l 1
 94 620 l 1
 112 620 l 1
 62 100 l 1
 85 169 174 244 233 279 c 2
EndSplineSet
Validated: 1
LCarets2: 1 0 
Ligature2: "'ccmp' Priznak-based Compositions-1" uniEA80 uniEEE2
Position2: "Advance neume with cinnabar mark-1" dx=200 dy=0 dh=0 dv=0
Colour: faff80
EndChar
StartChar: uniEA83
Encoding: 60035 60035 400
Width: 800
Flags: W
HStem: 0 21G<34.9601 52.779> 460 98<671.698 743.058>
DStem2: 33 0 62 100 0.0975363 0.995232<102.352 553.64> 233 279 212 181 0.859456 0.511209<-143.168 503.142>
AnchorPoint: "Podtinka" 44.6329 -5.00001 basechar 0
AnchorPoint: "Shaidur" 15 342 basechar 0
AnchorPoint: "Borzaya" 827 4 basechar 0
AnchorPoint: "Podvertka" 763 348 basechar 0
AnchorPoint: "Zaderzhka" 869 483.9 basechar 0
AnchorPoint: "Podchashie" 453 214 basechar 0
AnchorPoint: "Oblachko" 723 645 basechar 0
AnchorPoint: "Tikhaya" 97 260 basechar 0
AnchorPoint: "Lomka" 676 180 basechar 0
AnchorPoint: "Kachka" 349 556 basechar 0
AnchorPoint: "Kupnaya" 423 -108 basechar 0
AnchorPoint: "Udarka" 821 182 basechar 0
AnchorPoint: "Zevok" 864 646 basechar 0
AnchorPoint: "Otsechka" 823 308 basechar 0
AnchorPoint: "Tonal" 375 475 basechar 0
LayerCount: 3
Fore
SplineSet
36 576 m 1
 44 654 l 1
 111 620 l 1
 112 620 l 1
 62 100 l 1
 85 169 174 244 233 279 c 2
 618 508 l 1
 618 508 705 558 729 558 c 0
 748 558 772 522 779 508 c 1
 762 410 l 1
 755 424 731 460 712 460 c 0
 687 460 597 410 597 410 c 1
 212 181 l 2
 91 109 33 0 33 0 c 1
 87 551 l 1
 36 576 l 1
EndSplineSet
Validated: 1
LCarets2: 1 0 
Ligature2: "'ccmp' Priznak-based Compositions-1" uniEA81 uniEEE2
Position2: "Advance neume with cinnabar mark-1" dx=200 dy=0 dh=0 dv=0
Colour: faff80
EndChar
StartChar: uniEA85
Encoding: 60037 60037 290
Width: 775
Flags: W
HStem: 0 21G<34.954 52.779 374 398.295> 451 21G<29.4343 31> 460 98<671.698 743.058>
VStem: 374 22<0 22>
DStem2: 33 0 62 100 0.0972382 0.995261<102.346 524.485> 233 279 212 181 0.859456 0.511209<-143.168 159.607 183.464 503.142> 374 0 396 0 0.114006 0.99348<2.50813 298.94>
AnchorPoint: "Podtinka" 44.6329 -5.00001 basechar 0
AnchorPoint: "Shaidur" 15 342 basechar 0
AnchorPoint: "Borzaya" 827 4 basechar 0
AnchorPoint: "Podvertka" 763 348 basechar 0
AnchorPoint: "Zaderzhka" 869 483.9 basechar 0
AnchorPoint: "Podchashie" 453 214 basechar 0
AnchorPoint: "Oblachko" 723 645 basechar 0
AnchorPoint: "Tikhaya" 97 260 basechar 0
AnchorPoint: "Lomka" 676 180 basechar 0
AnchorPoint: "Kachka" 349 556 basechar 0
AnchorPoint: "Kupnaya" 423 -108 basechar 0
AnchorPoint: "Udarka" 821 182 basechar 0
AnchorPoint: "Zevok" 864 646 basechar 0
AnchorPoint: "Otsechka" 823 308 basechar 0
AnchorPoint: "Tonal" 375 475 basechar 0
LayerCount: 3
Fore
SplineSet
408 297 m 1xb0
 212 181 l 2
 91 109 33 0 33 0 c 1
 84 522 l 1
 47 511 36 492 26 451 c 1xd0
 43 550 l 2
 50 584 63 607 94 618 c 1
 94 620 l 1
 99 620 l 2
 100 620 101 621 102 621 c 1
 102 620 l 1
 112 620 l 1
 62 100 l 1
 85 169 174 244 233 279 c 2
 618 508 l 1
 618 508 705 558 729 558 c 0
 748 558 772 522 779 508 c 1
 762 410 l 1
 755 424 731 460 712 460 c 0
 687 460 597 410 597 410 c 1
 431 305 l 1
 396 0 l 1
 374 0 l 1
 408 297 l 1xb0
EndSplineSet
Validated: 1
LCarets2: 1 0 
Position2: "Advance neume with cinnabar mark-1" dx=200 dy=0 dh=0 dv=0
Ligature2: "'ccmp' Priznak Composition-1" uniEE71 uniEEE1
Colour: faff80
EndChar
StartChar: uniEA88
Encoding: 60040 60040 291
Width: 803
VWidth: 999
Flags: W
HStem: 0 21G<39.9931 57.779> 460 98<676.698 748.058> 540 99<107.837 198.888>
DStem2: 38 0 67 100 0.0979143 0.995195<102.359 292.441 386.19 540.203> 238 279 217 181 0.859456 0.511209<-143.168 164.984 191.049 503.142> 380 363 402 377 0.187112 0.982339<17.8692 149.643>
AnchorPoint: "Podtinka" 44.6329 -5.00001 basechar 0
AnchorPoint: "Zevok" 863 645 basechar 0
AnchorPoint: "Udarka" -101 456 basechar 0
AnchorPoint: "Kupnaya" 454 -108 basechar 0
AnchorPoint: "Kachka" 349 556 basechar 0
AnchorPoint: "Lomka" 722 126 basechar 0
AnchorPoint: "Tikhaya" 97 260 basechar 0
AnchorPoint: "Oblachko" 723 645 basechar 0
AnchorPoint: "Podchashie" 453 214 basechar 0
AnchorPoint: "Zaderzhka" 869 483.9 basechar 0
AnchorPoint: "Tonal" 375 475 basechar 0
AnchorPoint: "Podvertka" 767 330 basechar 0
AnchorPoint: "Borzaya" 831 20 basechar 0
AnchorPoint: "Otsechka" 837 286 basechar 0
AnchorPoint: "Shaidur" -2.00003 458 basechar 0
LayerCount: 3
Fore
SplineSet
408 510 m 1xa0
 429 518 l 1
 402 377 l 1
 623 508 l 1
 623 508 710 558 734 558 c 0
 753 558 777 522 784 508 c 1
 767 410 l 1
 760 424 736 460 717 460 c 0xc0
 692 460 602 410 602 410 c 1
 217 181 l 2
 96 109 38 0 38 0 c 1
 67 291 l 1
 26 280 11 262 0 218 c 1
 19 317 l 2
 25 352 37 377 76 388 c 1
 99 620 l 1
 99 620 129 639 160 639 c 0
 184 639 201 637 213 624 c 1
 196 525 l 1
 184 538 167 540 143 540 c 0
 121 540 108 528 108 528 c 1
 67 100 l 1
 90 169 179 244 238 279 c 2
 380 363 l 1
 408 510 l 1xa0
EndSplineSet
Validated: 1
LCarets2: 1 0 
Position2: "Advance neume with cinnabar mark-1" dx=200 dy=0 dh=0 dv=0
Substitution2: "Depriznakify-1" uniEE72
Ligature2: "'ccmp' Priznak Composition-1" uniEE72 uniEEE0
Colour: faff80
EndChar
StartChar: uniEA89
Encoding: 60041 60041 292
Width: 803
VWidth: 999
Flags: W
HStem: 0 21G<39.9931 57.779> 540 99<107.837 198.888>
DStem2: 38 0 67 100 0.0979143 0.995195<102.359 292.441 386.19 539.866> 238 279 217 181 0.859456 0.511209<-143.168 503.142> 770 530 767 411 0.191211 0.981549<0 99.6336>
AnchorPoint: "Podtinka" 44.6329 -5.00001 basechar 0
AnchorPoint: "Zevok" 863 645 basechar 0
AnchorPoint: "Udarka" -101 456 basechar 0
AnchorPoint: "Kupnaya" 454 -108 basechar 0
AnchorPoint: "Kachka" 349 556 basechar 0
AnchorPoint: "Lomka" 722 126 basechar 0
AnchorPoint: "Tikhaya" 97 260 basechar 0
AnchorPoint: "Oblachko" 723 645 basechar 0
AnchorPoint: "Podchashie" 453 214 basechar 0
AnchorPoint: "Zaderzhka" 869 483.9 basechar 0
AnchorPoint: "Tonal" 375 475 basechar 0
AnchorPoint: "Podvertka" 767 330 basechar 0
AnchorPoint: "Borzaya" 831 20 basechar 0
AnchorPoint: "Otsechka" 837 375 basechar 0
AnchorPoint: "Shaidur" -2.00003 458 basechar 0
LayerCount: 3
Fore
SplineSet
76 388 m 1
 99 620 l 1
 99 620 129 639 160 639 c 0
 184 639 201 637 213 624 c 1
 196 525 l 1
 184 538 167 540 143 540 c 0
 121 540 108 528 108 528 c 1
 67 100 l 1
 90 169 179 244 238 279 c 2
 623 508 l 1
 623 508 682 542 716 554 c 1
 737 558 l 1
 748 556 760 543 770 530 c 1
 788 628 l 1
 812 642 l 1
 767 411 l 1
 767 410 l 1
 766 412 765 415 763 418 c 2
 754 431 l 2
 743 445 729 460 717 460 c 0
 692 460 602 410 602 410 c 1
 217 181 l 2
 96 109 38 0 38 0 c 1
 67 291 l 1
 26 280 13 262 2 218 c 1
 19 317 l 2
 25 352 37 377 76 388 c 1
EndSplineSet
Validated: 1
LCarets2: 1 0 
Position2: "Advance neume with cinnabar mark-1" dx=200 dy=0 dh=0 dv=0
Ligature2: "'ccmp' Priznak Composition-1" uniEE72 uniEEE1
Colour: faff80
EndChar
StartChar: uniEA8A
Encoding: 60042 60042 293
Width: 784
VWidth: 999
Flags: W
HStem: 0 21G<34.9737 52.779> 460 98<671.698 743.058>
VStem: 94 18<602 620> 344 19<601 620> 419 19<601 620>
DStem2: 33 0 62 100 0.0979143 0.995195<102.359 305.477 396.646 622.994> 233 279 212 181 0.859456 0.511209<-143.168 95.5247 117.826 188.308 210.609 503.142> 315 328 335 338 0.0988289 0.995104<11.9276 293.437> 395 375 415 385 0.0974925 0.995236<11.9022 246.173>
AnchorPoint: "Podtinka" 44.6329 -5.00001 basechar 0
AnchorPoint: "Zevok" 864 648 basechar 0
AnchorPoint: "Udarka" -66 346 basechar 0
AnchorPoint: "Kupnaya" 430 -105 basechar 0
AnchorPoint: "Kachka" 479 648 basechar 0
AnchorPoint: "Lomka" 723 54 basechar 0
AnchorPoint: "Tikhaya" 62 229.5 basechar 0
AnchorPoint: "Oblachko" 722 649 basechar 0
AnchorPoint: "Podchashie" 432 225 basechar 0
AnchorPoint: "Zaderzhka" 869 483.9 basechar 0
AnchorPoint: "Tonal" 434 700 basechar 0
AnchorPoint: "Podvertka" 761 320 basechar 0
AnchorPoint: "Borzaya" 819 50 basechar 0
AnchorPoint: "Otsechka" 824 375 basechar 0
AnchorPoint: "Shaidur" 7 348 basechar 0
LayerCount: 3
Fore
SplineSet
335 338 m 1
 395 375 l 1
 419 620 l 1
 438 620 l 1
 415 385 l 1
 618 508 l 1
 618 508 705 558 729 558 c 0
 748 558 772 522 779 508 c 1
 762 410 l 1
 755 424 731 460 712 460 c 0
 687 460 597 410 597 410 c 1
 212 181 l 2
 91 109 33 0 33 0 c 1
 63 304 l 1
 24 292 13 274 3 231 c 1
 20 330 l 2
 27 365 41 388 72 400 c 1
 94 620 l 1
 112 620 l 1
 62 100 l 1
 85 169 174 244 233 279 c 2
 315 328 l 1
 344 620 l 1
 363 620 l 1
 335 338 l 1
EndSplineSet
Validated: 1
Position2: "Advance neume with cinnabar mark-1" dx=200 dy=0 dh=0 dv=0
LCarets2: 1 0 
Ligature2: "'ccmp' Priznak Composition-1" uniEE73 uniEEE0
Colour: faff80
EndChar
StartChar: uniEA8B
Encoding: 60043 60043 294
Width: 784
VWidth: 999
Flags: W
HStem: 0 21G<34.954 52.779> 451 21G<29.4343 31> 460 98<671.698 743.058>
VStem: 344 19<601 620> 419 19<601 620>
DStem2: 33 0 62 100 0.0972382 0.995261<102.346 524.485> 233 279 212 181 0.859456 0.511209<-143.168 95.5247 117.826 188.308 210.609 503.142> 315 328 335 338 0.0988289 0.995104<11.9276 293.437> 395 375 415 385 0.0974925 0.995236<11.9022 246.173>
AnchorPoint: "Podtinka" 44.6329 -5.00001 basechar 0
AnchorPoint: "Zevok" 864 648 basechar 0
AnchorPoint: "Udarka" -66 346 basechar 0
AnchorPoint: "Kupnaya" 430 -105 basechar 0
AnchorPoint: "Kachka" 479 648 basechar 0
AnchorPoint: "Lomka" 723 54 basechar 0
AnchorPoint: "Tikhaya" 62 229.5 basechar 0
AnchorPoint: "Oblachko" 722 649 basechar 0
AnchorPoint: "Podchashie" 432 225 basechar 0
AnchorPoint: "Zaderzhka" 869 483.9 basechar 0
AnchorPoint: "Tonal" 434 700 basechar 0
AnchorPoint: "Podvertka" 761 320 basechar 0
AnchorPoint: "Borzaya" 819 50 basechar 0
AnchorPoint: "Otsechka" 824 315 basechar 0
AnchorPoint: "Shaidur" 7 348 basechar 0
LayerCount: 3
Fore
SplineSet
335 338 m 1xd8
 395 375 l 1
 419 620 l 1
 438 620 l 1
 415 385 l 1
 618 508 l 1
 618 508 705 558 729 558 c 0
 748 558 772 522 779 508 c 1
 762 410 l 1
 755 424 731 460 712 460 c 0xb8
 687 460 597 410 597 410 c 1
 212 181 l 2
 91 109 33 0 33 0 c 1
 84 522 l 1
 47 511 36 492 26 451 c 1
 43 550 l 2
 50 584 63 607 94 618 c 1
 94 620 l 1
 99 620 l 2
 100 620 101 621 102 621 c 1
 102 620 l 1
 112 620 l 1
 62 100 l 1
 85 169 174 244 233 279 c 2
 315 328 l 1
 344 620 l 1
 363 620 l 1
 335 338 l 1xd8
EndSplineSet
Validated: 1
Position2: "Advance neume with cinnabar mark-1" dx=200 dy=0 dh=0 dv=0
LCarets2: 1 0 
Ligature2: "'ccmp' Priznak Composition-1" uniEE73 uniEEE1
Colour: faff80
EndChar
StartChar: uniEA8E
Encoding: 60046 60046 295
Width: 774
Flags: W
HStem: 0 21G<34.9737 52.779> 460 98<671.698 743.058>
VStem: 94 18<602 620>
DStem2: 33 0 62 100 0.0979143 0.995195<102.359 305.477 396.646 622.994> 233 279 212 181 0.859456 0.511209<-143.168 190.538 293.718 503.142> 456 432 358 415 0.707107 -0.707107<-57.2757 -2.12132 95.4594 154.856> 434 209 458 223 0.0998125 0.995006<16.3256 100.705 224.082 320.601>
AnchorPoint: "Podtinka" 44.6329 -5.00001 basechar 0
AnchorPoint: "Shaidur" 7 348 basechar 0
AnchorPoint: "Borzaya" 819 50 basechar 0
AnchorPoint: "Podvertka" 761 320 basechar 0
AnchorPoint: "Zaderzhka" 869 483.9 basechar 0
AnchorPoint: "Podchashie" 432 225 basechar 0
AnchorPoint: "Oblachko" 722 649 basechar 0
AnchorPoint: "Tikhaya" 62 229.5 basechar 0
AnchorPoint: "Lomka" 723 54 basechar 0
AnchorPoint: "Kachka" 479 648 basechar 0
AnchorPoint: "Kupnaya" 430 -105 basechar 0
AnchorPoint: "Udarka" -66 346 basechar 0
AnchorPoint: "Zevok" 864 648 basechar 0
AnchorPoint: "Otsechka" 823 308 basechar 0
AnchorPoint: "Tonal" 415 675 basechar 0
LayerCount: 3
Fore
SplineSet
466 528 m 1
 489 542 l 1
 477 424 l 1
 618 508 l 1
 618 508 705 558 729 558 c 0
 748 558 772 522 779 508 c 1
 762 410 l 1
 755 424 731 460 712 460 c 0
 687 460 597 410 597 410 c 1
 523 366 l 1
 566 323 l 1
 549 224 l 1
 466 307 l 1
 458 223 l 1
 434 209 l 1
 445 320 l 1
 212 181 l 2
 91 109 33 0 33 0 c 1
 63 304 l 1
 24 292 13 274 3 231 c 1
 20 330 l 2
 27 365 41 388 72 400 c 1
 94 620 l 1
 112 620 l 1
 62 100 l 1
 85 169 174 244 233 279 c 2
 397 376 l 1
 358 415 l 1
 375 514 l 1
 456 432 l 1
 466 528 l 1
EndSplineSet
Validated: 1
LCarets2: 1 0 
Position2: "Advance neume with cinnabar mark-1" dx=200 dy=0 dh=0 dv=0
Ligature2: "'ccmp' Priznak Composition-1" uniEE74 uniEEE0
Colour: faff80
EndChar
StartChar: uniEA93
Encoding: 60051 60051 329
Width: 205
Flags: W
HStem: 0 21G<34.9157 43.5> 451 21G<29.4343 31>
VStem: 26 161
DStem2: 33 0 61 100 0.095349 0.995444<102.214 524.389>
AnchorPoint: "Podtinka" 44.6329 -5.00001 basechar 0
AnchorPoint: "Kupnaya" 110 -78 basechar 0
AnchorPoint: "Shaidur" 15 342 basechar 0
AnchorPoint: "Borzaya" 347 4 basechar 0
AnchorPoint: "Podvertka" 265 128 basechar 0
AnchorPoint: "Zaderzhka" 99 724 basechar 0
AnchorPoint: "Podchashie" 99 724 basechar 0
AnchorPoint: "Oblachko" 101 725 basechar 0
AnchorPoint: "Tikhaya" 57 184 basechar 0
AnchorPoint: "Lomka" 236 6 basechar 0
AnchorPoint: "Kachka" 100 724 basechar 0
AnchorPoint: "Udarka" -61 342 basechar 0
AnchorPoint: "Zevok" 99 724 basechar 0
AnchorPoint: "Otsechka" 212 44 basechar 0
AnchorPoint: "Tonal" 97 675 basechar 0
LayerCount: 3
Fore
SplineSet
61 100 m 1
 82 166 187 208 187 208 c 1
 173 115 l 1
 173 115 54 63 33 0 c 1
 83 522 l 1
 46 510 36 491 26 451 c 1
 43 550 l 2
 49 583 62 606 92 618 c 1
 92 620 l 1
 99 620 l 2
 100 620 101 621 102 621 c 1
 102 620 l 1
 110 620 l 1
 61 100 l 1
EndSplineSet
Validated: 1
Position2: "Advance neume with cinnabar mark-1" dx=200 dy=0 dh=0 dv=0
LCarets2: 1 0 
Ligature2: "'ccmp' Priznak Composition-1" uniEE75 uniEEE1
Colour: faff80
EndChar
StartChar: uniEA94
Encoding: 60052 60052 301
Width: 205
Flags: W
HStem: 0 21G<34.9293 43.5>
VStem: 92 18<602 620>
DStem2: 33 0 61 100 0.0947333 0.995503<102.203 312.443 390.756 622.801>
AnchorPoint: "Podtinka" 44.6329 -5.00001 basechar 0
AnchorPoint: "Kupnaya" 102 724 basechar 0
AnchorPoint: "Shaidur" 15 342 basechar 0
AnchorPoint: "Borzaya" 347 4 basechar 0
AnchorPoint: "Podvertka" 265 128 basechar 0
AnchorPoint: "Zaderzhka" 99 724 basechar 0
AnchorPoint: "Podchashie" 99 724 basechar 0
AnchorPoint: "Oblachko" 101 725 basechar 0
AnchorPoint: "Tikhaya" 57 184 basechar 0
AnchorPoint: "Lomka" 236 6 basechar 0
AnchorPoint: "Kachka" 100 724 basechar 0
AnchorPoint: "Udarka" -61 342 basechar 0
AnchorPoint: "Zevok" 99 724 basechar 0
AnchorPoint: "Otsechka" 212 44 basechar 0
AnchorPoint: "Tonal" 97 675 basechar 0
LayerCount: 3
Fore
SplineSet
61 100 m 1
 82 166 187 208 187 208 c 1
 173 115 l 1
 173 115 54 63 33 0 c 1
 63 311 l 1
 8 338 l 1
 16 416 l 1
 70 389 l 1
 92 620 l 1
 110 620 l 1
 61 100 l 1
EndSplineSet
Validated: 1
LCarets2: 1 0 
Position2: "Advance neume with cinnabar mark-1" dx=200 dy=0 dh=0 dv=0
Ligature2: "'ccmp' Priznak-based Compositions-1" uniEA92 uniEEE2
Colour: faff80
EndChar
StartChar: uniEA95
Encoding: 60053 60053 300
Width: 205
Flags: W
HStem: 0 21G<34.8875 43.5>
VStem: 33 154
DStem2: 33 0 61 100 0.0939564 0.995576<102.188 553.448>
AnchorPoint: "Podtinka" 44.6329 -5.00001 basechar 0
AnchorPoint: "Kupnaya" 100 722 basechar 0
AnchorPoint: "Shaidur" 15 342 basechar 0
AnchorPoint: "Borzaya" 347 4 basechar 0
AnchorPoint: "Podvertka" 265 128 basechar 0
AnchorPoint: "Zaderzhka" 99 724 basechar 0
AnchorPoint: "Podchashie" 99 724 basechar 0
AnchorPoint: "Oblachko" 101 725 basechar 0
AnchorPoint: "Tikhaya" 57 184 basechar 0
AnchorPoint: "Lomka" 236 6 basechar 0
AnchorPoint: "Kachka" 100 724 basechar 0
AnchorPoint: "Udarka" -61 342 basechar 0
AnchorPoint: "Zevok" 99 724 basechar 0
AnchorPoint: "Otsechka" 212 44 basechar 0
AnchorPoint: "Tonal" 97 675 basechar 0
LayerCount: 3
Fore
SplineSet
61 100 m 1
 82 166 187 208 187 208 c 1
 173 115 l 1
 173 115 54 63 33 0 c 1
 85 551 l 1
 34 576 l 1
 42 654 l 1
 109 620 l 1
 110 620 l 1
 61 100 l 1
EndSplineSet
Validated: 1
LCarets2: 1 0 
Position2: "Advance neume with cinnabar mark-1" dx=200 dy=0 dh=0 dv=0
Ligature2: "'ccmp' Priznak-based Compositions-1" uniEA93 uniEEE2
Colour: faff80
EndChar
StartChar: uniEA96
Encoding: 60054 60054 303
Width: 360
GlyphClass: 3
Flags: W
HStem: 0 21G<34.9142 43.5>
VStem: 92 18<602 620>
DStem2: 33 0 61 100 0.0947333 0.995503<102.203 304.385 395.877 622.801>
AnchorPoint: "Podtinka" 44.6329 -5.00001 basechar 0
AnchorPoint: "Oblachko" 101 725 basechar 0
AnchorPoint: "Podchashie" 99 724 basechar 0
AnchorPoint: "Zaderzhka" 99 724 basechar 0
AnchorPoint: "Podvertka" 388 134 basechar 0
AnchorPoint: "Borzaya" 347 4 basechar 0
AnchorPoint: "Shaidur" 15 342 basechar 0
AnchorPoint: "Tikhaya" 52 200 basechar 0
AnchorPoint: "Kachka" 99 724 basechar 0
AnchorPoint: "Zevok" 316 614 basechar 0
AnchorPoint: "Udarka" 314 614 basechar 0
AnchorPoint: "Kupnaya" 100 722 basechar 0
AnchorPoint: "Lomka" 315 616 basechar 0
AnchorPoint: "Otsechka" 396 108 basechar 0
AnchorPoint: "Tonal" 97 675 basechar 0
LayerCount: 3
Fore
SplineSet
61 100 m 1
 82 166 187 208 187 208 c 1
 173 115 l 1
 173 115 54 63 33 0 c 1
 62 303 l 1
 23 292 13 273 3 231 c 1
 20 330 l 2
 26 365 40 388 71 399 c 1
 92 620 l 1
 110 620 l 1
 61 100 l 1
236 234 m 1
 258 278 341 321 341 321 c 1
 328 226 l 1
 328 226 246 185 221 136 c 1
 236 234 l 1
EndSplineSet
Validated: 1
LCarets2: 1 0 
Position2: "Advance neume with cinnabar mark-1" dx=200 dy=0 dh=0 dv=0
Ligature2: "'ccmp' Priznak Composition-1" uniEA92 uniEE5A
Colour: faff80
EndChar
StartChar: uniEA97
Encoding: 60055 60055 403
Width: 366
Flags: W
HStem: 0 21G<34.9157 43.5> 451 21G<29.4343 31>
VStem: 26 315
DStem2: 33 0 61 100 0.095349 0.995444<102.214 524.389>
AnchorPoint: "Podtinka" 44.6329 -5.00001 basechar 0
AnchorPoint: "Oblachko" 101 725 basechar 0
AnchorPoint: "Podchashie" 99 724 basechar 0
AnchorPoint: "Zaderzhka" 99 724 basechar 0
AnchorPoint: "Podvertka" 388 134 basechar 0
AnchorPoint: "Borzaya" 347 4 basechar 0
AnchorPoint: "Shaidur" 15 342 basechar 0
AnchorPoint: "Tikhaya" 52 200 basechar 0
AnchorPoint: "Kachka" 99 724 basechar 0
AnchorPoint: "Zevok" 316 614 basechar 0
AnchorPoint: "Udarka" 314 614 basechar 0
AnchorPoint: "Kupnaya" 100 722 basechar 0
AnchorPoint: "Lomka" 315 616 basechar 0
AnchorPoint: "Otsechka" 396 138 basechar 0
AnchorPoint: "Tonal" 97 675 basechar 0
LayerCount: 3
Fore
SplineSet
236 234 m 1
 258 278 341 321 341 321 c 1
 328 226 l 1
 328 226 246 185 221 136 c 1
 236 234 l 1
61 100 m 1
 82 166 187 208 187 208 c 1
 173 115 l 1
 173 115 54 63 33 0 c 1
 83 522 l 1
 46 510 36 491 26 451 c 1
 43 550 l 2
 49 583 62 606 92 618 c 1
 92 620 l 1
 99 620 l 2
 100 620 101 621 102 621 c 1
 102 620 l 1
 110 620 l 1
 61 100 l 1
EndSplineSet
Validated: 1
LCarets2: 1 0 
Position2: "Advance neume with cinnabar mark-1" dx=200 dy=0 dh=0 dv=0
Ligature2: "'ccmp' Priznak Composition-1" uniEA93 uniEE5A
Colour: faff80
EndChar
StartChar: uniEA99
Encoding: 60057 60057 405
Width: 366
Flags: W
HStem: 0 21G<34.8875 43.5>
VStem: 33 308
DStem2: 33 0 61 100 0.0939564 0.995576<102.188 553.448>
AnchorPoint: "Podtinka" 44.6329 -5.00001 basechar 0
AnchorPoint: "Oblachko" 101 725 basechar 0
AnchorPoint: "Podchashie" 99 724 basechar 0
AnchorPoint: "Zaderzhka" 99 724 basechar 0
AnchorPoint: "Podvertka" 388 134 basechar 0
AnchorPoint: "Borzaya" 347 4 basechar 0
AnchorPoint: "Shaidur" 15 342 basechar 0
AnchorPoint: "Tikhaya" 52 200 basechar 0
AnchorPoint: "Kachka" 99 724 basechar 0
AnchorPoint: "Zevok" 316 614 basechar 0
AnchorPoint: "Udarka" 314 614 basechar 0
AnchorPoint: "Kupnaya" 100 722 basechar 0
AnchorPoint: "Lomka" 315 616 basechar 0
AnchorPoint: "Otsechka" 396 138 basechar 0
AnchorPoint: "Tonal" 97 675 basechar 0
LayerCount: 3
Fore
SplineSet
236 234 m 1
 258 278 341 321 341 321 c 1
 328 226 l 1
 328 226 246 185 221 136 c 1
 236 234 l 1
61 100 m 1
 82 166 187 208 187 208 c 1
 173 115 l 1
 173 115 54 63 33 0 c 1
 85 551 l 1
 34 576 l 1
 42 654 l 1
 109 620 l 1
 110 620 l 1
 61 100 l 1
EndSplineSet
Validated: 1
LCarets2: 2 0 0 
Position2: "Advance neume with cinnabar mark-1" dx=200 dy=0 dh=0 dv=0
Ligature2: "'ccmp' Priznak-based Compositions-1" uniEA93 uniEEE2 uniEE5A
Colour: faff80
EndChar
StartChar: uniEA9A
Encoding: 60058 60058 406
Width: 299
Flags: W
HStem: 0 21G<34.9142 43.5> 281 98<164.015 241.888>
VStem: 92 18<602 620> 128 13<213.076 243.491> 138 142<240.9 351.191> 249 12<147.686 193.8> 252 28<183.651 307.5>
DStem2: 33 0 61 100 0.0947333 0.995503<102.203 304.385 395.877 622.801>
AnchorPoint: "Podtinka" 44.6329 -5.00001 basechar 0
AnchorPoint: "Oblachko" 101 725 basechar 0
AnchorPoint: "Podchashie" 99 724 basechar 0
AnchorPoint: "Zaderzhka" 99 724 basechar 0
AnchorPoint: "Podvertka" 388 134 basechar 0
AnchorPoint: "Borzaya" 347 4 basechar 0
AnchorPoint: "Shaidur" 15 342 basechar 0
AnchorPoint: "Tikhaya" 52 200 basechar 0
AnchorPoint: "Kachka" 99 724 basechar 0
AnchorPoint: "Zevok" 316 614 basechar 0
AnchorPoint: "Udarka" 314 614 basechar 0
AnchorPoint: "Kupnaya" 100 722 basechar 0
AnchorPoint: "Lomka" 315 616 basechar 0
AnchorPoint: "Otsechka" 330 116 basechar 0
AnchorPoint: "Tonal" 97 675 basechar 0
LayerCount: 3
Fore
SplineSet
252 212 m 0xe2
 252 252 241 281 196 281 c 0
 177 281 153 273 141 223 c 0
 138 211 126 207 128 219 c 2xf2
 138 292 l 2
 146 353 177 379 215 379 c 0
 261 379 280 334 280 281 c 0xe8
 280 267 279 252 276 237 c 2
 261 156 l 2
 259 145 247 142 249 160 c 0xe4
 251 178 252 196 252 212 c 0xe2
61 100 m 1
 82 166 187 208 187 208 c 1
 173 115 l 1
 173 115 54 63 33 0 c 1
 62 303 l 1
 23 292 13 273 3 231 c 1
 20 330 l 2
 26 365 40 388 71 399 c 1
 92 620 l 1
 110 620 l 1
 61 100 l 1
EndSplineSet
Validated: 1
LCarets2: 1 0 
Position2: "Advance neume with cinnabar mark-1" dx=200 dy=0 dh=0 dv=0
Ligature2: "'ccmp' Priznak Composition-1" uniEE77 uniEEE0
Colour: faff80
EndChar
StartChar: uniEA9B
Encoding: 60059 60059 304
Width: 299
GlyphClass: 3
Flags: W
HStem: 0 21G<34.9157 43.5> 281 98<164.015 241.888> 451 21G<29.4343 31>
VStem: 128 13<213.076 243.491> 138 142<240.9 351.191> 249 12<147.686 193.8> 252 28<183.651 307.5>
DStem2: 33 0 61 100 0.095349 0.995444<102.214 524.389>
AnchorPoint: "Podtinka" 44.6329 -5.00001 basechar 0
AnchorPoint: "Oblachko" 101 725 basechar 0
AnchorPoint: "Podchashie" 99 724 basechar 0
AnchorPoint: "Zaderzhka" 99 724 basechar 0
AnchorPoint: "Podvertka" 388 134 basechar 0
AnchorPoint: "Borzaya" 347 4 basechar 0
AnchorPoint: "Shaidur" 15 342 basechar 0
AnchorPoint: "Tikhaya" 52 200 basechar 0
AnchorPoint: "Kachka" 99 724 basechar 0
AnchorPoint: "Zevok" 316 614 basechar 0
AnchorPoint: "Udarka" 314 614 basechar 0
AnchorPoint: "Kupnaya" 100 722 basechar 0
AnchorPoint: "Lomka" 315 616 basechar 0
AnchorPoint: "Otsechka" 330 116 basechar 0
AnchorPoint: "Tonal" 97 675 basechar 0
LayerCount: 3
Fore
SplineSet
252 212 m 0xe2
 252 252 241 281 196 281 c 0
 177 281 153 273 141 223 c 0
 138 211 126 207 128 219 c 2xf2
 138 292 l 2
 146 353 177 379 215 379 c 0
 261 379 280 334 280 281 c 0xe8
 280 267 279 252 276 237 c 2
 261 156 l 2
 259 145 247 142 249 160 c 0xe4
 251 178 252 196 252 212 c 0xe2
61 100 m 1
 82 166 187 208 187 208 c 1
 173 115 l 1
 173 115 54 63 33 0 c 1
 83 522 l 1
 46 510 36 491 26 451 c 1
 43 550 l 2
 49 583 62 606 92 618 c 1
 92 620 l 1
 99 620 l 2
 100 620 101 621 102 621 c 1
 102 620 l 1
 110 620 l 1
 61 100 l 1
EndSplineSet
Validated: 1
LCarets2: 1 0 
Position2: "Advance neume with cinnabar mark-1" dx=200 dy=0 dh=0 dv=0
Ligature2: "'ccmp' Priznak Composition-1" uniEE77 uniEEE1
Colour: faff80
EndChar
StartChar: uniEA9D
Encoding: 60061 60061 306
Width: 299
Flags: W
HStem: 0 21G<34.8875 43.5> 281 98<164.015 241.888>
VStem: 128 13<213.076 243.491> 138 142<240.9 351.191> 249 12<147.182 193.8> 252 28<183.651 307.5>
DStem2: 33 0 61 100 0.0939564 0.995576<102.188 553.448>
AnchorPoint: "Podtinka" 44.6329 -5.00001 basechar 0
AnchorPoint: "Oblachko" 101 725 basechar 0
AnchorPoint: "Podchashie" 99 724 basechar 0
AnchorPoint: "Zaderzhka" 99 724 basechar 0
AnchorPoint: "Podvertka" 388 134 basechar 0
AnchorPoint: "Borzaya" 347 4 basechar 0
AnchorPoint: "Shaidur" 15 342 basechar 0
AnchorPoint: "Tikhaya" 52 200 basechar 0
AnchorPoint: "Kachka" 99 724 basechar 0
AnchorPoint: "Zevok" 316 614 basechar 0
AnchorPoint: "Udarka" 314 614 basechar 0
AnchorPoint: "Kupnaya" 100 722 basechar 0
AnchorPoint: "Lomka" 315 616 basechar 0
AnchorPoint: "Otsechka" 330 116 basechar 0
AnchorPoint: "Tonal" 97 675 basechar 0
LayerCount: 3
Fore
SplineSet
34 576 m 1xc0
 42 654 l 1
 109 620 l 1
 110 620 l 1
 61 100 l 1
 82 166 187 208 187 208 c 1
 173 115 l 1
 173 115 54 63 33 0 c 1
 85 551 l 1
 34 576 l 1xc0
252 212 m 0xc4
 252 252 241 281 196 281 c 0
 177 281 153 273 141 223 c 0
 138 211 126 207 128 219 c 2xe4
 138 292 l 2
 146 353 177 379 215 379 c 0
 261 379 280 334 280 281 c 0xd0
 280 267 279 252 276 237 c 2
 261 156 l 2
 260 151 257 147 254 147 c 0
 251 147 248 151 249 160 c 0xc8
 251 178 252 196 252 212 c 0xc4
EndSplineSet
Validated: 1
LCarets2: 1 0 
Position2: "Advance neume with cinnabar mark-1" dx=200 dy=0 dh=0 dv=0
Ligature2: "'ccmp' Priznak-based Compositions-1" uniEA9B uniEEE2
Colour: faff80
EndChar
StartChar: uniEAA0
Encoding: 60064 60064 407
Width: 251
Flags: W
HStem: 0 21G<197.5 207> 468 129<17 88.2813>
VStem: 199 40<68.4404 347.464>
DStem2: 73 309 94 317 0.134364 0.990932<10.7491 129.829>
AnchorPoint: "Podtinka" 156.633 -5.00001 basechar 0
AnchorPoint: "Podvertka" 155.5 -51.4 basechar 0
AnchorPoint: "Kupnaya" 133.5 760.6 basechar 0
AnchorPoint: "Shaidur" 15 342 basechar 0
AnchorPoint: "Borzaya" 16 34 basechar 0
AnchorPoint: "Zaderzhka" 133 757.9 basechar 0
AnchorPoint: "Podchashie" 133 758 basechar 0
AnchorPoint: "Oblachko" 133 761 basechar 0
AnchorPoint: "Tikhaya" 133 760 basechar 0
AnchorPoint: "Lomka" 16 188 basechar 0
AnchorPoint: "Kachka" 131 758 basechar 0
AnchorPoint: "Udarka" 133 760 basechar 0
AnchorPoint: "Zevok" 135 763 basechar 0
AnchorPoint: "Otsechka" 238 40 basechar 0
AnchorPoint: "Tonal" 97 675 basechar 0
LayerCount: 3
Fore
SplineSet
218 15 m 0
 217 6 211 0 203 0 c 0
 192 0 189 10 189 15 c 0
 190 34 199 110 199 190 c 0
 199 266 191 345 161 384 c 0
 145 405 128 422 110 435 c 1
 94 317 l 1
 73 309 l 1
 73 309 83 385 92 446 c 1
 66 460 36 468 -0 468 c 1
 17 597 l 1
 127 597 239 485 239 316 c 0
 239 163 229 134 218 15 c 0
EndSplineSet
Validated: 1
Position2: "Advance neume with cinnabar mark-1" dx=200 dy=0 dh=0 dv=0
Colour: faff80
EndChar
StartChar: uniEAA1
Encoding: 60065 60065 408
Width: 251
Flags: W
HStem: 0 21G<197.5 207>
VStem: 199 40<68.4404 347.464>
DStem2: -12 369 9 377 0.126176 0.992008<10.5858 101.381>
AnchorPoint: "Podtinka" 166.633 -5.00001 basechar 0
AnchorPoint: "Podvertka" 166 -86 basechar 0
AnchorPoint: "Kupnaya" 137.5 758.6 basechar 0
AnchorPoint: "Shaidur" 15 342 basechar 0
AnchorPoint: "Borzaya" 16 34 basechar 0
AnchorPoint: "Zaderzhka" 133 757.9 basechar 0
AnchorPoint: "Podchashie" 133 758 basechar 0
AnchorPoint: "Oblachko" 133 761 basechar 0
AnchorPoint: "Tikhaya" 133 760 basechar 0
AnchorPoint: "Lomka" 16 188 basechar 0
AnchorPoint: "Kachka" 131 758 basechar 0
AnchorPoint: "Udarka" 133 760 basechar 0
AnchorPoint: "Zevok" 135 763 basechar 0
AnchorPoint: "Otsechka" 274 20 basechar 0
AnchorPoint: "Tonal" 97 675 basechar 0
LayerCount: 3
Fore
SplineSet
218 15 m 0
 217 6 211 0 203 0 c 0
 192 0 189 10 189 15 c 0
 190 34 199 110 199 190 c 0
 199 266 191 345 161 384 c 0
 123 433 81 462 21 467 c 1
 9 377 l 1
 -12 369 l 1
 17 597 l 1
 127 597 239 485 239 316 c 0
 239 163 229 134 218 15 c 0
EndSplineSet
Validated: 1
LCarets2: 1 0 
Position2: "Advance neume with cinnabar mark-1" dx=200 dy=0 dh=0 dv=0
Ligature2: "'ccmp' Priznak Composition-1" uniEE78 uniEEE0
Colour: faff80
EndChar
